<?xml version="1.0" standalone="no"?>
<mlt LC_NUMERIC="C" version="7.5.0" title="Shotcut version 22.01.30" producer="main_bin">
  <profile description="automatic" width="1280" height="720" progressive="1" sample_aspect_num="1" sample_aspect_den="1" display_aspect_num="16" display_aspect_den="9" frame_rate_num="30000" frame_rate_den="1001" colorspace="709"/>
  <playlist id="main_bin">
    <property name="xml_retain">1</property>
  </playlist>
  <producer id="black" in="00:00:00.000" out="00:02:38.672">
    <property name="length">00:02:38.705</property>
    <property name="eof">pause</property>
    <property name="resource">0</property>
    <property name="aspect_ratio">1</property>
    <property name="mlt_service">color</property>
    <property name="mlt_image_format">rgba</property>
    <property name="set.test_audio">0</property>
  </producer>
  <playlist id="background">
    <entry producer="black" in="00:00:00.000" out="00:02:38.672"/>
  </playlist>
  <chain id="chain0" out="00:00:15.816">
    <property name="length">00:00:15.849</property>
    <property name="eof">pause</property>
    <property name="resource">c:/Users/migue/Videos/Churcill/1-FaloPrimeiraVez.mp4</property>
    <property name="mlt_service">avformat-novalidate</property>
    <property name="seekable">1</property>
    <property name="audio_index">1</property>
    <property name="video_index">-1</property>
    <property name="mute_on_pause">0</property>
    <property name="shotcut:hash">dfc8fd712bf06f3151e1c60afa2ce4f8</property>
    <property name="shotcut:caption">1-FaloPrimeiraVez.mp4</property>
    <property name="shotcut:defaultAudioIndex">1</property>
    <property name="xml">was here</property>
    <filter id="filter0" out="00:00:15.816">
      <property name="window">75</property>
      <property name="max_gain">20dB</property>
      <property name="level">4</property>
      <property name="mlt_service">volume</property>
    </filter>
    <filter id="filter1" out="00:00:15.816">
      <property name="mlt_service">ladspa.1410</property>
      <property name="0">33.6</property>
      <property name="1">23520</property>
      <property name="2">-70</property>
      <property name="3">250.008</property>
      <property name="4">1500.5</property>
      <property name="5">2001</property>
      <property name="6">-90</property>
      <property name="instances">2</property>
    </filter>
    <filter id="filter2" out="00:00:15.816">
      <property name="mlt_service">ladspa.1890</property>
      <property name="0">7534</property>
      <property name="1">1</property>
      <property name="wetness">0.246</property>
      <property name="instances">2</property>
      <property name="disable">0</property>
    </filter>
  </chain>
  <playlist id="playlist0">
    <property name="shotcut:video">1</property>
    <property name="shotcut:name">V1</property>
    <entry producer="chain0" in="00:00:00.000" out="00:00:15.816"/>
  </playlist>
  <chain id="chain1" out="00:05:27.528">
    <property name="length">00:05:27.561</property>
    <property name="eof">pause</property>
    <property name="resource">C:/Users/migue/Downloads/BLOOD, TOIL, TEARS AND SWEAT speech Winston Churchill.mp4</property>
    <property name="mlt_service">avformat-novalidate</property>
    <property name="seekable">1</property>
    <property name="audio_index">1</property>
    <property name="video_index">-1</property>
    <property name="mute_on_pause">0</property>
    <property name="shotcut:hash">03b38cc896ae81bd8605e510cc4bc078</property>
    <property name="ignore_points">0</property>
    <property name="shotcut:caption">BLOOD, TOIL, TEARS AND SWEAT speech Winston Churchill.mp4</property>
    <property name="xml">was here</property>
    <property name="shotcut:defaultAudioIndex">1</property>
    <filter id="filter3" in="00:03:30.297" out="00:04:46.513">
      <property name="window">75</property>
      <property name="max_gain">20dB</property>
      <property name="level">7.5</property>
      <property name="mlt_service">volume</property>
    </filter>
    <filter id="filter4" in="00:03:30.297" out="00:04:46.513">
      <property name="mlt_service">ladspa.1410</property>
      <property name="0">33.6</property>
      <property name="1">23520</property>
      <property name="2">-70</property>
      <property name="3">250.008</property>
      <property name="4">1500.5</property>
      <property name="5">2001</property>
      <property name="6">-90</property>
      <property name="instances">2</property>
    </filter>
  </chain>
  <playlist id="playlist1">
    <property name="shotcut:audio">1</property>
    <property name="shotcut:name">A1</property>
    <blank length="00:00:16.984"/>
    <entry producer="chain1" in="00:03:30.297" out="00:04:46.513"/>
  </playlist>
  <chain id="chain2" out="00:01:32.299">
    <property name="length">00:01:32.332</property>
    <property name="eof">pause</property>
    <property name="resource">c:/Users/migue/Videos/Churcill/THEIR FINEST HOUR.mp4</property>
    <property name="mlt_service">avformat-novalidate</property>
    <property name="seekable">1</property>
    <property name="audio_index">1</property>
    <property name="video_index">0</property>
    <property name="mute_on_pause">0</property>
    <property name="shotcut:hash">260ceb248a9cbc826e201895c88546d4</property>
    <property name="shotcut:caption">THEIR FINEST HOUR.mp4</property>
    <property name="xml">was here</property>
    <filter id="filter5" in="00:00:24.725" out="00:00:36.503">
      <property name="window">75</property>
      <property name="max_gain">20dB</property>
      <property name="level">6.8</property>
      <property name="mlt_service">volume</property>
    </filter>
    <filter id="filter6" in="00:00:24.725" out="00:00:36.503">
      <property name="mlt_service">ladspa.1410</property>
      <property name="0">33.6</property>
      <property name="1">23520</property>
      <property name="2">-70</property>
      <property name="3">250.008</property>
      <property name="4">1500.5</property>
      <property name="5">2001</property>
      <property name="6">-90</property>
      <property name="instances">2</property>
    </filter>
  </chain>
  <chain id="chain3" out="00:01:32.299">
    <property name="length">00:01:32.332</property>
    <property name="eof">pause</property>
    <property name="resource">c:/Users/migue/Videos/Churcill/THEIR FINEST HOUR.mp4</property>
    <property name="mlt_service">avformat-novalidate</property>
    <property name="seekable">1</property>
    <property name="audio_index">1</property>
    <property name="video_index">0</property>
    <property name="mute_on_pause">0</property>
    <property name="shotcut:hash">260ceb248a9cbc826e201895c88546d4</property>
    <property name="shotcut:caption">THEIR FINEST HOUR.mp4</property>
    <property name="xml">was here</property>
    <filter id="filter7" out="00:00:16.316">
      <property name="window">75</property>
      <property name="max_gain">20dB</property>
      <property name="level">6.8</property>
      <property name="mlt_service">volume</property>
    </filter>
    <filter id="filter8" out="00:00:15.482">
      <property name="mlt_service">ladspa.1410</property>
      <property name="0">33.6</property>
      <property name="1">23520</property>
      <property name="2">-70</property>
      <property name="3">250.008</property>
      <property name="4">1500.5</property>
      <property name="5">2001</property>
      <property name="6">-90</property>
      <property name="instances">2</property>
    </filter>
  </chain>
  <chain id="chain4" out="00:01:32.299">
    <property name="length">00:01:32.332</property>
    <property name="eof">pause</property>
    <property name="resource">c:/Users/migue/Videos/Churcill/THEIR FINEST HOUR.mp4</property>
    <property name="mlt_service">avformat-novalidate</property>
    <property name="seekable">1</property>
    <property name="audio_index">1</property>
    <property name="video_index">0</property>
    <property name="mute_on_pause">0</property>
    <property name="shotcut:hash">260ceb248a9cbc826e201895c88546d4</property>
    <property name="shotcut:caption">THEIR FINEST HOUR.mp4</property>
    <property name="xml">was here</property>
    <filter id="filter9" in="00:01:09.710" out="00:01:32.299">
      <property name="window">75</property>
      <property name="max_gain">20dB</property>
      <property name="level">6.8</property>
      <property name="mlt_service">volume</property>
    </filter>
    <filter id="filter10" in="00:01:09.710" out="00:01:32.299">
      <property name="mlt_service">ladspa.1410</property>
      <property name="0">33.6</property>
      <property name="1">23520</property>
      <property name="2">-70</property>
      <property name="3">250.008</property>
      <property name="4">1500.5</property>
      <property name="5">2001</property>
      <property name="6">-90</property>
      <property name="instances">2</property>
    </filter>
  </chain>
  <playlist id="playlist2">
    <property name="shotcut:video">1</property>
    <property name="shotcut:name">V2</property>
    <blank length="00:01:35.702"/>
    <entry producer="chain2" in="00:00:24.725" out="00:00:36.503"/>
    <blank length="00:00:00.667"/>
    <entry producer="chain3" in="00:00:00.000" out="00:00:15.482"/>
    <blank length="00:00:00.567"/>
    <entry producer="chain4" in="00:01:09.710" out="00:01:32.299"/>
  </playlist>
  <chain id="chain5" out="00:03:20.187">
    <property name="length">00:03:20.220</property>
    <property name="eof">pause</property>
    <property name="resource">c:/Users/migue/Videos/Churcill/yt1s.com - Twelve Titans Music  Day One Epic Dramatic Orchestral.mp3</property>
    <property name="mlt_service">avformat</property>
    <property name="seekable">1</property>
    <property name="audio_index">0</property>
    <property name="video_index">-1</property>
    <property name="mute_on_pause">1</property>
    <property name="video_delay">0</property>
    <property name="shotcut:hash">270b5fd6d144f83fff0f0eb6a0c0aa82</property>
    <property name="shotcut:defaultAudioIndex">0</property>
    <property name="shotcut:caption">yt1s.com - Twelve Titans Music  Day One Epic Dramatic Orchestral.mp3</property>
    <property name="xml">was here</property>
    <filter id="filter11" in="00:00:48.048" out="00:02:21.255">
      <property name="window">75</property>
      <property name="max_gain">20dB</property>
      <property name="level">1.3</property>
      <property name="mlt_service">volume</property>
    </filter>
    <filter id="filter12" in="00:00:48.048" out="00:02:21.255">
      <property name="window">75</property>
      <property name="max_gain">20dB</property>
      <property name="level">00:01:03.804=0;00:01:33.200=-60</property>
      <property name="mlt_service">volume</property>
      <property name="shotcut:filter">fadeOutVolume</property>
      <property name="shotcut:animOut">00:00:29.429</property>
    </filter>
  </chain>
  <playlist id="playlist3">
    <property name="shotcut:video">1</property>
    <property name="shotcut:name">V3</property>
    <entry producer="chain5" in="00:00:48.048" out="00:02:21.255"/>
  </playlist>
  <chain id="chain6" out="00:03:20.187">
    <property name="length">00:03:20.220</property>
    <property name="eof">pause</property>
    <property name="resource">c:/Users/migue/Videos/Churcill/yt1s.com - Twelve Titans Music  Day One Epic Dramatic Orchestral.mp3</property>
    <property name="mlt_service">avformat-novalidate</property>
    <property name="seekable">1</property>
    <property name="audio_index">0</property>
    <property name="video_index">-1</property>
    <property name="mute_on_pause">0</property>
    <property name="shotcut:hash">270b5fd6d144f83fff0f0eb6a0c0aa82</property>
    <property name="shotcut:caption">yt1s.com - Twelve Titans Music  Day One Epic Dramatic Orchestral.mp3</property>
    <property name="xml">was here</property>
    <filter id="filter13" in="00:02:21.288" out="00:02:57.024">
      <property name="window">75</property>
      <property name="max_gain">20dB</property>
      <property name="level">-2.6</property>
      <property name="mlt_service">volume</property>
    </filter>
    <filter id="filter14" in="00:02:21.288" out="00:02:57.024">
      <property name="window">75</property>
      <property name="max_gain">20dB</property>
      <property name="level">00:00:00.000=-60;00:00:09.009=0</property>
      <property name="mlt_service">volume</property>
      <property name="shotcut:filter">fadeInVolume</property>
      <property name="shotcut:animIn">271</property>
    </filter>
  </chain>
  <chain id="chain7" out="00:03:20.187">
    <property name="length">00:03:20.220</property>
    <property name="eof">pause</property>
    <property name="resource">c:/Users/migue/Videos/Churcill/yt1s.com - Twelve Titans Music  Day One Epic Dramatic Orchestral.mp3</property>
    <property name="mlt_service">avformat</property>
    <property name="seekable">1</property>
    <property name="audio_index">0</property>
    <property name="video_index">-1</property>
    <property name="mute_on_pause">1</property>
    <property name="video_delay">0</property>
    <property name="shotcut:hash">270b5fd6d144f83fff0f0eb6a0c0aa82</property>
    <property name="shotcut:defaultAudioIndex">0</property>
    <property name="shotcut:caption">yt1s.com - Twelve Titans Music  Day One Epic Dramatic Orchestral.mp3</property>
    <property name="xml">was here</property>
    <filter id="filter15" in="00:02:57.057" out="00:03:20.187">
      <property name="window">75</property>
      <property name="max_gain">20dB</property>
      <property name="level">6</property>
      <property name="mlt_service">volume</property>
    </filter>
    <filter id="filter16" in="00:02:57.057" out="00:03:20.187">
      <property name="window">75</property>
      <property name="max_gain">20dB</property>
      <property name="level">00:00:00.000=-60;00:00:00.167=0</property>
      <property name="mlt_service">volume</property>
      <property name="shotcut:filter">fadeInVolume</property>
      <property name="shotcut:animIn">6</property>
    </filter>
  </chain>
  <playlist id="playlist5">
    <property name="shotcut:video">1</property>
    <property name="shotcut:name">V4</property>
    <blank length="00:00:58.292"/>
    <entry producer="chain6" in="00:02:21.288" out="00:02:57.024"/>
    <entry producer="chain7" in="00:02:57.057" out="00:03:20.187"/>
  </playlist>
  <producer id="producer0" in="00:00:00.000" out="03:59:59.993">
    <property name="length">03:59:60.027</property>
    <property name="eof">pause</property>
    <property name="resource">c:/Users/migue/Pictures/baixados.jpg</property>
    <property name="ttl">1</property>
    <property name="aspect_ratio">1</property>
    <property name="progressive">1</property>
    <property name="seekable">1</property>
    <property name="mlt_service">qimage</property>
    <property name="creation_time">2022-02-11T00:36:33</property>
    <property name="shotcut:hash">b0832fb9c8334de0a90000e858cb975e</property>
    <property name="shotcut:caption">baixados.jpg</property>
    <property name="xml">was here</property>
  </producer>
  <producer id="producer1" in="00:00:00.000" out="03:59:59.993">
    <property name="length">03:59:60.027</property>
    <property name="eof">pause</property>
    <property name="resource">c:/Users/migue/Pictures/baixados (2).jpg</property>
    <property name="ttl">1</property>
    <property name="aspect_ratio">1</property>
    <property name="progressive">1</property>
    <property name="seekable">1</property>
    <property name="mlt_service">qimage</property>
    <property name="creation_time">2022-02-11T01:47:25</property>
    <property name="shotcut:hash">298558f6f9dd9cb8727e698906960737</property>
    <property name="shotcut:caption">baixados (2).jpg</property>
  </producer>
  <tractor id="tractor0" in="00:00:00.000" out="00:00:02.236">
    <property name="shotcut:transition">lumaMix</property>
    <track producer="producer0" in="00:01:01.368" out="00:01:03.604"/>
    <track producer="producer1" in="00:00:00.000" out="00:00:02.236"/>
    <transition id="transition0" out="00:00:02.236">
      <property name="a_track">0</property>
      <property name="b_track">1</property>
      <property name="factory">loader</property>
      <property name="mlt_service">luma</property>
      <property name="alpha_over">1</property>
    </transition>
    <transition id="transition1" out="00:00:02.236">
      <property name="a_track">0</property>
      <property name="b_track">1</property>
      <property name="mlt_service">mix</property>
      <property name="start">-1</property>
      <property name="accepts_blanks">1</property>
    </transition>
  </tractor>
  <producer id="producer2" in="00:00:00.000" out="03:59:59.993">
    <property name="length">03:59:60.027</property>
    <property name="eof">pause</property>
    <property name="resource">c:/Users/migue/Pictures/baixados.jpg</property>
    <property name="ttl">1</property>
    <property name="aspect_ratio">1</property>
    <property name="progressive">1</property>
    <property name="seekable">1</property>
    <property name="mlt_service">qimage</property>
    <property name="creation_time">2022-02-11T00:36:33</property>
    <property name="shotcut:hash">b0832fb9c8334de0a90000e858cb975e</property>
    <property name="shotcut:caption">baixados.jpg</property>
  </producer>
  <tractor id="tractor1" in="00:00:00.000" out="00:00:04.071">
    <property name="shotcut:transition">lumaMix</property>
    <track producer="producer1" in="00:00:32.099" out="00:00:36.169"/>
    <track producer="producer2" in="00:01:33.467" out="00:01:37.538"/>
    <transition id="transition2" out="00:00:04.071">
      <property name="a_track">0</property>
      <property name="b_track">1</property>
      <property name="factory">loader</property>
      <property name="mlt_service">luma</property>
      <property name="alpha_over">1</property>
    </transition>
    <transition id="transition3" out="00:00:04.071">
      <property name="a_track">0</property>
      <property name="b_track">1</property>
      <property name="mlt_service">mix</property>
      <property name="start">-1</property>
      <property name="accepts_blanks">1</property>
    </transition>
  </tractor>
  <chain id="chain8" out="00:03:24.057">
    <property name="length">00:03:24.091</property>
    <property name="eof">pause</property>
    <property name="resource">c:/Users/migue/Downloads/yt1s.com - Twelve Titans Music  Artifice The Avengers Age of Ultron  Trailer 3 Music.mp3</property>
    <property name="mlt_service">avformat-novalidate</property>
    <property name="seekable">1</property>
    <property name="audio_index">0</property>
    <property name="video_index">-1</property>
    <property name="mute_on_pause">0</property>
    <property name="shotcut:hash">39cdffa5593ee2eadc3715de6dfa58dc</property>
    <property name="shotcut:caption">yt1s.com - Twelve Titans Music  Artifice The Avengers Age of Ultron  Trailer 3 Music.mp3</property>
    <property name="xml">was here</property>
    <filter id="filter17" out="00:00:42.442">
      <property name="window">75</property>
      <property name="max_gain">20dB</property>
      <property name="level">00:00:00.000=-60;00:00:02.102=0</property>
      <property name="mlt_service">volume</property>
      <property name="shotcut:filter">fadeInVolume</property>
      <property name="shotcut:animIn">64</property>
    </filter>
    <filter id="filter18" out="00:00:42.442">
      <property name="window">75</property>
      <property name="max_gain">20dB</property>
      <property name="level">4.5</property>
      <property name="mlt_service">volume</property>
    </filter>
  </chain>
  <chain id="chain9" out="00:03:24.057">
    <property name="length">00:03:24.091</property>
    <property name="eof">pause</property>
    <property name="resource">c:/Users/migue/Downloads/yt1s.com - Twelve Titans Music  Artifice The Avengers Age of Ultron  Trailer 3 Music.mp3</property>
    <property name="mlt_service">avformat-novalidate</property>
    <property name="seekable">1</property>
    <property name="audio_index">0</property>
    <property name="video_index">-1</property>
    <property name="mute_on_pause">0</property>
    <property name="shotcut:hash">39cdffa5593ee2eadc3715de6dfa58dc</property>
    <property name="shotcut:caption">yt1s.com - Twelve Titans Music  Artifice The Avengers Age of Ultron  Trailer 3 Music.mp3</property>
    <property name="xml">was here</property>
    <filter id="filter19" in="00:00:42.476" out="00:00:54.521">
      <property name="window">75</property>
      <property name="max_gain">20dB</property>
      <property name="level">4.5</property>
      <property name="mlt_service">volume</property>
    </filter>
  </chain>
  <chain id="chain10" out="00:03:24.057">
    <property name="length">00:03:24.091</property>
    <property name="eof">pause</property>
    <property name="resource">c:/Users/migue/Downloads/yt1s.com - Twelve Titans Music  Artifice The Avengers Age of Ultron  Trailer 3 Music.mp3</property>
    <property name="mlt_service">avformat-novalidate</property>
    <property name="seekable">1</property>
    <property name="audio_index">0</property>
    <property name="video_index">-1</property>
    <property name="mute_on_pause">0</property>
    <property name="shotcut:hash">39cdffa5593ee2eadc3715de6dfa58dc</property>
    <property name="shotcut:caption">yt1s.com - Twelve Titans Music  Artifice The Avengers Age of Ultron  Trailer 3 Music.mp3</property>
    <property name="xml">was here</property>
    <filter id="filter20" in="00:00:42.476" out="00:00:54.521">
      <property name="window">75</property>
      <property name="max_gain">20dB</property>
      <property name="level">5.5</property>
      <property name="mlt_service">volume</property>
    </filter>
  </chain>
  <tractor id="tractor2" in="00:00:00.000" out="00:00:01.969">
    <property name="shotcut:transition">lumaMix</property>
    <track producer="chain9" in="00:00:52.553" out="00:00:54.521"/>
    <track producer="chain10" in="00:00:42.476" out="00:00:44.444"/>
    <transition id="transition4" out="00:00:01.969">
      <property name="a_track">0</property>
      <property name="b_track">1</property>
      <property name="factory">loader</property>
      <property name="mlt_service">luma</property>
      <property name="alpha_over">1</property>
    </transition>
    <transition id="transition5" out="00:00:01.969">
      <property name="a_track">0</property>
      <property name="b_track">1</property>
      <property name="start">-1</property>
      <property name="accepts_blanks">1</property>
      <property name="mlt_service">mix</property>
    </transition>
  </tractor>
  <playlist id="playlist6">
    <property name="shotcut:video">1</property>
    <property name="shotcut:name">V5</property>
    <entry producer="producer0" in="00:00:00.000" out="00:01:01.335"/>
    <entry producer="tractor0" in="00:00:00.000" out="00:00:02.236"/>
    <entry producer="tractor1" in="00:00:00.000" out="00:00:04.071"/>
    <entry producer="producer2" in="00:01:37.571" out="00:01:57.190"/>
    <blank length="00:00:06.673"/>
    <entry producer="chain8" in="00:00:00.000" out="00:00:42.442"/>
    <entry producer="chain9" in="00:00:42.476" out="00:00:52.519"/>
    <entry producer="tractor2" in="00:00:00.000" out="00:00:01.969"/>
    <entry producer="chain10" in="00:00:44.478" out="00:00:54.521"/>
  </playlist>
  <chain id="chain11" out="00:00:38.939">
    <property name="length">00:00:38.972</property>
    <property name="eof">pause</property>
    <property name="resource">c:/Users/migue/Downloads/WhatsApp Video 2022-02-13 at 21.24.00.mp4</property>
    <property name="mlt_service">avformat-novalidate</property>
    <property name="seekable">1</property>
    <property name="audio_index">1</property>
    <property name="video_index">0</property>
    <property name="mute_on_pause">0</property>
    <property name="shotcut:hash">7b31802c205b14af3319fe688f6ff3f2</property>
    <property name="shotcut:caption">WhatsApp Video 2022-02-13 at 21.24.00.mp4</property>
    <property name="xml">was here</property>
  </chain>
  <chain id="chain12" out="00:00:38.939">
    <property name="length">00:00:38.972</property>
    <property name="eof">pause</property>
    <property name="resource">c:/Users/migue/Downloads/WhatsApp Video 2022-02-13 at 21.24.00.mp4</property>
    <property name="mlt_service">avformat-novalidate</property>
    <property name="seekable">1</property>
    <property name="audio_index">1</property>
    <property name="video_index">0</property>
    <property name="mute_on_pause">0</property>
    <property name="shotcut:hash">7b31802c205b14af3319fe688f6ff3f2</property>
    <property name="shotcut:caption">WhatsApp Video 2022-02-13 at 21.24.00.mp4</property>
    <property name="xml">was here</property>
  </chain>
  <tractor id="tractor3" in="00:00:00.000" out="00:00:00.701">
    <property name="shotcut:transition">lumaMix</property>
    <track producer="chain11" in="00:00:38.238" out="00:00:38.939"/>
    <track producer="chain12" in="00:00:00.067" out="00:00:00.767"/>
    <transition id="transition6" out="00:00:00.701">
      <property name="a_track">0</property>
      <property name="b_track">1</property>
      <property name="factory">loader</property>
      <property name="mlt_service">luma</property>
      <property name="alpha_over">1</property>
    </transition>
    <transition id="transition7" out="00:00:00.701">
      <property name="a_track">0</property>
      <property name="b_track">1</property>
      <property name="mlt_service">mix</property>
      <property name="start">-1</property>
      <property name="accepts_blanks">1</property>
    </transition>
  </tractor>
  <chain id="chain13" out="00:00:38.939">
    <property name="length">00:00:38.972</property>
    <property name="eof">pause</property>
    <property name="resource">c:/Users/migue/Downloads/WhatsApp Video 2022-02-13 at 21.24.00.mp4</property>
    <property name="mlt_service">avformat-novalidate</property>
    <property name="seekable">1</property>
    <property name="audio_index">1</property>
    <property name="video_index">0</property>
    <property name="mute_on_pause">0</property>
    <property name="shotcut:hash">7b31802c205b14af3319fe688f6ff3f2</property>
    <property name="shotcut:caption">WhatsApp Video 2022-02-13 at 21.24.00.mp4</property>
    <property name="xml">was here</property>
  </chain>
  <tractor id="tractor4" in="00:00:00.000" out="00:00:00.667">
    <property name="shotcut:transition">lumaMix</property>
    <track producer="chain12" in="00:00:38.171" out="00:00:38.839"/>
    <track producer="chain13" in="00:00:04.338" out="00:00:05.005"/>
    <transition id="transition8" out="00:00:00.667">
      <property name="a_track">0</property>
      <property name="b_track">1</property>
      <property name="factory">loader</property>
      <property name="mlt_service">luma</property>
      <property name="alpha_over">1</property>
    </transition>
    <transition id="transition9" out="00:00:00.667">
      <property name="a_track">0</property>
      <property name="b_track">1</property>
      <property name="mlt_service">mix</property>
      <property name="start">-1</property>
      <property name="accepts_blanks">1</property>
    </transition>
  </tractor>
  <chain id="chain14" out="00:00:38.939">
    <property name="length">00:00:38.972</property>
    <property name="eof">pause</property>
    <property name="resource">c:/Users/migue/Downloads/WhatsApp Video 2022-02-13 at 21.24.00.mp4</property>
    <property name="mlt_service">avformat-novalidate</property>
    <property name="seekable">1</property>
    <property name="audio_index">1</property>
    <property name="video_index">0</property>
    <property name="mute_on_pause">0</property>
    <property name="shotcut:hash">7b31802c205b14af3319fe688f6ff3f2</property>
    <property name="shotcut:caption">WhatsApp Video 2022-02-13 at 21.24.00.mp4</property>
    <property name="xml">was here</property>
  </chain>
  <tractor id="tractor5" in="00:00:00.000" out="00:00:00.901">
    <property name="shotcut:transition">lumaMix</property>
    <track producer="chain13" in="00:00:37.304" out="00:00:38.205"/>
    <track producer="chain14" in="00:00:00.801" out="00:00:01.702"/>
    <transition id="transition10" out="00:00:00.901">
      <property name="a_track">0</property>
      <property name="b_track">1</property>
      <property name="factory">loader</property>
      <property name="mlt_service">luma</property>
      <property name="alpha_over">1</property>
    </transition>
    <transition id="transition11" out="00:00:00.901">
      <property name="a_track">0</property>
      <property name="b_track">1</property>
      <property name="mlt_service">mix</property>
      <property name="start">-1</property>
      <property name="accepts_blanks">1</property>
    </transition>
  </tractor>
  <chain id="chain15" out="00:00:38.939">
    <property name="length">00:00:38.972</property>
    <property name="eof">pause</property>
    <property name="resource">c:/Users/migue/Downloads/WhatsApp Video 2022-02-13 at 21.24.00.mp4</property>
    <property name="mlt_service">avformat-novalidate</property>
    <property name="seekable">1</property>
    <property name="audio_index">1</property>
    <property name="video_index">0</property>
    <property name="mute_on_pause">0</property>
    <property name="shotcut:hash">7b31802c205b14af3319fe688f6ff3f2</property>
    <property name="shotcut:caption">WhatsApp Video 2022-02-13 at 21.24.00.mp4</property>
    <property name="xml">was here</property>
  </chain>
  <tractor id="tractor6" in="00:00:00.000" out="00:00:01.101">
    <property name="shotcut:transition">lumaMix</property>
    <track producer="chain14" in="00:00:37.838" out="00:00:38.939"/>
    <track producer="chain15" in="00:00:01.735" out="00:00:02.836"/>
    <transition id="transition12" out="00:00:01.101">
      <property name="a_track">0</property>
      <property name="b_track">1</property>
      <property name="factory">loader</property>
      <property name="mlt_service">luma</property>
      <property name="alpha_over">1</property>
    </transition>
    <transition id="transition13" out="00:00:01.101">
      <property name="a_track">0</property>
      <property name="b_track">1</property>
      <property name="mlt_service">mix</property>
      <property name="start">-1</property>
      <property name="accepts_blanks">1</property>
    </transition>
  </tractor>
  <playlist id="playlist4">
    <property name="shotcut:video">1</property>
    <property name="shotcut:name">V6</property>
    <entry producer="chain11" in="00:00:04.338" out="00:00:38.205"/>
    <entry producer="tractor3" in="00:00:00.000" out="00:00:00.701"/>
    <entry producer="chain12" in="00:00:00.801" out="00:00:38.138"/>
    <entry producer="tractor4" in="00:00:00.000" out="00:00:00.667"/>
    <entry producer="chain13" in="00:00:05.038" out="00:00:37.271"/>
    <entry producer="tractor5" in="00:00:00.000" out="00:00:00.901"/>
    <entry producer="chain14" in="00:00:01.735" out="00:00:37.804"/>
    <entry producer="tractor6" in="00:00:00.000" out="00:00:01.101"/>
    <entry producer="chain15" in="00:00:02.870" out="00:00:08.308"/>
  </playlist>
  <producer id="producer3" in="00:00:00.000" out="03:59:59.993">
    <property name="length">03:59:60.027</property>
    <property name="eof">pause</property>
    <property name="resource">c:/Users/migue/Videos/T3.png</property>
    <property name="ttl">1</property>
    <property name="aspect_ratio">1</property>
    <property name="progressive">1</property>
    <property name="seekable">1</property>
    <property name="mlt_service">qimage</property>
    <property name="creation_time">2022-02-14T00:20:32</property>
    <property name="shotcut:hash">bc383d3fbd4e56412006f398de51a2b1</property>
    <property name="shotcut:caption">T3.png</property>
    <property name="xml">was here</property>
    <filter id="filter21" out="00:00:01.502">
      <property name="background">color:#00000000</property>
      <property name="mlt_service">affine</property>
      <property name="shotcut:filter">affineSizePosition</property>
      <property name="transition.fill">1</property>
      <property name="transition.distort">0</property>
      <property name="transition.rect">262.435 -10.5763 1399.94 735.94 1</property>
      <property name="transition.valign">middle</property>
      <property name="transition.halign">center</property>
      <property name="shotcut:animIn">00:00:00.000</property>
      <property name="shotcut:animOut">00:00:00.000</property>
      <property name="transition.threads">0</property>
      <property name="transition.fix_rotate_x">0</property>
    </filter>
    <filter id="filter22" out="00:00:01.502">
      <property name="argument"></property>
      <property name="geometry">-27 172 849 576 1</property>
      <property name="family">Sans</property>
      <property name="size">48</property>
      <property name="weight">400</property>
      <property name="style">normal</property>
      <property name="fgcolour">0x000000ff</property>
      <property name="bgcolour">#00000000</property>
      <property name="olcolour">0x00000000</property>
      <property name="pad">0</property>
      <property name="halign">left</property>
      <property name="valign">top</property>
      <property name="outline">0</property>
      <property name="pixel_ratio">1</property>
      <property name="mlt_service">qtext</property>
      <property name="shotcut:filter">richText</property>
      <property name="html">&lt;!DOCTYPE HTML PUBLIC &quot;-//W3C//DTD HTML 4.0//EN&quot; &quot;http://www.w3.org/TR/REC-html40/strict.dtd&quot;&gt;
&lt;html&gt;&lt;head&gt;&lt;meta name=&quot;qrichtext&quot; content=&quot;1&quot; /&gt;&lt;style type=&quot;text/css&quot;&gt;
p, li { white-space: pre-wrap; }
&lt;/style&gt;&lt;/head&gt;&lt;body style=&quot; font-family:'MS Shell Dlg 2'; font-size:8.25pt; font-weight:400; font-style:normal;&quot;&gt;
&lt;p align=&quot;center&quot; style=&quot; margin-top:0px; margin-bottom:0px; margin-left:0px; margin-right:0px; -qt-block-indent:0; text-indent:0px;&quot;&gt;&lt;span style=&quot; font-family:'Times New Roman'; font-size:70pt; font-weight:600; color:#efef00;&quot;&gt;Falo com vocês&lt;/span&gt;&lt;/p&gt;
&lt;p align=&quot;center&quot; style=&quot;-qt-paragraph-type:empty; margin-top:0px; margin-bottom:0px; margin-left:0px; margin-right:0px; -qt-block-indent:0; text-indent:0px; font-family:'Times New Roman'; font-size:70pt; font-weight:600; color:#efef00;&quot;&gt;&lt;br /&gt;&lt;/p&gt;&lt;/body&gt;&lt;/html&gt;</property>
      <property name="shotcut:animIn">00:00:00.000</property>
      <property name="shotcut:animOut">00:00:00.000</property>
    </filter>
  </producer>
  <producer id="producer4" in="00:00:00.000" out="03:59:59.993">
    <property name="length">03:59:60.027</property>
    <property name="eof">pause</property>
    <property name="resource">c:/Users/migue/Videos/T3.png</property>
    <property name="ttl">1</property>
    <property name="aspect_ratio">1</property>
    <property name="progressive">1</property>
    <property name="seekable">1</property>
    <property name="mlt_service">qimage</property>
    <property name="creation_time">2022-02-14T00:20:32</property>
    <property name="shotcut:hash">bc383d3fbd4e56412006f398de51a2b1</property>
    <property name="shotcut:caption">T3.png</property>
    <property name="xml">was here</property>
    <filter id="filter23" in="00:00:01.535" out="00:00:05.105">
      <property name="background">color:#00000000</property>
      <property name="mlt_service">affine</property>
      <property name="shotcut:filter">affineSizePosition</property>
      <property name="transition.fill">1</property>
      <property name="transition.distort">0</property>
      <property name="transition.rect">262.435 -10.5763 1399.94 735.94 1</property>
      <property name="transition.valign">middle</property>
      <property name="transition.halign">center</property>
      <property name="shotcut:animIn">00:00:00.000</property>
      <property name="shotcut:animOut">00:00:00.000</property>
      <property name="transition.threads">0</property>
      <property name="transition.fix_rotate_x">0</property>
    </filter>
    <filter id="filter24" in="00:00:01.535" out="00:00:05.105">
      <property name="argument"></property>
      <property name="geometry">-27 172 849 576 1</property>
      <property name="family">Sans</property>
      <property name="size">48</property>
      <property name="weight">400</property>
      <property name="style">normal</property>
      <property name="fgcolour">0x000000ff</property>
      <property name="bgcolour">#00000000</property>
      <property name="olcolour">0x00000000</property>
      <property name="pad">0</property>
      <property name="halign">left</property>
      <property name="valign">top</property>
      <property name="outline">0</property>
      <property name="pixel_ratio">1</property>
      <property name="mlt_service">qtext</property>
      <property name="shotcut:filter">richText</property>
      <property name="html">&lt;!DOCTYPE HTML PUBLIC &quot;-//W3C//DTD HTML 4.0//EN&quot; &quot;http://www.w3.org/TR/REC-html40/strict.dtd&quot;&gt;
&lt;html&gt;&lt;head&gt;&lt;meta name=&quot;qrichtext&quot; content=&quot;1&quot; /&gt;&lt;style type=&quot;text/css&quot;&gt;
p, li { white-space: pre-wrap; }
&lt;/style&gt;&lt;/head&gt;&lt;body style=&quot; font-family:'MS Shell Dlg 2'; font-size:8.25pt; font-weight:400; font-style:normal;&quot;&gt;
&lt;p align=&quot;center&quot; style=&quot; margin-top:0px; margin-bottom:0px; margin-left:0px; margin-right:0px; -qt-block-indent:0; text-indent:0px;&quot;&gt;&lt;span style=&quot; font-family:'Times New Roman'; font-size:70pt; font-weight:600; color:#efef00;&quot;&gt;Pela primeira vez&lt;/span&gt;&lt;/p&gt;
&lt;p align=&quot;center&quot; style=&quot; margin-top:0px; margin-bottom:0px; margin-left:0px; margin-right:0px; -qt-block-indent:0; text-indent:0px;&quot;&gt;&lt;span style=&quot; font-family:'Times New Roman'; font-size:70pt; font-weight:600; color:#efef00;&quot;&gt;como &lt;br /&gt;Primeiro Ministro&lt;/span&gt;&lt;/p&gt;
&lt;p align=&quot;center&quot; style=&quot;-qt-paragraph-type:empty; margin-top:0px; margin-bottom:0px; margin-left:0px; margin-right:0px; -qt-block-indent:0; text-indent:0px; font-family:'Times New Roman'; font-size:70pt; font-weight:600; color:#efef00;&quot;&gt;&lt;br /&gt;&lt;/p&gt;&lt;/body&gt;&lt;/html&gt;</property>
      <property name="shotcut:animIn">00:00:00.000</property>
      <property name="shotcut:animOut">00:00:00.000</property>
    </filter>
  </producer>
  <producer id="producer5" in="00:00:00.000" out="03:59:59.993">
    <property name="length">03:59:60.027</property>
    <property name="eof">pause</property>
    <property name="resource">c:/Users/migue/Videos/T3.png</property>
    <property name="ttl">1</property>
    <property name="aspect_ratio">1</property>
    <property name="progressive">1</property>
    <property name="seekable">1</property>
    <property name="mlt_service">qimage</property>
    <property name="creation_time">2022-02-14T00:20:32</property>
    <property name="shotcut:hash">bc383d3fbd4e56412006f398de51a2b1</property>
    <property name="shotcut:caption">T3.png</property>
    <property name="xml">was here</property>
    <filter id="filter25" in="00:00:05.138" out="00:00:06.540">
      <property name="background">color:#00000000</property>
      <property name="mlt_service">affine</property>
      <property name="shotcut:filter">affineSizePosition</property>
      <property name="transition.fill">1</property>
      <property name="transition.distort">0</property>
      <property name="transition.rect">262.435 -10.5763 1399.94 735.94 1</property>
      <property name="transition.valign">middle</property>
      <property name="transition.halign">center</property>
      <property name="shotcut:animIn">00:00:00.000</property>
      <property name="shotcut:animOut">00:00:00.000</property>
      <property name="transition.threads">0</property>
      <property name="transition.fix_rotate_x">0</property>
    </filter>
    <filter id="filter26" in="00:00:05.138" out="00:00:06.540">
      <property name="argument"></property>
      <property name="geometry">-27 172 849 576 1</property>
      <property name="family">Sans</property>
      <property name="size">48</property>
      <property name="weight">400</property>
      <property name="style">normal</property>
      <property name="fgcolour">0x000000ff</property>
      <property name="bgcolour">#00000000</property>
      <property name="olcolour">0x00000000</property>
      <property name="pad">0</property>
      <property name="halign">left</property>
      <property name="valign">top</property>
      <property name="outline">0</property>
      <property name="pixel_ratio">1</property>
      <property name="mlt_service">qtext</property>
      <property name="shotcut:filter">richText</property>
      <property name="html">&lt;!DOCTYPE HTML PUBLIC &quot;-//W3C//DTD HTML 4.0//EN&quot; &quot;http://www.w3.org/TR/REC-html40/strict.dtd&quot;&gt;
&lt;html&gt;&lt;head&gt;&lt;meta name=&quot;qrichtext&quot; content=&quot;1&quot; /&gt;&lt;style type=&quot;text/css&quot;&gt;
p, li { white-space: pre-wrap; }
&lt;/style&gt;&lt;/head&gt;&lt;body style=&quot; font-family:'MS Shell Dlg 2'; font-size:8.25pt; font-weight:400; font-style:normal;&quot;&gt;
&lt;p align=&quot;center&quot; style=&quot; margin-top:0px; margin-bottom:0px; margin-left:0px; margin-right:0px; -qt-block-indent:0; text-indent:0px;&quot;&gt;&lt;span style=&quot; font-family:'Times New Roman'; font-size:70pt; font-weight:600; color:#efef00;&quot;&gt;Neste momento difícil&lt;/span&gt;&lt;/p&gt;
&lt;p align=&quot;center&quot; style=&quot;-qt-paragraph-type:empty; margin-top:0px; margin-bottom:0px; margin-left:0px; margin-right:0px; -qt-block-indent:0; text-indent:0px; font-family:'Times New Roman'; font-size:70pt; font-weight:600; color:#efef00;&quot;&gt;&lt;br /&gt;&lt;/p&gt;&lt;/body&gt;&lt;/html&gt;</property>
      <property name="shotcut:animIn">00:00:00.000</property>
      <property name="shotcut:animOut">00:00:00.000</property>
    </filter>
  </producer>
  <producer id="producer6" in="00:00:00.000" out="03:59:59.993">
    <property name="length">03:59:60.027</property>
    <property name="eof">pause</property>
    <property name="resource">c:/Users/migue/Videos/T3.png</property>
    <property name="ttl">1</property>
    <property name="aspect_ratio">1</property>
    <property name="progressive">1</property>
    <property name="seekable">1</property>
    <property name="mlt_service">qimage</property>
    <property name="creation_time">2022-02-14T00:20:32</property>
    <property name="shotcut:hash">bc383d3fbd4e56412006f398de51a2b1</property>
    <property name="shotcut:caption">T3.png</property>
    <property name="xml">was here</property>
    <filter id="filter27" in="00:00:06.573" out="00:00:08.475">
      <property name="background">color:#00000000</property>
      <property name="mlt_service">affine</property>
      <property name="shotcut:filter">affineSizePosition</property>
      <property name="transition.fill">1</property>
      <property name="transition.distort">0</property>
      <property name="transition.rect">262.435 -10.5763 1399.94 735.94 1</property>
      <property name="transition.valign">middle</property>
      <property name="transition.halign">center</property>
      <property name="shotcut:animIn">00:00:00.000</property>
      <property name="shotcut:animOut">00:00:00.000</property>
      <property name="transition.threads">0</property>
      <property name="transition.fix_rotate_x">0</property>
    </filter>
    <filter id="filter28" in="00:00:06.573" out="00:00:08.475">
      <property name="argument"></property>
      <property name="geometry">-27 172 849 576 1</property>
      <property name="family">Sans</property>
      <property name="size">48</property>
      <property name="weight">400</property>
      <property name="style">normal</property>
      <property name="fgcolour">0x000000ff</property>
      <property name="bgcolour">#00000000</property>
      <property name="olcolour">0x00000000</property>
      <property name="pad">0</property>
      <property name="halign">left</property>
      <property name="valign">top</property>
      <property name="outline">0</property>
      <property name="pixel_ratio">1</property>
      <property name="mlt_service">qtext</property>
      <property name="shotcut:filter">richText</property>
      <property name="html">&lt;!DOCTYPE HTML PUBLIC &quot;-//W3C//DTD HTML 4.0//EN&quot; &quot;http://www.w3.org/TR/REC-html40/strict.dtd&quot;&gt;
&lt;html&gt;&lt;head&gt;&lt;meta name=&quot;qrichtext&quot; content=&quot;1&quot; /&gt;&lt;style type=&quot;text/css&quot;&gt;
p, li { white-space: pre-wrap; }
&lt;/style&gt;&lt;/head&gt;&lt;body style=&quot; font-family:'MS Shell Dlg 2'; font-size:8.25pt; font-weight:400; font-style:normal;&quot;&gt;
&lt;p align=&quot;center&quot; style=&quot; margin-top:0px; margin-bottom:0px; margin-left:0px; margin-right:0px; -qt-block-indent:0; text-indent:0px;&quot;&gt;&lt;span style=&quot; font-family:'Times New Roman'; font-size:70pt; font-weight:600; color:#efef00;&quot;&gt;para a vida &lt;br /&gt;de nosso país&lt;/span&gt;&lt;/p&gt;
&lt;p align=&quot;center&quot; style=&quot;-qt-paragraph-type:empty; margin-top:0px; margin-bottom:0px; margin-left:0px; margin-right:0px; -qt-block-indent:0; text-indent:0px; font-family:'Times New Roman'; font-size:70pt; font-weight:600; color:#efef00;&quot;&gt;&lt;br /&gt;&lt;/p&gt;&lt;/body&gt;&lt;/html&gt;</property>
      <property name="shotcut:animIn">00:00:00.000</property>
      <property name="shotcut:animOut">00:00:00.000</property>
    </filter>
  </producer>
  <producer id="producer7" in="00:00:00.000" out="03:59:59.993">
    <property name="length">03:59:60.027</property>
    <property name="eof">pause</property>
    <property name="resource">c:/Users/migue/Videos/T3.png</property>
    <property name="ttl">1</property>
    <property name="aspect_ratio">1</property>
    <property name="progressive">1</property>
    <property name="seekable">1</property>
    <property name="mlt_service">qimage</property>
    <property name="creation_time">2022-02-14T00:20:32</property>
    <property name="shotcut:hash">bc383d3fbd4e56412006f398de51a2b1</property>
    <property name="shotcut:caption">T3.png</property>
    <property name="xml">was here</property>
    <filter id="filter29" in="00:00:08.509" out="00:00:10.878">
      <property name="background">color:#00000000</property>
      <property name="mlt_service">affine</property>
      <property name="shotcut:filter">affineSizePosition</property>
      <property name="transition.fill">1</property>
      <property name="transition.distort">0</property>
      <property name="transition.rect">262.435 -10.5763 1399.94 735.94 1</property>
      <property name="transition.valign">middle</property>
      <property name="transition.halign">center</property>
      <property name="shotcut:animIn">00:00:00.000</property>
      <property name="shotcut:animOut">00:00:00.000</property>
      <property name="transition.threads">0</property>
      <property name="transition.fix_rotate_x">0</property>
    </filter>
    <filter id="filter30" in="00:00:08.509" out="00:00:10.878">
      <property name="argument"></property>
      <property name="geometry">-27 172 849 576 1</property>
      <property name="family">Sans</property>
      <property name="size">48</property>
      <property name="weight">400</property>
      <property name="style">normal</property>
      <property name="fgcolour">0x000000ff</property>
      <property name="bgcolour">#00000000</property>
      <property name="olcolour">0x00000000</property>
      <property name="pad">0</property>
      <property name="halign">left</property>
      <property name="valign">top</property>
      <property name="outline">0</property>
      <property name="pixel_ratio">1</property>
      <property name="mlt_service">qtext</property>
      <property name="shotcut:filter">richText</property>
      <property name="html">&lt;!DOCTYPE HTML PUBLIC &quot;-//W3C//DTD HTML 4.0//EN&quot; &quot;http://www.w3.org/TR/REC-html40/strict.dtd&quot;&gt;
&lt;html&gt;&lt;head&gt;&lt;meta name=&quot;qrichtext&quot; content=&quot;1&quot; /&gt;&lt;style type=&quot;text/css&quot;&gt;
p, li { white-space: pre-wrap; }
&lt;/style&gt;&lt;/head&gt;&lt;body style=&quot; font-family:'MS Shell Dlg 2'; font-size:8.25pt; font-weight:400; font-style:normal;&quot;&gt;
&lt;p align=&quot;center&quot; style=&quot; margin-top:0px; margin-bottom:0px; margin-left:0px; margin-right:0px; -qt-block-indent:0; text-indent:0px;&quot;&gt;&lt;span style=&quot; font-family:'Times New Roman'; font-size:70pt; font-weight:600; color:#efef00;&quot;&gt;Nosso império&lt;/span&gt;&lt;/p&gt;
&lt;p align=&quot;center&quot; style=&quot;-qt-paragraph-type:empty; margin-top:0px; margin-bottom:0px; margin-left:0px; margin-right:0px; -qt-block-indent:0; text-indent:0px; font-family:'Times New Roman'; font-size:70pt; font-weight:600; color:#efef00;&quot;&gt;&lt;br /&gt;&lt;/p&gt;&lt;/body&gt;&lt;/html&gt;</property>
      <property name="shotcut:animIn">00:00:00.000</property>
      <property name="shotcut:animOut">00:00:00.000</property>
    </filter>
  </producer>
  <producer id="producer8" in="00:00:00.000" out="03:59:59.993">
    <property name="length">03:59:60.027</property>
    <property name="eof">pause</property>
    <property name="resource">c:/Users/migue/Videos/T3.png</property>
    <property name="ttl">1</property>
    <property name="aspect_ratio">1</property>
    <property name="progressive">1</property>
    <property name="seekable">1</property>
    <property name="mlt_service">qimage</property>
    <property name="creation_time">2022-02-14T00:20:32</property>
    <property name="shotcut:hash">bc383d3fbd4e56412006f398de51a2b1</property>
    <property name="shotcut:caption">T3.png</property>
    <property name="xml">was here</property>
    <filter id="filter31" in="00:00:10.911" out="00:00:12.880">
      <property name="background">color:#00000000</property>
      <property name="mlt_service">affine</property>
      <property name="shotcut:filter">affineSizePosition</property>
      <property name="transition.fill">1</property>
      <property name="transition.distort">0</property>
      <property name="transition.rect">262.435 -10.5763 1399.94 735.94 1</property>
      <property name="transition.valign">middle</property>
      <property name="transition.halign">center</property>
      <property name="shotcut:animIn">00:00:00.000</property>
      <property name="shotcut:animOut">00:00:00.000</property>
      <property name="transition.threads">0</property>
      <property name="transition.fix_rotate_x">0</property>
    </filter>
    <filter id="filter32" in="00:00:10.911" out="00:00:12.880">
      <property name="argument"></property>
      <property name="geometry">-27 172 849 576 1</property>
      <property name="family">Sans</property>
      <property name="size">48</property>
      <property name="weight">400</property>
      <property name="style">normal</property>
      <property name="fgcolour">0x000000ff</property>
      <property name="bgcolour">#00000000</property>
      <property name="olcolour">0x00000000</property>
      <property name="pad">0</property>
      <property name="halign">left</property>
      <property name="valign">top</property>
      <property name="outline">0</property>
      <property name="pixel_ratio">1</property>
      <property name="mlt_service">qtext</property>
      <property name="shotcut:filter">richText</property>
      <property name="html">&lt;!DOCTYPE HTML PUBLIC &quot;-//W3C//DTD HTML 4.0//EN&quot; &quot;http://www.w3.org/TR/REC-html40/strict.dtd&quot;&gt;
&lt;html&gt;&lt;head&gt;&lt;meta name=&quot;qrichtext&quot; content=&quot;1&quot; /&gt;&lt;style type=&quot;text/css&quot;&gt;
p, li { white-space: pre-wrap; }
&lt;/style&gt;&lt;/head&gt;&lt;body style=&quot; font-family:'MS Shell Dlg 2'; font-size:8.25pt; font-weight:400; font-style:normal;&quot;&gt;
&lt;p align=&quot;center&quot; style=&quot; margin-top:0px; margin-bottom:0px; margin-left:0px; margin-right:0px; -qt-block-indent:0; text-indent:0px;&quot;&gt;&lt;span style=&quot; font-family:'Times New Roman'; font-size:70pt; font-weight:600; color:#efef00;&quot;&gt;Nossos aliados&lt;/span&gt;&lt;/p&gt;
&lt;p align=&quot;center&quot; style=&quot;-qt-paragraph-type:empty; margin-top:0px; margin-bottom:0px; margin-left:0px; margin-right:0px; -qt-block-indent:0; text-indent:0px; font-family:'Times New Roman'; font-size:70pt; font-weight:600; color:#efef00;&quot;&gt;&lt;br /&gt;&lt;/p&gt;&lt;/body&gt;&lt;/html&gt;</property>
      <property name="shotcut:animIn">00:00:00.000</property>
      <property name="shotcut:animOut">00:00:00.000</property>
    </filter>
  </producer>
  <producer id="producer9" in="00:00:00.000" out="03:59:59.993">
    <property name="length">03:59:60.027</property>
    <property name="eof">pause</property>
    <property name="resource">c:/Users/migue/Videos/T3.png</property>
    <property name="ttl">1</property>
    <property name="aspect_ratio">1</property>
    <property name="progressive">1</property>
    <property name="seekable">1</property>
    <property name="mlt_service">qimage</property>
    <property name="creation_time">2022-02-14T00:20:32</property>
    <property name="shotcut:hash">bc383d3fbd4e56412006f398de51a2b1</property>
    <property name="shotcut:caption">T3.png</property>
    <property name="xml">was here</property>
    <filter id="filter33" in="00:00:12.913" out="00:00:14.414">
      <property name="background">color:#00000000</property>
      <property name="mlt_service">affine</property>
      <property name="shotcut:filter">affineSizePosition</property>
      <property name="transition.fill">1</property>
      <property name="transition.distort">0</property>
      <property name="transition.rect">262.435 -10.5763 1399.94 735.94 1</property>
      <property name="transition.valign">middle</property>
      <property name="transition.halign">center</property>
      <property name="shotcut:animIn">00:00:00.000</property>
      <property name="shotcut:animOut">00:00:00.000</property>
      <property name="transition.threads">0</property>
      <property name="transition.fix_rotate_x">0</property>
    </filter>
    <filter id="filter34" in="00:00:12.913" out="00:00:14.414">
      <property name="argument"></property>
      <property name="geometry">-27 172 849 576 1</property>
      <property name="family">Sans</property>
      <property name="size">48</property>
      <property name="weight">400</property>
      <property name="style">normal</property>
      <property name="fgcolour">0x000000ff</property>
      <property name="bgcolour">#00000000</property>
      <property name="olcolour">0x00000000</property>
      <property name="pad">0</property>
      <property name="halign">left</property>
      <property name="valign">top</property>
      <property name="outline">0</property>
      <property name="pixel_ratio">1</property>
      <property name="mlt_service">qtext</property>
      <property name="shotcut:filter">richText</property>
      <property name="html">&lt;!DOCTYPE HTML PUBLIC &quot;-//W3C//DTD HTML 4.0//EN&quot; &quot;http://www.w3.org/TR/REC-html40/strict.dtd&quot;&gt;
&lt;html&gt;&lt;head&gt;&lt;meta name=&quot;qrichtext&quot; content=&quot;1&quot; /&gt;&lt;style type=&quot;text/css&quot;&gt;
p, li { white-space: pre-wrap; }
&lt;/style&gt;&lt;/head&gt;&lt;body style=&quot; font-family:'MS Shell Dlg 2'; font-size:8.25pt; font-weight:400; font-style:normal;&quot;&gt;
&lt;p align=&quot;center&quot; style=&quot; margin-top:0px; margin-bottom:0px; margin-left:0px; margin-right:0px; -qt-block-indent:0; text-indent:0px;&quot;&gt;&lt;span style=&quot; font-family:'Times New Roman'; font-size:70pt; font-weight:600; color:#efef00;&quot;&gt;E sobre tudo&lt;/span&gt;&lt;/p&gt;
&lt;p align=&quot;center&quot; style=&quot;-qt-paragraph-type:empty; margin-top:0px; margin-bottom:0px; margin-left:0px; margin-right:0px; -qt-block-indent:0; text-indent:0px; font-family:'Times New Roman'; font-size:70pt; font-weight:600; color:#efef00;&quot;&gt;&lt;br /&gt;&lt;/p&gt;&lt;/body&gt;&lt;/html&gt;</property>
      <property name="shotcut:animIn">00:00:00.000</property>
      <property name="shotcut:animOut">00:00:00.000</property>
    </filter>
  </producer>
  <producer id="producer10" in="00:00:00.000" out="03:59:59.993">
    <property name="length">03:59:60.027</property>
    <property name="eof">pause</property>
    <property name="resource">c:/Users/migue/Videos/T3.png</property>
    <property name="ttl">1</property>
    <property name="aspect_ratio">1</property>
    <property name="progressive">1</property>
    <property name="seekable">1</property>
    <property name="mlt_service">qimage</property>
    <property name="creation_time">2022-02-14T00:20:32</property>
    <property name="shotcut:hash">bc383d3fbd4e56412006f398de51a2b1</property>
    <property name="shotcut:caption">T3.png</property>
    <property name="xml">was here</property>
    <filter id="filter35" in="00:00:14.448" out="00:00:16.950">
      <property name="background">color:#00000000</property>
      <property name="mlt_service">affine</property>
      <property name="shotcut:filter">affineSizePosition</property>
      <property name="transition.fill">1</property>
      <property name="transition.distort">0</property>
      <property name="transition.rect">262.435 -10.5763 1399.94 735.94 1</property>
      <property name="transition.valign">middle</property>
      <property name="transition.halign">center</property>
      <property name="shotcut:animIn">00:00:00.000</property>
      <property name="shotcut:animOut">00:00:00.000</property>
      <property name="transition.threads">0</property>
      <property name="transition.fix_rotate_x">0</property>
    </filter>
    <filter id="filter36" in="00:00:14.448" out="00:00:16.950">
      <property name="argument"></property>
      <property name="geometry">-27 172 849 576 1</property>
      <property name="family">Sans</property>
      <property name="size">48</property>
      <property name="weight">400</property>
      <property name="style">normal</property>
      <property name="fgcolour">0x000000ff</property>
      <property name="bgcolour">#00000000</property>
      <property name="olcolour">0x00000000</property>
      <property name="pad">0</property>
      <property name="halign">left</property>
      <property name="valign">top</property>
      <property name="outline">0</property>
      <property name="pixel_ratio">1</property>
      <property name="mlt_service">qtext</property>
      <property name="shotcut:filter">richText</property>
      <property name="html">&lt;!DOCTYPE HTML PUBLIC &quot;-//W3C//DTD HTML 4.0//EN&quot; &quot;http://www.w3.org/TR/REC-html40/strict.dtd&quot;&gt;
&lt;html&gt;&lt;head&gt;&lt;meta name=&quot;qrichtext&quot; content=&quot;1&quot; /&gt;&lt;style type=&quot;text/css&quot;&gt;
p, li { white-space: pre-wrap; }
&lt;/style&gt;&lt;/head&gt;&lt;body style=&quot; font-family:'MS Shell Dlg 2'; font-size:8.25pt; font-weight:400; font-style:normal;&quot;&gt;
&lt;p align=&quot;center&quot; style=&quot; margin-top:0px; margin-bottom:0px; margin-left:0px; margin-right:0px; -qt-block-indent:0; text-indent:0px;&quot;&gt;&lt;span style=&quot; font-family:'Times New Roman'; font-size:70pt; font-weight:600; color:#efef00;&quot;&gt;E sobre tudo&lt;br /&gt;&lt;/span&gt;&lt;span style=&quot; font-family:'Times New Roman'; font-size:65pt; font-weight:600; color:#efef00;&quot;&gt;a causa da liberade&lt;/span&gt;&lt;/p&gt;
&lt;p align=&quot;center&quot; style=&quot;-qt-paragraph-type:empty; margin-top:0px; margin-bottom:0px; margin-left:0px; margin-right:0px; -qt-block-indent:0; text-indent:0px; font-family:'Times New Roman'; font-size:70pt; font-weight:600; color:#efef00;&quot;&gt;&lt;br /&gt;&lt;/p&gt;&lt;/body&gt;&lt;/html&gt;</property>
      <property name="shotcut:animIn">00:00:00.000</property>
      <property name="shotcut:animOut">00:00:00.000</property>
    </filter>
  </producer>
  <producer id="producer11" in="00:00:00.000" out="03:59:59.993">
    <property name="length">03:59:60.027</property>
    <property name="eof">pause</property>
    <property name="resource">c:/Users/migue/Videos/T3.png</property>
    <property name="ttl">1</property>
    <property name="aspect_ratio">1</property>
    <property name="progressive">1</property>
    <property name="seekable">1</property>
    <property name="mlt_service">qimage</property>
    <property name="creation_time">2022-02-14T00:20:32</property>
    <property name="shotcut:hash">bc383d3fbd4e56412006f398de51a2b1</property>
    <property name="shotcut:caption">T3.png</property>
    <property name="xml">was here</property>
    <filter id="filter37" in="00:00:16.984" out="00:00:18.819">
      <property name="background">color:#00000000</property>
      <property name="mlt_service">affine</property>
      <property name="shotcut:filter">affineSizePosition</property>
      <property name="transition.fill">1</property>
      <property name="transition.distort">0</property>
      <property name="transition.rect">262.435 -10.5763 1399.94 735.94 1</property>
      <property name="transition.valign">middle</property>
      <property name="transition.halign">center</property>
      <property name="shotcut:animIn">00:00:00.000</property>
      <property name="shotcut:animOut">00:00:00.000</property>
      <property name="transition.threads">0</property>
      <property name="transition.fix_rotate_x">0</property>
    </filter>
    <filter id="filter38" in="00:00:16.984" out="00:00:18.819">
      <property name="argument"></property>
      <property name="geometry">-27 172 849 576 1</property>
      <property name="family">Sans</property>
      <property name="size">48</property>
      <property name="weight">400</property>
      <property name="style">normal</property>
      <property name="fgcolour">0x000000ff</property>
      <property name="bgcolour">#00000000</property>
      <property name="olcolour">0x00000000</property>
      <property name="pad">0</property>
      <property name="halign">left</property>
      <property name="valign">top</property>
      <property name="outline">0</property>
      <property name="pixel_ratio">1</property>
      <property name="mlt_service">qtext</property>
      <property name="shotcut:filter">richText</property>
      <property name="html">&lt;!DOCTYPE HTML PUBLIC &quot;-//W3C//DTD HTML 4.0//EN&quot; &quot;http://www.w3.org/TR/REC-html40/strict.dtd&quot;&gt;
&lt;html&gt;&lt;head&gt;&lt;meta name=&quot;qrichtext&quot; content=&quot;1&quot; /&gt;&lt;style type=&quot;text/css&quot;&gt;
p, li { white-space: pre-wrap; }
&lt;/style&gt;&lt;/head&gt;&lt;body style=&quot; font-family:'MS Shell Dlg 2'; font-size:8.25pt; font-weight:400; font-style:normal;&quot;&gt;
&lt;p align=&quot;center&quot; style=&quot; margin-top:0px; margin-bottom:0px; margin-left:0px; margin-right:0px; -qt-block-indent:0; text-indent:0px;&quot;&gt;&lt;span style=&quot; font-family:'Times New Roman'; font-size:70pt; font-weight:600; color:#efef00;&quot;&gt;Não tenho &lt;/span&gt;&lt;/p&gt;
&lt;p align=&quot;center&quot; style=&quot; margin-top:0px; margin-bottom:0px; margin-left:0px; margin-right:0px; -qt-block-indent:0; text-indent:0px;&quot;&gt;&lt;span style=&quot; font-family:'Times New Roman'; font-size:70pt; font-weight:600; color:#efef00;&quot;&gt;nada a oferecer&lt;/span&gt;&lt;/p&gt;
&lt;p align=&quot;center&quot; style=&quot;-qt-paragraph-type:empty; margin-top:0px; margin-bottom:0px; margin-left:0px; margin-right:0px; -qt-block-indent:0; text-indent:0px; font-family:'Times New Roman'; font-size:70pt; font-weight:600; color:#efef00;&quot;&gt;&lt;br /&gt;&lt;/p&gt;&lt;/body&gt;&lt;/html&gt;</property>
      <property name="shotcut:animIn">00:00:00.000</property>
      <property name="shotcut:animOut">00:00:00.000</property>
    </filter>
  </producer>
  <producer id="producer12" in="00:00:00.000" out="03:59:59.993">
    <property name="length">03:59:60.027</property>
    <property name="eof">pause</property>
    <property name="resource">c:/Users/migue/Videos/T3.png</property>
    <property name="ttl">1</property>
    <property name="aspect_ratio">1</property>
    <property name="progressive">1</property>
    <property name="seekable">1</property>
    <property name="mlt_service">qimage</property>
    <property name="creation_time">2022-02-14T00:20:32</property>
    <property name="shotcut:hash">bc383d3fbd4e56412006f398de51a2b1</property>
    <property name="shotcut:caption">T3.png</property>
    <property name="xml">was here</property>
    <filter id="filter39" in="00:00:18.852" out="00:00:19.653">
      <property name="background">color:#00000000</property>
      <property name="mlt_service">affine</property>
      <property name="shotcut:filter">affineSizePosition</property>
      <property name="transition.fill">1</property>
      <property name="transition.distort">0</property>
      <property name="transition.rect">262.435 -10.5763 1399.94 735.94 1</property>
      <property name="transition.valign">middle</property>
      <property name="transition.halign">center</property>
      <property name="shotcut:animIn">00:00:00.000</property>
      <property name="shotcut:animOut">00:00:00.000</property>
      <property name="transition.threads">0</property>
      <property name="transition.fix_rotate_x">0</property>
    </filter>
    <filter id="filter40" in="00:00:18.852" out="00:00:19.653">
      <property name="argument"></property>
      <property name="geometry">-27 172 849 576 1</property>
      <property name="family">Sans</property>
      <property name="size">48</property>
      <property name="weight">400</property>
      <property name="style">normal</property>
      <property name="fgcolour">0x000000ff</property>
      <property name="bgcolour">#00000000</property>
      <property name="olcolour">0x00000000</property>
      <property name="pad">0</property>
      <property name="halign">left</property>
      <property name="valign">top</property>
      <property name="outline">0</property>
      <property name="pixel_ratio">1</property>
      <property name="mlt_service">qtext</property>
      <property name="shotcut:filter">richText</property>
      <property name="html">&lt;!DOCTYPE HTML PUBLIC &quot;-//W3C//DTD HTML 4.0//EN&quot; &quot;http://www.w3.org/TR/REC-html40/strict.dtd&quot;&gt;
&lt;html&gt;&lt;head&gt;&lt;meta name=&quot;qrichtext&quot; content=&quot;1&quot; /&gt;&lt;style type=&quot;text/css&quot;&gt;
p, li { white-space: pre-wrap; }
&lt;/style&gt;&lt;/head&gt;&lt;body style=&quot; font-family:'MS Shell Dlg 2'; font-size:8.25pt; font-weight:400; font-style:normal;&quot;&gt;
&lt;p align=&quot;center&quot; style=&quot; margin-top:0px; margin-bottom:0px; margin-left:0px; margin-right:0px; -qt-block-indent:0; text-indent:0px;&quot;&gt;&lt;span style=&quot; font-family:'Times New Roman'; font-size:62pt; font-weight:600; color:#efef00;&quot;&gt;Além de&lt;/span&gt;&lt;/p&gt;
&lt;p align=&quot;center&quot; style=&quot; margin-top:0px; margin-bottom:0px; margin-left:0px; margin-right:0px; -qt-block-indent:0; text-indent:0px;&quot;&gt;&lt;span style=&quot; font-family:'Times New Roman'; font-size:62pt; font-weight:600; color:#efef00;&quot;&gt;Sangue&lt;/span&gt;&lt;/p&gt;
&lt;p align=&quot;center&quot; style=&quot;-qt-paragraph-type:empty; margin-top:0px; margin-bottom:0px; margin-left:0px; margin-right:0px; -qt-block-indent:0; text-indent:0px; font-family:'Times New Roman'; font-size:70pt; font-weight:600; color:#efef00;&quot;&gt;&lt;br /&gt;&lt;/p&gt;&lt;/body&gt;&lt;/html&gt;</property>
      <property name="shotcut:animIn">00:00:00.000</property>
      <property name="shotcut:animOut">00:00:00.000</property>
    </filter>
  </producer>
  <producer id="producer13" in="00:00:00.000" out="03:59:59.993">
    <property name="length">03:59:60.027</property>
    <property name="eof">pause</property>
    <property name="resource">c:/Users/migue/Videos/T3.png</property>
    <property name="ttl">1</property>
    <property name="aspect_ratio">1</property>
    <property name="progressive">1</property>
    <property name="seekable">1</property>
    <property name="mlt_service">qimage</property>
    <property name="creation_time">2022-02-14T00:20:32</property>
    <property name="shotcut:hash">bc383d3fbd4e56412006f398de51a2b1</property>
    <property name="shotcut:caption">T3.png</property>
    <property name="xml">was here</property>
    <filter id="filter41" in="00:00:19.686" out="00:00:20.721">
      <property name="background">color:#00000000</property>
      <property name="mlt_service">affine</property>
      <property name="shotcut:filter">affineSizePosition</property>
      <property name="transition.fill">1</property>
      <property name="transition.distort">0</property>
      <property name="transition.rect">262.435 -10.5763 1399.94 735.94 1</property>
      <property name="transition.valign">middle</property>
      <property name="transition.halign">center</property>
      <property name="shotcut:animIn">00:00:00.000</property>
      <property name="shotcut:animOut">00:00:00.000</property>
      <property name="transition.threads">0</property>
      <property name="transition.fix_rotate_x">0</property>
    </filter>
    <filter id="filter42" in="00:00:19.686" out="00:00:20.721">
      <property name="argument"></property>
      <property name="geometry">-27 172 849 576 1</property>
      <property name="family">Sans</property>
      <property name="size">48</property>
      <property name="weight">400</property>
      <property name="style">normal</property>
      <property name="fgcolour">0x000000ff</property>
      <property name="bgcolour">#00000000</property>
      <property name="olcolour">0x00000000</property>
      <property name="pad">0</property>
      <property name="halign">left</property>
      <property name="valign">top</property>
      <property name="outline">0</property>
      <property name="pixel_ratio">1</property>
      <property name="mlt_service">qtext</property>
      <property name="shotcut:filter">richText</property>
      <property name="html">&lt;!DOCTYPE HTML PUBLIC &quot;-//W3C//DTD HTML 4.0//EN&quot; &quot;http://www.w3.org/TR/REC-html40/strict.dtd&quot;&gt;
&lt;html&gt;&lt;head&gt;&lt;meta name=&quot;qrichtext&quot; content=&quot;1&quot; /&gt;&lt;style type=&quot;text/css&quot;&gt;
p, li { white-space: pre-wrap; }
&lt;/style&gt;&lt;/head&gt;&lt;body style=&quot; font-family:'MS Shell Dlg 2'; font-size:8.25pt; font-weight:400; font-style:normal;&quot;&gt;
&lt;p align=&quot;center&quot; style=&quot; margin-top:0px; margin-bottom:0px; margin-left:0px; margin-right:0px; -qt-block-indent:0; text-indent:0px;&quot;&gt;&lt;span style=&quot; font-family:'Times New Roman'; font-size:62pt; font-weight:600; color:#efef00;&quot;&gt;Além de&lt;/span&gt;&lt;/p&gt;
&lt;p align=&quot;center&quot; style=&quot; margin-top:0px; margin-bottom:0px; margin-left:0px; margin-right:0px; -qt-block-indent:0; text-indent:0px;&quot;&gt;&lt;span style=&quot; font-family:'Times New Roman'; font-size:62pt; font-weight:600; color:#efef00;&quot;&gt;Sangue,&lt;/span&gt;&lt;/p&gt;
&lt;p align=&quot;center&quot; style=&quot; margin-top:0px; margin-bottom:0px; margin-left:0px; margin-right:0px; -qt-block-indent:0; text-indent:0px;&quot;&gt;&lt;span style=&quot; font-family:'Times New Roman'; font-size:62pt; font-weight:600; color:#efef00;&quot;&gt;Trabalho,&lt;/span&gt;&lt;/p&gt;
&lt;p align=&quot;center&quot; style=&quot;-qt-paragraph-type:empty; margin-top:0px; margin-bottom:0px; margin-left:0px; margin-right:0px; -qt-block-indent:0; text-indent:0px; font-family:'Times New Roman'; font-size:70pt; font-weight:600; color:#efef00;&quot;&gt;&lt;br /&gt;&lt;/p&gt;&lt;/body&gt;&lt;/html&gt;</property>
      <property name="shotcut:animIn">00:00:00.000</property>
      <property name="shotcut:animOut">00:00:00.000</property>
    </filter>
  </producer>
  <producer id="producer14" in="00:00:00.000" out="03:59:59.993">
    <property name="length">03:59:60.027</property>
    <property name="eof">pause</property>
    <property name="resource">c:/Users/migue/Videos/T3.png</property>
    <property name="ttl">1</property>
    <property name="aspect_ratio">1</property>
    <property name="progressive">1</property>
    <property name="seekable">1</property>
    <property name="mlt_service">qimage</property>
    <property name="creation_time">2022-02-14T00:20:32</property>
    <property name="shotcut:hash">bc383d3fbd4e56412006f398de51a2b1</property>
    <property name="shotcut:caption">T3.png</property>
    <property name="xml">was here</property>
    <filter id="filter43" in="00:00:20.754" out="00:00:21.822">
      <property name="background">color:#00000000</property>
      <property name="mlt_service">affine</property>
      <property name="shotcut:filter">affineSizePosition</property>
      <property name="transition.fill">1</property>
      <property name="transition.distort">0</property>
      <property name="transition.rect">262.435 -10.5763 1399.94 735.94 1</property>
      <property name="transition.valign">middle</property>
      <property name="transition.halign">center</property>
      <property name="shotcut:animIn">00:00:00.000</property>
      <property name="shotcut:animOut">00:00:00.000</property>
      <property name="transition.threads">0</property>
      <property name="transition.fix_rotate_x">0</property>
    </filter>
    <filter id="filter44" in="00:00:20.754" out="00:00:21.822">
      <property name="argument"></property>
      <property name="geometry">-27 172 849 576 1</property>
      <property name="family">Sans</property>
      <property name="size">48</property>
      <property name="weight">400</property>
      <property name="style">normal</property>
      <property name="fgcolour">0x000000ff</property>
      <property name="bgcolour">#00000000</property>
      <property name="olcolour">0x00000000</property>
      <property name="pad">0</property>
      <property name="halign">left</property>
      <property name="valign">top</property>
      <property name="outline">0</property>
      <property name="pixel_ratio">1</property>
      <property name="mlt_service">qtext</property>
      <property name="shotcut:filter">richText</property>
      <property name="html">&lt;!DOCTYPE HTML PUBLIC &quot;-//W3C//DTD HTML 4.0//EN&quot; &quot;http://www.w3.org/TR/REC-html40/strict.dtd&quot;&gt;
&lt;html&gt;&lt;head&gt;&lt;meta name=&quot;qrichtext&quot; content=&quot;1&quot; /&gt;&lt;style type=&quot;text/css&quot;&gt;
p, li { white-space: pre-wrap; }
&lt;/style&gt;&lt;/head&gt;&lt;body style=&quot; font-family:'MS Shell Dlg 2'; font-size:8.25pt; font-weight:400; font-style:normal;&quot;&gt;
&lt;p align=&quot;center&quot; style=&quot; margin-top:0px; margin-bottom:0px; margin-left:0px; margin-right:0px; -qt-block-indent:0; text-indent:0px;&quot;&gt;&lt;span style=&quot; font-family:'Times New Roman'; font-size:62pt; font-weight:600; color:#efef00;&quot;&gt;Além de&lt;/span&gt;&lt;/p&gt;
&lt;p align=&quot;center&quot; style=&quot; margin-top:0px; margin-bottom:0px; margin-left:0px; margin-right:0px; -qt-block-indent:0; text-indent:0px;&quot;&gt;&lt;span style=&quot; font-family:'Times New Roman'; font-size:62pt; font-weight:600; color:#efef00;&quot;&gt;Sangue,&lt;/span&gt;&lt;/p&gt;
&lt;p align=&quot;center&quot; style=&quot; margin-top:0px; margin-bottom:0px; margin-left:0px; margin-right:0px; -qt-block-indent:0; text-indent:0px;&quot;&gt;&lt;span style=&quot; font-family:'Times New Roman'; font-size:62pt; font-weight:600; color:#efef00;&quot;&gt;Trabalho,&lt;/span&gt;&lt;/p&gt;
&lt;p align=&quot;center&quot; style=&quot; margin-top:0px; margin-bottom:0px; margin-left:0px; margin-right:0px; -qt-block-indent:0; text-indent:0px;&quot;&gt;&lt;span style=&quot; font-family:'Times New Roman'; font-size:62pt; font-weight:600; color:#efef00;&quot;&gt;Lágrimas,&lt;/span&gt;&lt;/p&gt;
&lt;p align=&quot;center&quot; style=&quot;-qt-paragraph-type:empty; margin-top:0px; margin-bottom:0px; margin-left:0px; margin-right:0px; -qt-block-indent:0; text-indent:0px; font-family:'Times New Roman'; font-size:70pt; font-weight:600; color:#efef00;&quot;&gt;&lt;br /&gt;&lt;/p&gt;&lt;/body&gt;&lt;/html&gt;</property>
      <property name="shotcut:animIn">00:00:00.000</property>
      <property name="shotcut:animOut">00:00:00.000</property>
    </filter>
  </producer>
  <producer id="producer15" in="00:00:00.000" out="03:59:59.993">
    <property name="length">03:59:60.027</property>
    <property name="eof">pause</property>
    <property name="resource">c:/Users/migue/Videos/T3.png</property>
    <property name="ttl">1</property>
    <property name="aspect_ratio">1</property>
    <property name="progressive">1</property>
    <property name="seekable">1</property>
    <property name="mlt_service">qimage</property>
    <property name="creation_time">2022-02-14T00:20:32</property>
    <property name="shotcut:hash">bc383d3fbd4e56412006f398de51a2b1</property>
    <property name="shotcut:caption">T3.png</property>
    <property name="xml">was here</property>
    <filter id="filter45" in="00:00:21.855" out="00:00:24.424">
      <property name="background">color:#00000000</property>
      <property name="mlt_service">affine</property>
      <property name="shotcut:filter">affineSizePosition</property>
      <property name="transition.fill">1</property>
      <property name="transition.distort">0</property>
      <property name="transition.rect">262.435 -10.5763 1399.94 735.94 1</property>
      <property name="transition.valign">middle</property>
      <property name="transition.halign">center</property>
      <property name="shotcut:animIn">00:00:00.000</property>
      <property name="shotcut:animOut">00:00:00.000</property>
      <property name="transition.threads">0</property>
      <property name="transition.fix_rotate_x">0</property>
    </filter>
    <filter id="filter46" in="00:00:21.855" out="00:00:24.424">
      <property name="argument"></property>
      <property name="geometry">-27 172 849 576 1</property>
      <property name="family">Sans</property>
      <property name="size">48</property>
      <property name="weight">400</property>
      <property name="style">normal</property>
      <property name="fgcolour">0x000000ff</property>
      <property name="bgcolour">#00000000</property>
      <property name="olcolour">0x00000000</property>
      <property name="pad">0</property>
      <property name="halign">left</property>
      <property name="valign">top</property>
      <property name="outline">0</property>
      <property name="pixel_ratio">1</property>
      <property name="mlt_service">qtext</property>
      <property name="shotcut:filter">richText</property>
      <property name="html">&lt;!DOCTYPE HTML PUBLIC &quot;-//W3C//DTD HTML 4.0//EN&quot; &quot;http://www.w3.org/TR/REC-html40/strict.dtd&quot;&gt;
&lt;html&gt;&lt;head&gt;&lt;meta name=&quot;qrichtext&quot; content=&quot;1&quot; /&gt;&lt;style type=&quot;text/css&quot;&gt;
p, li { white-space: pre-wrap; }
&lt;/style&gt;&lt;/head&gt;&lt;body style=&quot; font-family:'MS Shell Dlg 2'; font-size:8.25pt; font-weight:400; font-style:normal;&quot;&gt;
&lt;p align=&quot;center&quot; style=&quot; margin-top:0px; margin-bottom:0px; margin-left:0px; margin-right:0px; -qt-block-indent:0; text-indent:0px;&quot;&gt;&lt;span style=&quot; font-family:'Times New Roman'; font-size:62pt; font-weight:600; color:#efef00;&quot;&gt;Além de&lt;/span&gt;&lt;/p&gt;
&lt;p align=&quot;center&quot; style=&quot; margin-top:0px; margin-bottom:0px; margin-left:0px; margin-right:0px; -qt-block-indent:0; text-indent:0px;&quot;&gt;&lt;span style=&quot; font-family:'Times New Roman'; font-size:62pt; font-weight:600; color:#efef00;&quot;&gt;Sangue,&lt;/span&gt;&lt;/p&gt;
&lt;p align=&quot;center&quot; style=&quot; margin-top:0px; margin-bottom:0px; margin-left:0px; margin-right:0px; -qt-block-indent:0; text-indent:0px;&quot;&gt;&lt;span style=&quot; font-family:'Times New Roman'; font-size:62pt; font-weight:600; color:#efef00;&quot;&gt;Trabalho,&lt;/span&gt;&lt;/p&gt;
&lt;p align=&quot;center&quot; style=&quot; margin-top:0px; margin-bottom:0px; margin-left:0px; margin-right:0px; -qt-block-indent:0; text-indent:0px;&quot;&gt;&lt;span style=&quot; font-family:'Times New Roman'; font-size:62pt; font-weight:600; color:#efef00;&quot;&gt;Lágrimas,&lt;/span&gt;&lt;/p&gt;
&lt;p align=&quot;center&quot; style=&quot; margin-top:0px; margin-bottom:0px; margin-left:0px; margin-right:0px; -qt-block-indent:0; text-indent:0px;&quot;&gt;&lt;span style=&quot; font-family:'Times New Roman'; font-size:62pt; font-weight:600; color:#efef00;&quot;&gt;e Suor&lt;/span&gt;&lt;/p&gt;
&lt;p align=&quot;center&quot; style=&quot;-qt-paragraph-type:empty; margin-top:0px; margin-bottom:0px; margin-left:0px; margin-right:0px; -qt-block-indent:0; text-indent:0px; font-family:'Times New Roman'; font-size:70pt; font-weight:600; color:#efef00;&quot;&gt;&lt;br /&gt;&lt;/p&gt;&lt;/body&gt;&lt;/html&gt;</property>
      <property name="shotcut:animIn">00:00:00.000</property>
      <property name="shotcut:animOut">00:00:00.000</property>
    </filter>
  </producer>
  <producer id="producer16" in="00:00:00.000" out="03:59:59.993">
    <property name="length">03:59:60.027</property>
    <property name="eof">pause</property>
    <property name="resource">c:/Users/migue/Videos/T3.png</property>
    <property name="ttl">1</property>
    <property name="aspect_ratio">1</property>
    <property name="progressive">1</property>
    <property name="seekable">1</property>
    <property name="mlt_service">qimage</property>
    <property name="creation_time">2022-02-14T00:20:32</property>
    <property name="shotcut:hash">bc383d3fbd4e56412006f398de51a2b1</property>
    <property name="shotcut:caption">T3.png</property>
    <property name="xml">was here</property>
    <filter id="filter47" in="00:00:24.458" out="00:00:24.525">
      <property name="background">color:#00000000</property>
      <property name="mlt_service">affine</property>
      <property name="shotcut:filter">affineSizePosition</property>
      <property name="transition.fill">1</property>
      <property name="transition.distort">0</property>
      <property name="transition.rect">262.435 -10.5763 1399.94 735.94 1</property>
      <property name="transition.valign">middle</property>
      <property name="transition.halign">center</property>
      <property name="shotcut:animIn">00:00:00.000</property>
      <property name="shotcut:animOut">00:00:00.000</property>
      <property name="transition.threads">0</property>
      <property name="transition.fix_rotate_x">0</property>
    </filter>
    <filter id="filter48" in="00:00:24.458" out="00:00:24.525">
      <property name="argument"></property>
      <property name="geometry">-27 172 849 576 1</property>
      <property name="family">Sans</property>
      <property name="size">48</property>
      <property name="weight">400</property>
      <property name="style">normal</property>
      <property name="fgcolour">0x000000ff</property>
      <property name="bgcolour">#00000000</property>
      <property name="olcolour">0x00000000</property>
      <property name="pad">0</property>
      <property name="halign">left</property>
      <property name="valign">top</property>
      <property name="outline">0</property>
      <property name="pixel_ratio">1</property>
      <property name="mlt_service">qtext</property>
      <property name="shotcut:filter">richText</property>
      <property name="html">&lt;!DOCTYPE HTML PUBLIC &quot;-//W3C//DTD HTML 4.0//EN&quot; &quot;http://www.w3.org/TR/REC-html40/strict.dtd&quot;&gt;
&lt;html&gt;&lt;head&gt;&lt;meta name=&quot;qrichtext&quot; content=&quot;1&quot; /&gt;&lt;style type=&quot;text/css&quot;&gt;
p, li { white-space: pre-wrap; }
&lt;/style&gt;&lt;/head&gt;&lt;body style=&quot; font-family:'MS Shell Dlg 2'; font-size:8.25pt; font-weight:400; font-style:normal;&quot;&gt;
&lt;p align=&quot;center&quot; style=&quot; margin-top:0px; margin-bottom:0px; margin-left:0px; margin-right:0px; -qt-block-indent:0; text-indent:0px;&quot;&gt;&lt;span style=&quot; font-family:'Times New Roman'; font-size:70pt; font-weight:600; color:#efef00;&quot;&gt;Temos um provação da mais dolorosa&lt;/span&gt;&lt;/p&gt;
&lt;p align=&quot;center&quot; style=&quot;-qt-paragraph-type:empty; margin-top:0px; margin-bottom:0px; margin-left:0px; margin-right:0px; -qt-block-indent:0; text-indent:0px; font-family:'Times New Roman'; font-size:70pt; font-weight:600; color:#efef00;&quot;&gt;&lt;br /&gt;&lt;/p&gt;&lt;/body&gt;&lt;/html&gt;</property>
      <property name="shotcut:animIn">00:00:00.000</property>
      <property name="shotcut:animOut">00:00:00.000</property>
    </filter>
  </producer>
  <producer id="producer17" in="00:00:00.000" out="03:59:59.993">
    <property name="length">03:59:60.027</property>
    <property name="eof">pause</property>
    <property name="resource">c:/Users/migue/Videos/T3.png</property>
    <property name="ttl">1</property>
    <property name="aspect_ratio">1</property>
    <property name="progressive">1</property>
    <property name="seekable">1</property>
    <property name="mlt_service">qimage</property>
    <property name="creation_time">2022-02-14T00:20:32</property>
    <property name="shotcut:hash">bc383d3fbd4e56412006f398de51a2b1</property>
    <property name="shotcut:caption">T3.png</property>
    <property name="xml">was here</property>
    <filter id="filter49" in="00:00:24.558" out="00:00:29.029">
      <property name="background">color:#00000000</property>
      <property name="mlt_service">affine</property>
      <property name="shotcut:filter">affineSizePosition</property>
      <property name="transition.fill">1</property>
      <property name="transition.distort">0</property>
      <property name="transition.rect">262.435 -10.5763 1399.94 735.94 1</property>
      <property name="transition.valign">middle</property>
      <property name="transition.halign">center</property>
      <property name="shotcut:animIn">00:00:00.000</property>
      <property name="shotcut:animOut">00:00:00.000</property>
      <property name="transition.threads">0</property>
      <property name="transition.fix_rotate_x">0</property>
    </filter>
    <filter id="filter50" in="00:00:24.558" out="00:00:29.029">
      <property name="argument"></property>
      <property name="geometry">-27 172 849 576 1</property>
      <property name="family">Sans</property>
      <property name="size">48</property>
      <property name="weight">400</property>
      <property name="style">normal</property>
      <property name="fgcolour">0x000000ff</property>
      <property name="bgcolour">#00000000</property>
      <property name="olcolour">0x00000000</property>
      <property name="pad">0</property>
      <property name="halign">left</property>
      <property name="valign">top</property>
      <property name="outline">0</property>
      <property name="pixel_ratio">1</property>
      <property name="mlt_service">qtext</property>
      <property name="shotcut:filter">richText</property>
      <property name="html">&lt;!DOCTYPE HTML PUBLIC &quot;-//W3C//DTD HTML 4.0//EN&quot; &quot;http://www.w3.org/TR/REC-html40/strict.dtd&quot;&gt;
&lt;html&gt;&lt;head&gt;&lt;meta name=&quot;qrichtext&quot; content=&quot;1&quot; /&gt;&lt;style type=&quot;text/css&quot;&gt;
p, li { white-space: pre-wrap; }
&lt;/style&gt;&lt;/head&gt;&lt;body style=&quot; font-family:'MS Shell Dlg 2'; font-size:8.25pt; font-weight:400; font-style:normal;&quot;&gt;
&lt;p align=&quot;center&quot; style=&quot; margin-top:0px; margin-bottom:0px; margin-left:0px; margin-right:0px; -qt-block-indent:0; text-indent:0px;&quot;&gt;&lt;span style=&quot; font-family:'Times New Roman'; font-size:70pt; font-weight:600; color:#efef00;&quot;&gt;Temos um provação da mais dolorosa&lt;/span&gt;&lt;/p&gt;
&lt;p align=&quot;center&quot; style=&quot;-qt-paragraph-type:empty; margin-top:0px; margin-bottom:0px; margin-left:0px; margin-right:0px; -qt-block-indent:0; text-indent:0px; font-family:'Times New Roman'; font-size:70pt; font-weight:600; color:#efef00;&quot;&gt;&lt;br /&gt;&lt;/p&gt;&lt;/body&gt;&lt;/html&gt;</property>
      <property name="shotcut:animIn">00:00:00.000</property>
      <property name="shotcut:animOut">00:00:00.000</property>
    </filter>
  </producer>
  <producer id="producer18" in="00:00:00.000" out="03:59:59.993">
    <property name="length">03:59:60.027</property>
    <property name="eof">pause</property>
    <property name="resource">c:/Users/migue/Videos/T3.png</property>
    <property name="ttl">1</property>
    <property name="aspect_ratio">1</property>
    <property name="progressive">1</property>
    <property name="seekable">1</property>
    <property name="mlt_service">qimage</property>
    <property name="creation_time">2022-02-14T00:20:32</property>
    <property name="shotcut:hash">bc383d3fbd4e56412006f398de51a2b1</property>
    <property name="shotcut:caption">T3.png</property>
    <property name="xml">was here</property>
    <filter id="filter51" in="00:00:29.062" out="00:00:34.468">
      <property name="background">color:#00000000</property>
      <property name="mlt_service">affine</property>
      <property name="shotcut:filter">affineSizePosition</property>
      <property name="transition.fill">1</property>
      <property name="transition.distort">0</property>
      <property name="transition.rect">262.435 -10.5763 1399.94 735.94 1</property>
      <property name="transition.valign">middle</property>
      <property name="transition.halign">center</property>
      <property name="shotcut:animIn">00:00:00.000</property>
      <property name="shotcut:animOut">00:00:00.000</property>
      <property name="transition.threads">0</property>
      <property name="transition.fix_rotate_x">0</property>
    </filter>
    <filter id="filter52" in="00:00:29.062" out="00:00:34.468">
      <property name="argument"></property>
      <property name="geometry">-27 172 849 576 1</property>
      <property name="family">Sans</property>
      <property name="size">48</property>
      <property name="weight">400</property>
      <property name="style">normal</property>
      <property name="fgcolour">0x000000ff</property>
      <property name="bgcolour">#00000000</property>
      <property name="olcolour">0x00000000</property>
      <property name="pad">0</property>
      <property name="halign">left</property>
      <property name="valign">top</property>
      <property name="outline">0</property>
      <property name="pixel_ratio">1</property>
      <property name="mlt_service">qtext</property>
      <property name="shotcut:filter">richText</property>
      <property name="html">&lt;!DOCTYPE HTML PUBLIC &quot;-//W3C//DTD HTML 4.0//EN&quot; &quot;http://www.w3.org/TR/REC-html40/strict.dtd&quot;&gt;
&lt;html&gt;&lt;head&gt;&lt;meta name=&quot;qrichtext&quot; content=&quot;1&quot; /&gt;&lt;style type=&quot;text/css&quot;&gt;
p, li { white-space: pre-wrap; }
&lt;/style&gt;&lt;/head&gt;&lt;body style=&quot; font-family:'MS Shell Dlg 2'; font-size:8.25pt; font-weight:400; font-style:normal;&quot;&gt;
&lt;p align=&quot;center&quot; style=&quot; margin-top:0px; margin-bottom:0px; margin-left:0px; margin-right:0px; -qt-block-indent:0; text-indent:0px;&quot;&gt;&lt;span style=&quot; font-family:'Times New Roman'; font-size:60pt; font-weight:600; color:#efef00;&quot;&gt;Temos muitos e muitos longos meses de luta e sofrimento&lt;/span&gt;&lt;/p&gt;
&lt;p align=&quot;center&quot; style=&quot;-qt-paragraph-type:empty; margin-top:0px; margin-bottom:0px; margin-left:0px; margin-right:0px; -qt-block-indent:0; text-indent:0px; font-family:'Times New Roman'; font-size:60pt; font-weight:600; color:#efef00;&quot;&gt;&lt;br /&gt;&lt;/p&gt;&lt;/body&gt;&lt;/html&gt;</property>
      <property name="shotcut:animIn">00:00:00.000</property>
      <property name="shotcut:animOut">00:00:00.000</property>
    </filter>
  </producer>
  <producer id="producer19" in="00:00:00.000" out="03:59:59.993">
    <property name="length">03:59:60.027</property>
    <property name="eof">pause</property>
    <property name="resource">c:/Users/migue/Videos/T3.png</property>
    <property name="ttl">1</property>
    <property name="aspect_ratio">1</property>
    <property name="progressive">1</property>
    <property name="seekable">1</property>
    <property name="mlt_service">qimage</property>
    <property name="creation_time">2022-02-14T00:20:32</property>
    <property name="shotcut:hash">bc383d3fbd4e56412006f398de51a2b1</property>
    <property name="shotcut:caption">T3.png</property>
    <property name="xml">was here</property>
    <filter id="filter53" in="00:00:34.501" out="00:00:37.104">
      <property name="background">color:#00000000</property>
      <property name="mlt_service">affine</property>
      <property name="shotcut:filter">affineSizePosition</property>
      <property name="transition.fill">1</property>
      <property name="transition.distort">0</property>
      <property name="transition.rect">262.435 -10.5763 1399.94 735.94 1</property>
      <property name="transition.valign">middle</property>
      <property name="transition.halign">center</property>
      <property name="shotcut:animIn">00:00:00.000</property>
      <property name="shotcut:animOut">00:00:00.000</property>
      <property name="transition.threads">0</property>
      <property name="transition.fix_rotate_x">0</property>
    </filter>
    <filter id="filter54" in="00:00:34.501" out="00:00:37.104">
      <property name="argument"></property>
      <property name="geometry">-27 172 849 576 1</property>
      <property name="family">Sans</property>
      <property name="size">48</property>
      <property name="weight">400</property>
      <property name="style">normal</property>
      <property name="fgcolour">0x000000ff</property>
      <property name="bgcolour">#00000000</property>
      <property name="olcolour">0x00000000</property>
      <property name="pad">0</property>
      <property name="halign">left</property>
      <property name="valign">top</property>
      <property name="outline">0</property>
      <property name="pixel_ratio">1</property>
      <property name="mlt_service">qtext</property>
      <property name="shotcut:filter">richText</property>
      <property name="html">&lt;!DOCTYPE HTML PUBLIC &quot;-//W3C//DTD HTML 4.0//EN&quot; &quot;http://www.w3.org/TR/REC-html40/strict.dtd&quot;&gt;
&lt;html&gt;&lt;head&gt;&lt;meta name=&quot;qrichtext&quot; content=&quot;1&quot; /&gt;&lt;style type=&quot;text/css&quot;&gt;
p, li { white-space: pre-wrap; }
&lt;/style&gt;&lt;/head&gt;&lt;body style=&quot; font-family:'MS Shell Dlg 2'; font-size:8.25pt; font-weight:400; font-style:normal;&quot;&gt;
&lt;p align=&quot;center&quot; style=&quot; margin-top:0px; margin-bottom:0px; margin-left:0px; margin-right:0px; -qt-block-indent:0; text-indent:0px;&quot;&gt;&lt;span style=&quot; font-family:'Times New Roman'; font-size:60pt; font-weight:600; color:#efef00;&quot;&gt;você pergunta, qual é sua política?&lt;/span&gt;&lt;/p&gt;
&lt;p align=&quot;center&quot; style=&quot;-qt-paragraph-type:empty; margin-top:0px; margin-bottom:0px; margin-left:0px; margin-right:0px; -qt-block-indent:0; text-indent:0px; font-family:'Times New Roman'; font-size:60pt; font-weight:600; color:#efef00;&quot;&gt;&lt;br /&gt;&lt;/p&gt;&lt;/body&gt;&lt;/html&gt;</property>
      <property name="shotcut:animIn">00:00:00.000</property>
      <property name="shotcut:animOut">00:00:00.000</property>
    </filter>
  </producer>
  <producer id="producer20" in="00:00:00.000" out="03:59:59.993">
    <property name="length">03:59:60.027</property>
    <property name="eof">pause</property>
    <property name="resource">c:/Users/migue/Videos/T3.png</property>
    <property name="ttl">1</property>
    <property name="aspect_ratio">1</property>
    <property name="progressive">1</property>
    <property name="seekable">1</property>
    <property name="mlt_service">qimage</property>
    <property name="creation_time">2022-02-14T00:20:32</property>
    <property name="shotcut:hash">bc383d3fbd4e56412006f398de51a2b1</property>
    <property name="shotcut:caption">T3.png</property>
    <property name="xml">was here</property>
    <filter id="filter55" in="00:00:37.137" out="00:00:41.708">
      <property name="background">color:#00000000</property>
      <property name="mlt_service">affine</property>
      <property name="shotcut:filter">affineSizePosition</property>
      <property name="transition.fill">1</property>
      <property name="transition.distort">0</property>
      <property name="transition.rect">262.435 -10.5763 1399.94 735.94 1</property>
      <property name="transition.valign">middle</property>
      <property name="transition.halign">center</property>
      <property name="shotcut:animIn">00:00:00.000</property>
      <property name="shotcut:animOut">00:00:00.000</property>
      <property name="transition.threads">0</property>
      <property name="transition.fix_rotate_x">0</property>
    </filter>
    <filter id="filter56" in="00:00:37.137" out="00:00:41.708">
      <property name="argument"></property>
      <property name="geometry">-27 172 849 576 1</property>
      <property name="family">Sans</property>
      <property name="size">48</property>
      <property name="weight">400</property>
      <property name="style">normal</property>
      <property name="fgcolour">0x000000ff</property>
      <property name="bgcolour">#00000000</property>
      <property name="olcolour">0x00000000</property>
      <property name="pad">0</property>
      <property name="halign">left</property>
      <property name="valign">top</property>
      <property name="outline">0</property>
      <property name="pixel_ratio">1</property>
      <property name="mlt_service">qtext</property>
      <property name="shotcut:filter">richText</property>
      <property name="html">&lt;!DOCTYPE HTML PUBLIC &quot;-//W3C//DTD HTML 4.0//EN&quot; &quot;http://www.w3.org/TR/REC-html40/strict.dtd&quot;&gt;
&lt;html&gt;&lt;head&gt;&lt;meta name=&quot;qrichtext&quot; content=&quot;1&quot; /&gt;&lt;style type=&quot;text/css&quot;&gt;
p, li { white-space: pre-wrap; }
&lt;/style&gt;&lt;/head&gt;&lt;body style=&quot; font-family:'MS Shell Dlg 2'; font-size:8.25pt; font-weight:400; font-style:normal;&quot;&gt;
&lt;p align=&quot;center&quot; style=&quot; margin-top:0px; margin-bottom:0px; margin-left:0px; margin-right:0px; -qt-block-indent:0; text-indent:0px;&quot;&gt;&lt;span style=&quot; font-family:'Times New Roman'; font-size:60pt; font-weight:600; color:#efef00;&quot;&gt;Eu direi &lt;/span&gt;&lt;/p&gt;
&lt;p align=&quot;center&quot; style=&quot; margin-top:0px; margin-bottom:0px; margin-left:0px; margin-right:0px; -qt-block-indent:0; text-indent:0px;&quot;&gt;&lt;span style=&quot; font-family:'Times New Roman'; font-size:60pt; font-weight:600; color:#efef00;&quot;&gt;é travar guerra &lt;/span&gt;&lt;/p&gt;
&lt;p align=&quot;center&quot; style=&quot; margin-top:0px; margin-bottom:0px; margin-left:0px; margin-right:0px; -qt-block-indent:0; text-indent:0px;&quot;&gt;&lt;span style=&quot; font-family:'Times New Roman'; font-size:60pt; font-weight:600; color:#efef00;&quot;&gt;pelo &lt;/span&gt;&lt;/p&gt;
&lt;p align=&quot;center&quot; style=&quot; margin-top:0px; margin-bottom:0px; margin-left:0px; margin-right:0px; -qt-block-indent:0; text-indent:0px;&quot;&gt;&lt;span style=&quot; font-family:'Times New Roman'; font-size:60pt; font-weight:600; color:#efef00;&quot;&gt;MAR, TERRA e AR&lt;/span&gt;&lt;/p&gt;
&lt;p align=&quot;center&quot; style=&quot;-qt-paragraph-type:empty; margin-top:0px; margin-bottom:0px; margin-left:0px; margin-right:0px; -qt-block-indent:0; text-indent:0px; font-family:'Times New Roman'; font-size:70pt; font-weight:600; color:#efef00;&quot;&gt;&lt;br /&gt;&lt;/p&gt;&lt;/body&gt;&lt;/html&gt;</property>
      <property name="shotcut:animIn">00:00:00.000</property>
      <property name="shotcut:animOut">00:00:00.000</property>
    </filter>
  </producer>
  <producer id="producer21" in="00:00:00.000" out="03:59:59.993">
    <property name="length">03:59:60.027</property>
    <property name="eof">pause</property>
    <property name="resource">c:/Users/migue/Videos/T3.png</property>
    <property name="ttl">1</property>
    <property name="aspect_ratio">1</property>
    <property name="progressive">1</property>
    <property name="seekable">1</property>
    <property name="mlt_service">qimage</property>
    <property name="creation_time">2022-02-14T00:20:32</property>
    <property name="shotcut:hash">bc383d3fbd4e56412006f398de51a2b1</property>
    <property name="shotcut:caption">T3.png</property>
    <property name="xml">was here</property>
    <filter id="filter57" in="00:00:41.742" out="00:00:43.544">
      <property name="background">color:#00000000</property>
      <property name="mlt_service">affine</property>
      <property name="shotcut:filter">affineSizePosition</property>
      <property name="transition.fill">1</property>
      <property name="transition.distort">0</property>
      <property name="transition.rect">262.435 -10.5763 1399.94 735.94 1</property>
      <property name="transition.valign">middle</property>
      <property name="transition.halign">center</property>
      <property name="shotcut:animIn">00:00:00.000</property>
      <property name="shotcut:animOut">00:00:00.000</property>
      <property name="transition.threads">0</property>
      <property name="transition.fix_rotate_x">0</property>
    </filter>
    <filter id="filter58" in="00:00:41.742" out="00:00:43.544">
      <property name="argument"></property>
      <property name="geometry">-27 172 849 576 1</property>
      <property name="family">Sans</property>
      <property name="size">48</property>
      <property name="weight">400</property>
      <property name="style">normal</property>
      <property name="fgcolour">0x000000ff</property>
      <property name="bgcolour">#00000000</property>
      <property name="olcolour">0x00000000</property>
      <property name="pad">0</property>
      <property name="halign">left</property>
      <property name="valign">top</property>
      <property name="outline">0</property>
      <property name="pixel_ratio">1</property>
      <property name="mlt_service">qtext</property>
      <property name="shotcut:filter">richText</property>
      <property name="html">&lt;!DOCTYPE HTML PUBLIC &quot;-//W3C//DTD HTML 4.0//EN&quot; &quot;http://www.w3.org/TR/REC-html40/strict.dtd&quot;&gt;
&lt;html&gt;&lt;head&gt;&lt;meta name=&quot;qrichtext&quot; content=&quot;1&quot; /&gt;&lt;style type=&quot;text/css&quot;&gt;
p, li { white-space: pre-wrap; }
&lt;/style&gt;&lt;/head&gt;&lt;body style=&quot; font-family:'MS Shell Dlg 2'; font-size:8.25pt; font-weight:400; font-style:normal;&quot;&gt;
&lt;p align=&quot;center&quot; style=&quot; margin-top:0px; margin-bottom:0px; margin-left:0px; margin-right:0px; -qt-block-indent:0; text-indent:0px;&quot;&gt;&lt;span style=&quot; font-family:'Times New Roman'; font-size:60pt; font-weight:600; color:#efef00;&quot;&gt;Com toda nossa potência&lt;/span&gt;&lt;/p&gt;
&lt;p align=&quot;center&quot; style=&quot;-qt-paragraph-type:empty; margin-top:0px; margin-bottom:0px; margin-left:0px; margin-right:0px; -qt-block-indent:0; text-indent:0px; font-family:'Times New Roman'; font-size:60pt; font-weight:600; color:#efef00;&quot;&gt;&lt;br /&gt;&lt;/p&gt;&lt;/body&gt;&lt;/html&gt;</property>
      <property name="shotcut:animIn">00:00:00.000</property>
      <property name="shotcut:animOut">00:00:00.000</property>
    </filter>
  </producer>
  <producer id="producer22" in="00:00:00.000" out="03:59:59.993">
    <property name="length">03:59:60.027</property>
    <property name="eof">pause</property>
    <property name="resource">c:/Users/migue/Videos/T3.png</property>
    <property name="ttl">1</property>
    <property name="aspect_ratio">1</property>
    <property name="progressive">1</property>
    <property name="seekable">1</property>
    <property name="mlt_service">qimage</property>
    <property name="creation_time">2022-02-14T00:20:32</property>
    <property name="shotcut:hash">bc383d3fbd4e56412006f398de51a2b1</property>
    <property name="shotcut:caption">T3.png</property>
    <property name="xml">was here</property>
    <filter id="filter59" in="00:00:43.577" out="00:00:46.680">
      <property name="background">color:#00000000</property>
      <property name="mlt_service">affine</property>
      <property name="shotcut:filter">affineSizePosition</property>
      <property name="transition.fill">1</property>
      <property name="transition.distort">0</property>
      <property name="transition.rect">262.435 -10.5763 1399.94 735.94 1</property>
      <property name="transition.valign">middle</property>
      <property name="transition.halign">center</property>
      <property name="shotcut:animIn">00:00:00.000</property>
      <property name="shotcut:animOut">00:00:00.000</property>
      <property name="transition.threads">0</property>
      <property name="transition.fix_rotate_x">0</property>
    </filter>
    <filter id="filter60" in="00:00:43.577" out="00:00:46.680">
      <property name="argument"></property>
      <property name="geometry">-27 172 849 576 1</property>
      <property name="family">Sans</property>
      <property name="size">48</property>
      <property name="weight">400</property>
      <property name="style">normal</property>
      <property name="fgcolour">0x000000ff</property>
      <property name="bgcolour">#00000000</property>
      <property name="olcolour">0x00000000</property>
      <property name="pad">0</property>
      <property name="halign">left</property>
      <property name="valign">top</property>
      <property name="outline">0</property>
      <property name="pixel_ratio">1</property>
      <property name="mlt_service">qtext</property>
      <property name="shotcut:filter">richText</property>
      <property name="html">&lt;!DOCTYPE HTML PUBLIC &quot;-//W3C//DTD HTML 4.0//EN&quot; &quot;http://www.w3.org/TR/REC-html40/strict.dtd&quot;&gt;
&lt;html&gt;&lt;head&gt;&lt;meta name=&quot;qrichtext&quot; content=&quot;1&quot; /&gt;&lt;style type=&quot;text/css&quot;&gt;
p, li { white-space: pre-wrap; }
&lt;/style&gt;&lt;/head&gt;&lt;body style=&quot; font-family:'MS Shell Dlg 2'; font-size:8.25pt; font-weight:400; font-style:normal;&quot;&gt;
&lt;p align=&quot;center&quot; style=&quot; margin-top:0px; margin-bottom:0px; margin-left:0px; margin-right:0px; -qt-block-indent:0; text-indent:0px;&quot;&gt;&lt;span style=&quot; font-family:'Times New Roman'; font-size:60pt; font-weight:600; color:#efef00;&quot;&gt;Com toda a força que Deus possa nos dar&lt;/span&gt;&lt;/p&gt;
&lt;p align=&quot;center&quot; style=&quot;-qt-paragraph-type:empty; margin-top:0px; margin-bottom:0px; margin-left:0px; margin-right:0px; -qt-block-indent:0; text-indent:0px; font-family:'Times New Roman'; font-size:60pt; font-weight:600; color:#efef00;&quot;&gt;&lt;br /&gt;&lt;/p&gt;&lt;/body&gt;&lt;/html&gt;</property>
      <property name="shotcut:animIn">00:00:00.000</property>
      <property name="shotcut:animOut">00:00:00.000</property>
    </filter>
  </producer>
  <producer id="producer23" in="00:00:00.000" out="03:59:59.993">
    <property name="length">03:59:60.027</property>
    <property name="eof">pause</property>
    <property name="resource">c:/Users/migue/Videos/T3.png</property>
    <property name="ttl">1</property>
    <property name="aspect_ratio">1</property>
    <property name="progressive">1</property>
    <property name="seekable">1</property>
    <property name="mlt_service">qimage</property>
    <property name="creation_time">2022-02-14T00:20:32</property>
    <property name="shotcut:hash">bc383d3fbd4e56412006f398de51a2b1</property>
    <property name="shotcut:caption">T3.png</property>
    <property name="xml">was here</property>
    <filter id="filter61" in="00:00:46.713" out="00:00:49.983">
      <property name="background">color:#00000000</property>
      <property name="mlt_service">affine</property>
      <property name="shotcut:filter">affineSizePosition</property>
      <property name="transition.fill">1</property>
      <property name="transition.distort">0</property>
      <property name="transition.rect">262.435 -10.5763 1399.94 735.94 1</property>
      <property name="transition.valign">middle</property>
      <property name="transition.halign">center</property>
      <property name="shotcut:animIn">00:00:00.000</property>
      <property name="shotcut:animOut">00:00:00.000</property>
      <property name="transition.threads">0</property>
      <property name="transition.fix_rotate_x">0</property>
    </filter>
    <filter id="filter62" in="00:00:46.713" out="00:00:49.983">
      <property name="argument"></property>
      <property name="geometry">-27 172 849 576 1</property>
      <property name="family">Sans</property>
      <property name="size">48</property>
      <property name="weight">400</property>
      <property name="style">normal</property>
      <property name="fgcolour">0x000000ff</property>
      <property name="bgcolour">#00000000</property>
      <property name="olcolour">0x00000000</property>
      <property name="pad">0</property>
      <property name="halign">left</property>
      <property name="valign">top</property>
      <property name="outline">0</property>
      <property name="pixel_ratio">1</property>
      <property name="mlt_service">qtext</property>
      <property name="shotcut:filter">richText</property>
      <property name="html">&lt;!DOCTYPE HTML PUBLIC &quot;-//W3C//DTD HTML 4.0//EN&quot; &quot;http://www.w3.org/TR/REC-html40/strict.dtd&quot;&gt;
&lt;html&gt;&lt;head&gt;&lt;meta name=&quot;qrichtext&quot; content=&quot;1&quot; /&gt;&lt;style type=&quot;text/css&quot;&gt;
p, li { white-space: pre-wrap; }
&lt;/style&gt;&lt;/head&gt;&lt;body style=&quot; font-family:'MS Shell Dlg 2'; font-size:8.25pt; font-weight:400; font-style:normal;&quot;&gt;
&lt;p align=&quot;center&quot; style=&quot; margin-top:0px; margin-bottom:0px; margin-left:0px; margin-right:0px; -qt-block-indent:0; text-indent:0px;&quot;&gt;&lt;span style=&quot; font-family:'Times New Roman'; font-size:60pt; font-weight:600; color:#efef00;&quot;&gt;Travar  guerra &lt;br /&gt;contra uma &lt;br /&gt;tirania monstruosa&lt;/span&gt;&lt;/p&gt;
&lt;p align=&quot;center&quot; style=&quot;-qt-paragraph-type:empty; margin-top:0px; margin-bottom:0px; margin-left:0px; margin-right:0px; -qt-block-indent:0; text-indent:0px; font-family:'Times New Roman'; font-size:60pt; font-weight:600; color:#efef00;&quot;&gt;&lt;br /&gt;&lt;/p&gt;&lt;/body&gt;&lt;/html&gt;</property>
      <property name="shotcut:animIn">00:00:00.000</property>
      <property name="shotcut:animOut">00:00:00.000</property>
    </filter>
  </producer>
  <producer id="producer24" in="00:00:00.000" out="03:59:59.993">
    <property name="length">03:59:60.027</property>
    <property name="eof">pause</property>
    <property name="resource">c:/Users/migue/Videos/T3.png</property>
    <property name="ttl">1</property>
    <property name="aspect_ratio">1</property>
    <property name="progressive">1</property>
    <property name="seekable">1</property>
    <property name="mlt_service">qimage</property>
    <property name="creation_time">2022-02-14T00:20:32</property>
    <property name="shotcut:hash">bc383d3fbd4e56412006f398de51a2b1</property>
    <property name="shotcut:caption">T3.png</property>
    <property name="xml">was here</property>
    <filter id="filter63" in="00:00:50.017" out="00:00:55.222">
      <property name="background">color:#00000000</property>
      <property name="mlt_service">affine</property>
      <property name="shotcut:filter">affineSizePosition</property>
      <property name="transition.fill">1</property>
      <property name="transition.distort">0</property>
      <property name="transition.rect">262.435 -10.5763 1399.94 735.94 1</property>
      <property name="transition.valign">middle</property>
      <property name="transition.halign">center</property>
      <property name="shotcut:animIn">00:00:00.000</property>
      <property name="shotcut:animOut">00:00:00.000</property>
      <property name="transition.threads">0</property>
      <property name="transition.fix_rotate_x">0</property>
    </filter>
    <filter id="filter64" in="00:00:50.017" out="00:00:55.222">
      <property name="argument"></property>
      <property name="geometry">-27 172 849 576 1</property>
      <property name="family">Sans</property>
      <property name="size">48</property>
      <property name="weight">400</property>
      <property name="style">normal</property>
      <property name="fgcolour">0x000000ff</property>
      <property name="bgcolour">#00000000</property>
      <property name="olcolour">0x00000000</property>
      <property name="pad">0</property>
      <property name="halign">left</property>
      <property name="valign">top</property>
      <property name="outline">0</property>
      <property name="pixel_ratio">1</property>
      <property name="mlt_service">qtext</property>
      <property name="shotcut:filter">richText</property>
      <property name="html">&lt;!DOCTYPE HTML PUBLIC &quot;-//W3C//DTD HTML 4.0//EN&quot; &quot;http://www.w3.org/TR/REC-html40/strict.dtd&quot;&gt;
&lt;html&gt;&lt;head&gt;&lt;meta name=&quot;qrichtext&quot; content=&quot;1&quot; /&gt;&lt;style type=&quot;text/css&quot;&gt;
p, li { white-space: pre-wrap; }
&lt;/style&gt;&lt;/head&gt;&lt;body style=&quot; font-family:'MS Shell Dlg 2'; font-size:8.25pt; font-weight:400; font-style:normal;&quot;&gt;
&lt;p align=&quot;center&quot; style=&quot; margin-top:0px; margin-bottom:0px; margin-left:0px; margin-right:0px; -qt-block-indent:0; text-indent:0px;&quot;&gt;&lt;span style=&quot; font-family:'Times New Roman'; font-size:55pt; font-weight:600; color:#efef00;&quot;&gt;Nunca superada &lt;/span&gt;&lt;/p&gt;
&lt;p align=&quot;center&quot; style=&quot; margin-top:0px; margin-bottom:0px; margin-left:0px; margin-right:0px; -qt-block-indent:0; text-indent:0px;&quot;&gt;&lt;span style=&quot; font-family:'Times New Roman'; font-size:55pt; font-weight:600; color:#efef00;&quot;&gt;no catálogo sombrio &lt;/span&gt;&lt;/p&gt;
&lt;p align=&quot;center&quot; style=&quot; margin-top:0px; margin-bottom:0px; margin-left:0px; margin-right:0px; -qt-block-indent:0; text-indent:0px;&quot;&gt;&lt;span style=&quot; font-family:'Times New Roman'; font-size:55pt; font-weight:600; color:#efef00;&quot;&gt;e lamentavel &lt;/span&gt;&lt;/p&gt;
&lt;p align=&quot;center&quot; style=&quot; margin-top:0px; margin-bottom:0px; margin-left:0px; margin-right:0px; -qt-block-indent:0; text-indent:0px;&quot;&gt;&lt;span style=&quot; font-family:'Times New Roman'; font-size:55pt; font-weight:600; color:#efef00;&quot;&gt;do crime humano&lt;/span&gt;&lt;/p&gt;
&lt;p align=&quot;center&quot; style=&quot;-qt-paragraph-type:empty; margin-top:0px; margin-bottom:0px; margin-left:0px; margin-right:0px; -qt-block-indent:0; text-indent:0px; font-family:'Times New Roman'; font-size:60pt; font-weight:600; color:#efef00;&quot;&gt;&lt;br /&gt;&lt;/p&gt;&lt;/body&gt;&lt;/html&gt;</property>
      <property name="shotcut:animIn">00:00:00.000</property>
      <property name="shotcut:animOut">00:00:00.000</property>
    </filter>
  </producer>
  <producer id="producer25" in="00:00:00.000" out="03:59:59.993">
    <property name="length">03:59:60.027</property>
    <property name="eof">pause</property>
    <property name="resource">c:/Users/migue/Videos/T3.png</property>
    <property name="ttl">1</property>
    <property name="aspect_ratio">1</property>
    <property name="progressive">1</property>
    <property name="seekable">1</property>
    <property name="mlt_service">qimage</property>
    <property name="creation_time">2022-02-14T00:20:32</property>
    <property name="shotcut:hash">bc383d3fbd4e56412006f398de51a2b1</property>
    <property name="shotcut:caption">T3.png</property>
    <property name="xml">was here</property>
    <filter id="filter65" in="00:00:55.255" out="00:00:57.791">
      <property name="background">color:#00000000</property>
      <property name="mlt_service">affine</property>
      <property name="shotcut:filter">affineSizePosition</property>
      <property name="transition.fill">1</property>
      <property name="transition.distort">0</property>
      <property name="transition.rect">262.435 -10.5763 1399.94 735.94 1</property>
      <property name="transition.valign">middle</property>
      <property name="transition.halign">center</property>
      <property name="shotcut:animIn">00:00:00.000</property>
      <property name="shotcut:animOut">00:00:00.000</property>
      <property name="transition.threads">0</property>
      <property name="transition.fix_rotate_x">0</property>
    </filter>
    <filter id="filter66" in="00:00:55.255" out="00:00:57.791">
      <property name="argument"></property>
      <property name="geometry">-27 172 849 576 1</property>
      <property name="family">Sans</property>
      <property name="size">48</property>
      <property name="weight">400</property>
      <property name="style">normal</property>
      <property name="fgcolour">0x000000ff</property>
      <property name="bgcolour">#00000000</property>
      <property name="olcolour">0x00000000</property>
      <property name="pad">0</property>
      <property name="halign">left</property>
      <property name="valign">top</property>
      <property name="outline">0</property>
      <property name="pixel_ratio">1</property>
      <property name="mlt_service">qtext</property>
      <property name="shotcut:filter">richText</property>
      <property name="html">&lt;!DOCTYPE HTML PUBLIC &quot;-//W3C//DTD HTML 4.0//EN&quot; &quot;http://www.w3.org/TR/REC-html40/strict.dtd&quot;&gt;
&lt;html&gt;&lt;head&gt;&lt;meta name=&quot;qrichtext&quot; content=&quot;1&quot; /&gt;&lt;style type=&quot;text/css&quot;&gt;
p, li { white-space: pre-wrap; }
&lt;/style&gt;&lt;/head&gt;&lt;body style=&quot; font-family:'MS Shell Dlg 2'; font-size:8.25pt; font-weight:400; font-style:normal;&quot;&gt;
&lt;p align=&quot;center&quot; style=&quot; margin-top:0px; margin-bottom:0px; margin-left:0px; margin-right:0px; -qt-block-indent:0; text-indent:0px;&quot;&gt;&lt;span style=&quot; font-family:'Times New Roman'; font-size:60pt; font-weight:600; color:#efef00;&quot;&gt;ESTÁ É NOSSA POLÍTICA&lt;/span&gt;&lt;/p&gt;
&lt;p align=&quot;center&quot; style=&quot;-qt-paragraph-type:empty; margin-top:0px; margin-bottom:0px; margin-left:0px; margin-right:0px; -qt-block-indent:0; text-indent:0px; font-family:'Times New Roman'; font-size:60pt; font-weight:600; color:#efef00;&quot;&gt;&lt;br /&gt;&lt;/p&gt;&lt;/body&gt;&lt;/html&gt;</property>
      <property name="shotcut:animIn">00:00:00.000</property>
      <property name="shotcut:animOut">00:00:00.000</property>
    </filter>
  </producer>
  <producer id="producer26" in="00:00:00.000" out="03:59:59.993">
    <property name="length">03:59:60.027</property>
    <property name="eof">pause</property>
    <property name="resource">c:/Users/migue/Videos/T3.png</property>
    <property name="ttl">1</property>
    <property name="aspect_ratio">1</property>
    <property name="progressive">1</property>
    <property name="seekable">1</property>
    <property name="mlt_service">qimage</property>
    <property name="creation_time">2022-02-14T00:20:32</property>
    <property name="shotcut:hash">bc383d3fbd4e56412006f398de51a2b1</property>
    <property name="shotcut:caption">T3.png</property>
    <property name="xml">was here</property>
    <filter id="filter67" in="00:00:57.824" out="00:01:00.667">
      <property name="background">color:#00000000</property>
      <property name="mlt_service">affine</property>
      <property name="shotcut:filter">affineSizePosition</property>
      <property name="transition.fill">1</property>
      <property name="transition.distort">0</property>
      <property name="transition.rect">262.435 -10.5763 1399.94 735.94 1</property>
      <property name="transition.valign">middle</property>
      <property name="transition.halign">center</property>
      <property name="shotcut:animIn">00:00:00.000</property>
      <property name="shotcut:animOut">00:00:00.000</property>
      <property name="transition.threads">0</property>
      <property name="transition.fix_rotate_x">0</property>
    </filter>
    <filter id="filter68" in="00:00:57.824" out="00:01:00.667">
      <property name="argument"></property>
      <property name="geometry">-27 172 849 576 1</property>
      <property name="family">Sans</property>
      <property name="size">48</property>
      <property name="weight">400</property>
      <property name="style">normal</property>
      <property name="fgcolour">0x000000ff</property>
      <property name="bgcolour">#00000000</property>
      <property name="olcolour">0x00000000</property>
      <property name="pad">0</property>
      <property name="halign">left</property>
      <property name="valign">top</property>
      <property name="outline">0</property>
      <property name="pixel_ratio">1</property>
      <property name="mlt_service">qtext</property>
      <property name="shotcut:filter">richText</property>
      <property name="html">&lt;!DOCTYPE HTML PUBLIC &quot;-//W3C//DTD HTML 4.0//EN&quot; &quot;http://www.w3.org/TR/REC-html40/strict.dtd&quot;&gt;
&lt;html&gt;&lt;head&gt;&lt;meta name=&quot;qrichtext&quot; content=&quot;1&quot; /&gt;&lt;style type=&quot;text/css&quot;&gt;
p, li { white-space: pre-wrap; }
&lt;/style&gt;&lt;/head&gt;&lt;body style=&quot; font-family:'MS Shell Dlg 2'; font-size:8.25pt; font-weight:400; font-style:normal;&quot;&gt;
&lt;p align=&quot;center&quot; style=&quot; margin-top:0px; margin-bottom:0px; margin-left:0px; margin-right:0px; -qt-block-indent:0; text-indent:0px;&quot;&gt;&lt;span style=&quot; font-family:'Times New Roman'; font-size:60pt; font-weight:600; color:#efef00;&quot;&gt;Qual é nosso OBJETIVO?&lt;/span&gt;&lt;/p&gt;
&lt;p align=&quot;center&quot; style=&quot;-qt-paragraph-type:empty; margin-top:0px; margin-bottom:0px; margin-left:0px; margin-right:0px; -qt-block-indent:0; text-indent:0px; font-family:'Times New Roman'; font-size:60pt; font-weight:600; color:#efef00;&quot;&gt;&lt;br /&gt;&lt;/p&gt;&lt;/body&gt;&lt;/html&gt;</property>
      <property name="shotcut:animIn">00:00:00.000</property>
      <property name="shotcut:animOut">00:00:00.000</property>
    </filter>
  </producer>
  <producer id="producer27" in="00:00:00.000" out="03:59:59.993">
    <property name="length">03:59:60.027</property>
    <property name="eof">pause</property>
    <property name="resource">c:/Users/migue/Videos/T3.png</property>
    <property name="ttl">1</property>
    <property name="aspect_ratio">1</property>
    <property name="progressive">1</property>
    <property name="seekable">1</property>
    <property name="mlt_service">qimage</property>
    <property name="creation_time">2022-02-14T00:20:32</property>
    <property name="shotcut:hash">bc383d3fbd4e56412006f398de51a2b1</property>
    <property name="shotcut:caption">T3.png</property>
    <property name="xml">was here</property>
    <filter id="filter69" in="00:01:00.701" out="00:01:02.669">
      <property name="background">color:#00000000</property>
      <property name="mlt_service">affine</property>
      <property name="shotcut:filter">affineSizePosition</property>
      <property name="transition.fill">1</property>
      <property name="transition.distort">0</property>
      <property name="transition.rect">262.435 -10.5763 1399.94 735.94 1</property>
      <property name="transition.valign">middle</property>
      <property name="transition.halign">center</property>
      <property name="shotcut:animIn">00:00:00.000</property>
      <property name="shotcut:animOut">00:00:00.000</property>
      <property name="transition.threads">0</property>
      <property name="transition.fix_rotate_x">0</property>
    </filter>
    <filter id="filter70" in="00:01:00.701" out="00:01:02.669">
      <property name="argument"></property>
      <property name="geometry">-27 172 849 576 1</property>
      <property name="family">Sans</property>
      <property name="size">48</property>
      <property name="weight">400</property>
      <property name="style">normal</property>
      <property name="fgcolour">0x000000ff</property>
      <property name="bgcolour">#00000000</property>
      <property name="olcolour">0x00000000</property>
      <property name="pad">0</property>
      <property name="halign">left</property>
      <property name="valign">top</property>
      <property name="outline">0</property>
      <property name="pixel_ratio">1</property>
      <property name="mlt_service">qtext</property>
      <property name="shotcut:filter">richText</property>
      <property name="html">&lt;!DOCTYPE HTML PUBLIC &quot;-//W3C//DTD HTML 4.0//EN&quot; &quot;http://www.w3.org/TR/REC-html40/strict.dtd&quot;&gt;
&lt;html&gt;&lt;head&gt;&lt;meta name=&quot;qrichtext&quot; content=&quot;1&quot; /&gt;&lt;style type=&quot;text/css&quot;&gt;
p, li { white-space: pre-wrap; }
&lt;/style&gt;&lt;/head&gt;&lt;body style=&quot; font-family:'MS Shell Dlg 2'; font-size:8.25pt; font-weight:400; font-style:normal;&quot;&gt;
&lt;p align=&quot;center&quot; style=&quot; margin-top:0px; margin-bottom:0px; margin-left:0px; margin-right:0px; -qt-block-indent:0; text-indent:0px;&quot;&gt;&lt;span style=&quot; font-family:'Times New Roman'; font-size:60pt; font-weight:600; color:#efef00;&quot;&gt;Posso responder &lt;/span&gt;&lt;/p&gt;
&lt;p align=&quot;center&quot; style=&quot; margin-top:0px; margin-bottom:0px; margin-left:0px; margin-right:0px; -qt-block-indent:0; text-indent:0px;&quot;&gt;&lt;span style=&quot; font-family:'Times New Roman'; font-size:60pt; font-weight:600; color:#efef00;&quot;&gt;com uma palavra&lt;/span&gt;&lt;/p&gt;
&lt;p align=&quot;center&quot; style=&quot;-qt-paragraph-type:empty; margin-top:0px; margin-bottom:0px; margin-left:0px; margin-right:0px; -qt-block-indent:0; text-indent:0px; font-family:'Times New Roman'; font-size:60pt; font-weight:600; color:#efef00;&quot;&gt;&lt;br /&gt;&lt;/p&gt;&lt;/body&gt;&lt;/html&gt;</property>
      <property name="shotcut:animIn">00:00:00.000</property>
      <property name="shotcut:animOut">00:00:00.000</property>
    </filter>
  </producer>
  <producer id="producer28" in="00:00:00.000" out="03:59:59.993">
    <property name="length">03:59:60.027</property>
    <property name="eof">pause</property>
    <property name="resource">c:/Users/migue/Videos/T3.png</property>
    <property name="ttl">1</property>
    <property name="aspect_ratio">1</property>
    <property name="progressive">1</property>
    <property name="seekable">1</property>
    <property name="mlt_service">qimage</property>
    <property name="creation_time">2022-02-14T00:20:32</property>
    <property name="shotcut:hash">bc383d3fbd4e56412006f398de51a2b1</property>
    <property name="shotcut:caption">T3.png</property>
    <property name="xml">was here</property>
    <filter id="filter71" in="00:01:02.703" out="00:01:04.037">
      <property name="background">color:#00000000</property>
      <property name="mlt_service">affine</property>
      <property name="shotcut:filter">affineSizePosition</property>
      <property name="transition.fill">1</property>
      <property name="transition.distort">0</property>
      <property name="transition.rect">262.435 -10.5763 1399.94 735.94 1</property>
      <property name="transition.valign">middle</property>
      <property name="transition.halign">center</property>
      <property name="shotcut:animIn">00:00:00.000</property>
      <property name="shotcut:animOut">00:00:00.000</property>
      <property name="transition.threads">0</property>
      <property name="transition.fix_rotate_x">0</property>
    </filter>
    <filter id="filter72" in="00:01:02.703" out="00:01:04.037">
      <property name="argument"></property>
      <property name="geometry">-27 172 849 576 1</property>
      <property name="family">Sans</property>
      <property name="size">48</property>
      <property name="weight">400</property>
      <property name="style">normal</property>
      <property name="fgcolour">0x000000ff</property>
      <property name="bgcolour">#00000000</property>
      <property name="olcolour">0x00000000</property>
      <property name="pad">0</property>
      <property name="halign">left</property>
      <property name="valign">top</property>
      <property name="outline">0</property>
      <property name="pixel_ratio">1</property>
      <property name="mlt_service">qtext</property>
      <property name="shotcut:filter">richText</property>
      <property name="html">&lt;!DOCTYPE HTML PUBLIC &quot;-//W3C//DTD HTML 4.0//EN&quot; &quot;http://www.w3.org/TR/REC-html40/strict.dtd&quot;&gt;
&lt;html&gt;&lt;head&gt;&lt;meta name=&quot;qrichtext&quot; content=&quot;1&quot; /&gt;&lt;style type=&quot;text/css&quot;&gt;
p, li { white-space: pre-wrap; }
&lt;/style&gt;&lt;/head&gt;&lt;body style=&quot; font-family:'MS Shell Dlg 2'; font-size:8.25pt; font-weight:400; font-style:normal;&quot;&gt;
&lt;p align=&quot;center&quot; style=&quot; margin-top:0px; margin-bottom:0px; margin-left:0px; margin-right:0px; -qt-block-indent:0; text-indent:0px;&quot;&gt;&lt;span style=&quot; font-family:'Times New Roman'; font-size:60pt; font-weight:600; color:#efef00;&quot;&gt;Posso responder &lt;/span&gt;&lt;/p&gt;
&lt;p align=&quot;center&quot; style=&quot; margin-top:0px; margin-bottom:0px; margin-left:0px; margin-right:0px; -qt-block-indent:0; text-indent:0px;&quot;&gt;&lt;span style=&quot; font-family:'Times New Roman'; font-size:60pt; font-weight:600; color:#efef00;&quot;&gt;com uma palavra&lt;/span&gt;&lt;/p&gt;
&lt;p align=&quot;center&quot; style=&quot; margin-top:0px; margin-bottom:0px; margin-left:0px; margin-right:0px; -qt-block-indent:0; text-indent:0px;&quot;&gt;&lt;span style=&quot; font-family:'Times New Roman'; font-size:71pt; font-weight:600; color:#efef00;&quot;&gt;VITÓRIA&lt;/span&gt;&lt;/p&gt;
&lt;p align=&quot;center&quot; style=&quot;-qt-paragraph-type:empty; margin-top:0px; margin-bottom:0px; margin-left:0px; margin-right:0px; -qt-block-indent:0; text-indent:0px; font-family:'Times New Roman'; font-size:60pt; font-weight:600; color:#efef00;&quot;&gt;&lt;br /&gt;&lt;/p&gt;&lt;/body&gt;&lt;/html&gt;</property>
      <property name="shotcut:animIn">00:00:00.000</property>
      <property name="shotcut:animOut">00:00:00.000</property>
    </filter>
  </producer>
  <producer id="producer29" in="00:00:00.000" out="03:59:59.993">
    <property name="length">03:59:60.027</property>
    <property name="eof">pause</property>
    <property name="resource">c:/Users/migue/Videos/T3.png</property>
    <property name="ttl">1</property>
    <property name="aspect_ratio">1</property>
    <property name="progressive">1</property>
    <property name="seekable">1</property>
    <property name="mlt_service">qimage</property>
    <property name="creation_time">2022-02-14T00:20:32</property>
    <property name="shotcut:hash">bc383d3fbd4e56412006f398de51a2b1</property>
    <property name="shotcut:caption">T3.png</property>
    <property name="xml">was here</property>
    <filter id="filter73" in="00:01:04.071" out="00:01:06.373">
      <property name="background">color:#00000000</property>
      <property name="mlt_service">affine</property>
      <property name="shotcut:filter">affineSizePosition</property>
      <property name="transition.fill">1</property>
      <property name="transition.distort">0</property>
      <property name="transition.rect">262.435 -10.5763 1399.94 735.94 1</property>
      <property name="transition.valign">middle</property>
      <property name="transition.halign">center</property>
      <property name="shotcut:animIn">00:00:00.000</property>
      <property name="shotcut:animOut">00:00:00.000</property>
      <property name="transition.threads">0</property>
      <property name="transition.fix_rotate_x">0</property>
    </filter>
    <filter id="filter74" in="00:01:04.071" out="00:01:06.373">
      <property name="argument"></property>
      <property name="geometry">-27 172 849 576 1</property>
      <property name="family">Sans</property>
      <property name="size">48</property>
      <property name="weight">400</property>
      <property name="style">normal</property>
      <property name="fgcolour">0x000000ff</property>
      <property name="bgcolour">#00000000</property>
      <property name="olcolour">0x00000000</property>
      <property name="pad">0</property>
      <property name="halign">left</property>
      <property name="valign">top</property>
      <property name="outline">0</property>
      <property name="pixel_ratio">1</property>
      <property name="mlt_service">qtext</property>
      <property name="shotcut:filter">richText</property>
      <property name="html">&lt;!DOCTYPE HTML PUBLIC &quot;-//W3C//DTD HTML 4.0//EN&quot; &quot;http://www.w3.org/TR/REC-html40/strict.dtd&quot;&gt;
&lt;html&gt;&lt;head&gt;&lt;meta name=&quot;qrichtext&quot; content=&quot;1&quot; /&gt;&lt;style type=&quot;text/css&quot;&gt;
p, li { white-space: pre-wrap; }
&lt;/style&gt;&lt;/head&gt;&lt;body style=&quot; font-family:'MS Shell Dlg 2'; font-size:8.25pt; font-weight:400; font-style:normal;&quot;&gt;
&lt;p align=&quot;center&quot; style=&quot; margin-top:0px; margin-bottom:0px; margin-left:0px; margin-right:0px; -qt-block-indent:0; text-indent:0px;&quot;&gt;&lt;span style=&quot; font-family:'Times New Roman'; font-size:70pt; font-weight:600; color:#efef00;&quot;&gt;VITÓRIA&lt;/span&gt;&lt;span style=&quot; font-family:'Times New Roman'; font-size:60pt; font-weight:600; color:#efef00;&quot;&gt; &lt;/span&gt;&lt;/p&gt;
&lt;p align=&quot;center&quot; style=&quot; margin-top:0px; margin-bottom:0px; margin-left:0px; margin-right:0px; -qt-block-indent:0; text-indent:0px;&quot;&gt;&lt;span style=&quot; font-family:'Times New Roman'; font-size:60pt; font-weight:600; color:#efef00;&quot;&gt;a todo custo&lt;/span&gt;&lt;/p&gt;
&lt;p align=&quot;center&quot; style=&quot;-qt-paragraph-type:empty; margin-top:0px; margin-bottom:0px; margin-left:0px; margin-right:0px; -qt-block-indent:0; text-indent:0px; font-family:'Times New Roman'; font-size:60pt; font-weight:600; color:#efef00;&quot;&gt;&lt;br /&gt;&lt;/p&gt;&lt;/body&gt;&lt;/html&gt;</property>
      <property name="shotcut:animIn">00:00:00.000</property>
      <property name="shotcut:animOut">00:00:00.000</property>
    </filter>
  </producer>
  <producer id="producer30" in="00:00:00.000" out="03:59:59.993">
    <property name="length">03:59:60.027</property>
    <property name="eof">pause</property>
    <property name="resource">c:/Users/migue/Videos/T3.png</property>
    <property name="ttl">1</property>
    <property name="aspect_ratio">1</property>
    <property name="progressive">1</property>
    <property name="seekable">1</property>
    <property name="mlt_service">qimage</property>
    <property name="creation_time">2022-02-14T00:20:32</property>
    <property name="shotcut:hash">bc383d3fbd4e56412006f398de51a2b1</property>
    <property name="shotcut:caption">T3.png</property>
    <property name="xml">was here</property>
    <filter id="filter75" in="00:01:06.406" out="00:01:09.109">
      <property name="background">color:#00000000</property>
      <property name="mlt_service">affine</property>
      <property name="shotcut:filter">affineSizePosition</property>
      <property name="transition.fill">1</property>
      <property name="transition.distort">0</property>
      <property name="transition.rect">262.435 -10.5763 1399.94 735.94 1</property>
      <property name="transition.valign">middle</property>
      <property name="transition.halign">center</property>
      <property name="shotcut:animIn">00:00:00.000</property>
      <property name="shotcut:animOut">00:00:00.000</property>
      <property name="transition.threads">0</property>
      <property name="transition.fix_rotate_x">0</property>
    </filter>
    <filter id="filter76" in="00:01:06.406" out="00:01:09.109">
      <property name="argument"></property>
      <property name="geometry">-27 172 849 576 1</property>
      <property name="family">Sans</property>
      <property name="size">48</property>
      <property name="weight">400</property>
      <property name="style">normal</property>
      <property name="fgcolour">0x000000ff</property>
      <property name="bgcolour">#00000000</property>
      <property name="olcolour">0x00000000</property>
      <property name="pad">0</property>
      <property name="halign">left</property>
      <property name="valign">top</property>
      <property name="outline">0</property>
      <property name="pixel_ratio">1</property>
      <property name="mlt_service">qtext</property>
      <property name="shotcut:filter">richText</property>
      <property name="html">&lt;!DOCTYPE HTML PUBLIC &quot;-//W3C//DTD HTML 4.0//EN&quot; &quot;http://www.w3.org/TR/REC-html40/strict.dtd&quot;&gt;
&lt;html&gt;&lt;head&gt;&lt;meta name=&quot;qrichtext&quot; content=&quot;1&quot; /&gt;&lt;style type=&quot;text/css&quot;&gt;
p, li { white-space: pre-wrap; }
&lt;/style&gt;&lt;/head&gt;&lt;body style=&quot; font-family:'MS Shell Dlg 2'; font-size:8.25pt; font-weight:400; font-style:normal;&quot;&gt;
&lt;p align=&quot;center&quot; style=&quot; margin-top:0px; margin-bottom:0px; margin-left:0px; margin-right:0px; -qt-block-indent:0; text-indent:0px;&quot;&gt;&lt;span style=&quot; font-family:'Times New Roman'; font-size:70pt; font-weight:600; color:#efef00;&quot;&gt;VITÓRIA&lt;/span&gt;&lt;/p&gt;
&lt;p align=&quot;center&quot; style=&quot; margin-top:0px; margin-bottom:0px; margin-left:0px; margin-right:0px; -qt-block-indent:0; text-indent:0px;&quot;&gt;&lt;span style=&quot; font-family:'Times New Roman'; font-size:60pt; font-weight:600; color:#efef00;&quot;&gt;Apesar de todo terror&lt;/span&gt;&lt;/p&gt;
&lt;p align=&quot;center&quot; style=&quot;-qt-paragraph-type:empty; margin-top:0px; margin-bottom:0px; margin-left:0px; margin-right:0px; -qt-block-indent:0; text-indent:0px; font-family:'Times New Roman'; font-size:60pt; font-weight:600; color:#efef00;&quot;&gt;&lt;br /&gt;&lt;/p&gt;&lt;/body&gt;&lt;/html&gt;</property>
      <property name="shotcut:animIn">00:00:00.000</property>
      <property name="shotcut:animOut">00:00:00.000</property>
    </filter>
  </producer>
  <producer id="producer31" in="00:00:00.000" out="03:59:59.993">
    <property name="length">03:59:60.027</property>
    <property name="eof">pause</property>
    <property name="resource">c:/Users/migue/Videos/T3.png</property>
    <property name="ttl">1</property>
    <property name="aspect_ratio">1</property>
    <property name="progressive">1</property>
    <property name="seekable">1</property>
    <property name="mlt_service">qimage</property>
    <property name="creation_time">2022-02-14T00:20:32</property>
    <property name="shotcut:hash">bc383d3fbd4e56412006f398de51a2b1</property>
    <property name="shotcut:caption">T3.png</property>
    <property name="xml">was here</property>
    <filter id="filter77" in="00:01:09.142" out="00:01:13.013">
      <property name="background">color:#00000000</property>
      <property name="mlt_service">affine</property>
      <property name="shotcut:filter">affineSizePosition</property>
      <property name="transition.fill">1</property>
      <property name="transition.distort">0</property>
      <property name="transition.rect">262.435 -10.5763 1399.94 735.94 1</property>
      <property name="transition.valign">middle</property>
      <property name="transition.halign">center</property>
      <property name="shotcut:animIn">00:00:00.000</property>
      <property name="shotcut:animOut">00:00:00.000</property>
      <property name="transition.threads">0</property>
      <property name="transition.fix_rotate_x">0</property>
    </filter>
    <filter id="filter78" in="00:01:09.142" out="00:01:13.013">
      <property name="argument"></property>
      <property name="geometry">-27 172 849 576 1</property>
      <property name="family">Sans</property>
      <property name="size">48</property>
      <property name="weight">400</property>
      <property name="style">normal</property>
      <property name="fgcolour">0x000000ff</property>
      <property name="bgcolour">#00000000</property>
      <property name="olcolour">0x00000000</property>
      <property name="pad">0</property>
      <property name="halign">left</property>
      <property name="valign">top</property>
      <property name="outline">0</property>
      <property name="pixel_ratio">1</property>
      <property name="mlt_service">qtext</property>
      <property name="shotcut:filter">richText</property>
      <property name="html">&lt;!DOCTYPE HTML PUBLIC &quot;-//W3C//DTD HTML 4.0//EN&quot; &quot;http://www.w3.org/TR/REC-html40/strict.dtd&quot;&gt;
&lt;html&gt;&lt;head&gt;&lt;meta name=&quot;qrichtext&quot; content=&quot;1&quot; /&gt;&lt;style type=&quot;text/css&quot;&gt;
p, li { white-space: pre-wrap; }
&lt;/style&gt;&lt;/head&gt;&lt;body style=&quot; font-family:'MS Shell Dlg 2'; font-size:8.25pt; font-weight:400; font-style:normal;&quot;&gt;
&lt;p align=&quot;center&quot; style=&quot; margin-top:0px; margin-bottom:0px; margin-left:0px; margin-right:0px; -qt-block-indent:0; text-indent:0px;&quot;&gt;&lt;span style=&quot; font-family:'Times New Roman'; font-size:70pt; font-weight:600; color:#efef00;&quot;&gt;VITÓRIA&lt;/span&gt;&lt;/p&gt;
&lt;p align=&quot;center&quot; style=&quot; margin-top:0px; margin-bottom:0px; margin-left:0px; margin-right:0px; -qt-block-indent:0; text-indent:0px;&quot;&gt;&lt;span style=&quot; font-family:'Times New Roman'; font-size:52pt; font-weight:600; color:#efef00;&quot;&gt;não importa quão longo &lt;br /&gt;e difícil o caminho seja&lt;/span&gt;&lt;/p&gt;
&lt;p align=&quot;center&quot; style=&quot;-qt-paragraph-type:empty; margin-top:0px; margin-bottom:0px; margin-left:0px; margin-right:0px; -qt-block-indent:0; text-indent:0px; font-family:'Times New Roman'; font-size:60pt; font-weight:600; color:#efef00;&quot;&gt;&lt;br /&gt;&lt;/p&gt;&lt;/body&gt;&lt;/html&gt;</property>
      <property name="shotcut:animIn">00:00:00.000</property>
      <property name="shotcut:animOut">00:00:00.000</property>
    </filter>
  </producer>
  <producer id="producer32" in="00:00:00.000" out="03:59:59.993">
    <property name="length">03:59:60.027</property>
    <property name="eof">pause</property>
    <property name="resource">c:/Users/migue/Videos/T3.png</property>
    <property name="ttl">1</property>
    <property name="aspect_ratio">1</property>
    <property name="progressive">1</property>
    <property name="seekable">1</property>
    <property name="mlt_service">qimage</property>
    <property name="creation_time">2022-02-14T00:20:32</property>
    <property name="shotcut:hash">bc383d3fbd4e56412006f398de51a2b1</property>
    <property name="shotcut:caption">T3.png</property>
    <property name="xml">was here</property>
    <filter id="filter79" in="00:01:13.046" out="00:01:16.617">
      <property name="background">color:#00000000</property>
      <property name="mlt_service">affine</property>
      <property name="shotcut:filter">affineSizePosition</property>
      <property name="transition.fill">1</property>
      <property name="transition.distort">0</property>
      <property name="transition.rect">262.435 -10.5763 1399.94 735.94 1</property>
      <property name="transition.valign">middle</property>
      <property name="transition.halign">center</property>
      <property name="shotcut:animIn">00:00:00.000</property>
      <property name="shotcut:animOut">00:00:00.000</property>
      <property name="transition.threads">0</property>
      <property name="transition.fix_rotate_x">0</property>
    </filter>
    <filter id="filter80" in="00:01:13.046" out="00:01:16.617">
      <property name="argument"></property>
      <property name="geometry">-27 172 849 576 1</property>
      <property name="family">Sans</property>
      <property name="size">48</property>
      <property name="weight">400</property>
      <property name="style">normal</property>
      <property name="fgcolour">0x000000ff</property>
      <property name="bgcolour">#00000000</property>
      <property name="olcolour">0x00000000</property>
      <property name="pad">0</property>
      <property name="halign">left</property>
      <property name="valign">top</property>
      <property name="outline">0</property>
      <property name="pixel_ratio">1</property>
      <property name="mlt_service">qtext</property>
      <property name="shotcut:filter">richText</property>
      <property name="html">&lt;!DOCTYPE HTML PUBLIC &quot;-//W3C//DTD HTML 4.0//EN&quot; &quot;http://www.w3.org/TR/REC-html40/strict.dtd&quot;&gt;
&lt;html&gt;&lt;head&gt;&lt;meta name=&quot;qrichtext&quot; content=&quot;1&quot; /&gt;&lt;style type=&quot;text/css&quot;&gt;
p, li { white-space: pre-wrap; }
&lt;/style&gt;&lt;/head&gt;&lt;body style=&quot; font-family:'MS Shell Dlg 2'; font-size:8.25pt; font-weight:400; font-style:normal;&quot;&gt;
&lt;p align=&quot;center&quot; style=&quot; margin-top:0px; margin-bottom:0px; margin-left:0px; margin-right:0px; -qt-block-indent:0; text-indent:0px;&quot;&gt;&lt;span style=&quot; font-family:'Times New Roman'; font-size:60pt; font-weight:600; color:#efef00;&quot;&gt;Pois sem vitória&lt;/span&gt;&lt;/p&gt;
&lt;p align=&quot;center&quot; style=&quot; margin-top:0px; margin-bottom:0px; margin-left:0px; margin-right:0px; -qt-block-indent:0; text-indent:0px;&quot;&gt;&lt;span style=&quot; font-family:'Times New Roman'; font-size:60pt; font-weight:600; color:#efef00;&quot;&gt; não há sobrevivência&lt;/span&gt;&lt;/p&gt;
&lt;p align=&quot;center&quot; style=&quot;-qt-paragraph-type:empty; margin-top:0px; margin-bottom:0px; margin-left:0px; margin-right:0px; -qt-block-indent:0; text-indent:0px; font-family:'Times New Roman'; font-size:60pt; font-weight:600; color:#efef00;&quot;&gt;&lt;br /&gt;&lt;/p&gt;&lt;/body&gt;&lt;/html&gt;</property>
      <property name="shotcut:animIn">00:00:00.000</property>
      <property name="shotcut:animOut">00:00:00.000</property>
    </filter>
  </producer>
  <producer id="producer33" in="00:00:00.000" out="03:59:59.993">
    <property name="length">03:59:60.027</property>
    <property name="eof">pause</property>
    <property name="resource">c:/Users/migue/Videos/T3.png</property>
    <property name="ttl">1</property>
    <property name="aspect_ratio">1</property>
    <property name="progressive">1</property>
    <property name="seekable">1</property>
    <property name="mlt_service">qimage</property>
    <property name="creation_time">2022-02-14T00:20:32</property>
    <property name="shotcut:hash">bc383d3fbd4e56412006f398de51a2b1</property>
    <property name="shotcut:caption">T3.png</property>
    <property name="xml">was here</property>
    <filter id="filter81" in="00:01:16.650" out="00:01:21.054">
      <property name="background">color:#00000000</property>
      <property name="mlt_service">affine</property>
      <property name="shotcut:filter">affineSizePosition</property>
      <property name="transition.fill">1</property>
      <property name="transition.distort">0</property>
      <property name="transition.rect">262.435 -10.5763 1399.94 735.94 1</property>
      <property name="transition.valign">middle</property>
      <property name="transition.halign">center</property>
      <property name="shotcut:animIn">00:00:00.000</property>
      <property name="shotcut:animOut">00:00:00.000</property>
      <property name="transition.threads">0</property>
      <property name="transition.fix_rotate_x">0</property>
    </filter>
    <filter id="filter82" in="00:01:16.650" out="00:01:21.054">
      <property name="argument"></property>
      <property name="geometry">-27 172 849 576 1</property>
      <property name="family">Sans</property>
      <property name="size">48</property>
      <property name="weight">400</property>
      <property name="style">normal</property>
      <property name="fgcolour">0x000000ff</property>
      <property name="bgcolour">#00000000</property>
      <property name="olcolour">0x00000000</property>
      <property name="pad">0</property>
      <property name="halign">left</property>
      <property name="valign">top</property>
      <property name="outline">0</property>
      <property name="pixel_ratio">1</property>
      <property name="mlt_service">qtext</property>
      <property name="shotcut:filter">richText</property>
      <property name="html">&lt;!DOCTYPE HTML PUBLIC &quot;-//W3C//DTD HTML 4.0//EN&quot; &quot;http://www.w3.org/TR/REC-html40/strict.dtd&quot;&gt;
&lt;html&gt;&lt;head&gt;&lt;meta name=&quot;qrichtext&quot; content=&quot;1&quot; /&gt;&lt;style type=&quot;text/css&quot;&gt;
p, li { white-space: pre-wrap; }
&lt;/style&gt;&lt;/head&gt;&lt;body style=&quot; font-family:'MS Shell Dlg 2'; font-size:8.25pt; font-weight:400; font-style:normal;&quot;&gt;
&lt;p align=&quot;center&quot; style=&quot; margin-top:0px; margin-bottom:0px; margin-left:0px; margin-right:0px; -qt-block-indent:0; text-indent:0px;&quot;&gt;&lt;span style=&quot; font-family:'Times New Roman'; font-size:60pt; font-weight:600; color:#efef00;&quot;&gt;Sem sobrevivência &lt;/span&gt;&lt;/p&gt;
&lt;p align=&quot;center&quot; style=&quot; margin-top:0px; margin-bottom:0px; margin-left:0px; margin-right:0px; -qt-block-indent:0; text-indent:0px;&quot;&gt;&lt;span style=&quot; font-family:'Times New Roman'; font-size:60pt; font-weight:600; color:#efef00;&quot;&gt;para o &lt;/span&gt;&lt;/p&gt;
&lt;p align=&quot;center&quot; style=&quot; margin-top:0px; margin-bottom:0px; margin-left:0px; margin-right:0px; -qt-block-indent:0; text-indent:0px;&quot;&gt;&lt;span style=&quot; font-family:'Times New Roman'; font-size:60pt; font-weight:600; color:#efef00;&quot;&gt;império britânico&lt;/span&gt;&lt;/p&gt;
&lt;p align=&quot;center&quot; style=&quot;-qt-paragraph-type:empty; margin-top:0px; margin-bottom:0px; margin-left:0px; margin-right:0px; -qt-block-indent:0; text-indent:0px; font-family:'Times New Roman'; font-size:60pt; font-weight:600; color:#efef00;&quot;&gt;&lt;br /&gt;&lt;/p&gt;&lt;/body&gt;&lt;/html&gt;</property>
      <property name="shotcut:animIn">00:00:00.000</property>
      <property name="shotcut:animOut">00:00:00.000</property>
    </filter>
  </producer>
  <producer id="producer34" in="00:00:00.000" out="03:59:59.993">
    <property name="length">03:59:60.027</property>
    <property name="eof">pause</property>
    <property name="resource">c:/Users/migue/Videos/T3.png</property>
    <property name="ttl">1</property>
    <property name="aspect_ratio">1</property>
    <property name="progressive">1</property>
    <property name="seekable">1</property>
    <property name="mlt_service">qimage</property>
    <property name="creation_time">2022-02-14T00:20:32</property>
    <property name="shotcut:hash">bc383d3fbd4e56412006f398de51a2b1</property>
    <property name="shotcut:caption">T3.png</property>
    <property name="xml">was here</property>
    <filter id="filter83" in="00:01:21.088" out="00:01:25.025">
      <property name="background">color:#00000000</property>
      <property name="mlt_service">affine</property>
      <property name="shotcut:filter">affineSizePosition</property>
      <property name="transition.fill">1</property>
      <property name="transition.distort">0</property>
      <property name="transition.rect">262.435 -10.5763 1399.94 735.94 1</property>
      <property name="transition.valign">middle</property>
      <property name="transition.halign">center</property>
      <property name="shotcut:animIn">00:00:00.000</property>
      <property name="shotcut:animOut">00:00:00.000</property>
      <property name="transition.threads">0</property>
      <property name="transition.fix_rotate_x">0</property>
    </filter>
    <filter id="filter84" in="00:01:21.088" out="00:01:25.025">
      <property name="argument"></property>
      <property name="geometry">-27 172 849 576 1</property>
      <property name="family">Sans</property>
      <property name="size">48</property>
      <property name="weight">400</property>
      <property name="style">normal</property>
      <property name="fgcolour">0x000000ff</property>
      <property name="bgcolour">#00000000</property>
      <property name="olcolour">0x00000000</property>
      <property name="pad">0</property>
      <property name="halign">left</property>
      <property name="valign">top</property>
      <property name="outline">0</property>
      <property name="pixel_ratio">1</property>
      <property name="mlt_service">qtext</property>
      <property name="shotcut:filter">richText</property>
      <property name="html">&lt;!DOCTYPE HTML PUBLIC &quot;-//W3C//DTD HTML 4.0//EN&quot; &quot;http://www.w3.org/TR/REC-html40/strict.dtd&quot;&gt;
&lt;html&gt;&lt;head&gt;&lt;meta name=&quot;qrichtext&quot; content=&quot;1&quot; /&gt;&lt;style type=&quot;text/css&quot;&gt;
p, li { white-space: pre-wrap; }
&lt;/style&gt;&lt;/head&gt;&lt;body style=&quot; font-family:'MS Shell Dlg 2'; font-size:8.25pt; font-weight:400; font-style:normal;&quot;&gt;
&lt;p align=&quot;center&quot; style=&quot; margin-top:0px; margin-bottom:0px; margin-left:0px; margin-right:0px; -qt-block-indent:0; text-indent:0px;&quot;&gt;&lt;span style=&quot; font-family:'Times New Roman'; font-size:60pt; font-weight:600; color:#efef00;&quot;&gt;Sem sobrevivência&lt;/span&gt;&lt;/p&gt;
&lt;p align=&quot;center&quot; style=&quot; margin-top:0px; margin-bottom:0px; margin-left:0px; margin-right:0px; -qt-block-indent:0; text-indent:0px;&quot;&gt;&lt;span style=&quot; font-family:'Times New Roman'; font-size:60pt; font-weight:600; color:#efef00;&quot;&gt;para o que nosso&lt;/span&gt;&lt;/p&gt;
&lt;p align=&quot;center&quot; style=&quot; margin-top:0px; margin-bottom:0px; margin-left:0px; margin-right:0px; -qt-block-indent:0; text-indent:0px;&quot;&gt;&lt;span style=&quot; font-family:'Times New Roman'; font-size:60pt; font-weight:600; color:#efef00;&quot;&gt;império representou&lt;/span&gt;&lt;/p&gt;
&lt;p align=&quot;center&quot; style=&quot;-qt-paragraph-type:empty; margin-top:0px; margin-bottom:0px; margin-left:0px; margin-right:0px; -qt-block-indent:0; text-indent:0px; font-family:'Times New Roman'; font-size:60pt; font-weight:600; color:#efef00;&quot;&gt;&lt;br /&gt;&lt;/p&gt;&lt;/body&gt;&lt;/html&gt;</property>
      <property name="shotcut:animIn">00:00:00.000</property>
      <property name="shotcut:animOut">00:00:00.000</property>
    </filter>
  </producer>
  <producer id="producer35" in="00:00:00.000" out="03:59:59.993">
    <property name="length">03:59:60.027</property>
    <property name="eof">pause</property>
    <property name="resource">c:/Users/migue/Videos/T3.png</property>
    <property name="ttl">1</property>
    <property name="aspect_ratio">1</property>
    <property name="progressive">1</property>
    <property name="seekable">1</property>
    <property name="mlt_service">qimage</property>
    <property name="creation_time">2022-02-14T00:20:32</property>
    <property name="shotcut:hash">bc383d3fbd4e56412006f398de51a2b1</property>
    <property name="shotcut:caption">T3.png</property>
    <property name="xml">was here</property>
    <filter id="filter85" in="00:01:25.058" out="00:01:29.363">
      <property name="background">color:#00000000</property>
      <property name="mlt_service">affine</property>
      <property name="shotcut:filter">affineSizePosition</property>
      <property name="transition.fill">1</property>
      <property name="transition.distort">0</property>
      <property name="transition.rect">262.435 -10.5763 1399.94 735.94 1</property>
      <property name="transition.valign">middle</property>
      <property name="transition.halign">center</property>
      <property name="shotcut:animIn">00:00:00.000</property>
      <property name="shotcut:animOut">00:00:00.000</property>
      <property name="transition.threads">0</property>
      <property name="transition.fix_rotate_x">0</property>
    </filter>
    <filter id="filter86" in="00:01:25.058" out="00:01:29.363">
      <property name="argument"></property>
      <property name="geometry">-27 172 849 576 1</property>
      <property name="family">Sans</property>
      <property name="size">48</property>
      <property name="weight">400</property>
      <property name="style">normal</property>
      <property name="fgcolour">0x000000ff</property>
      <property name="bgcolour">#00000000</property>
      <property name="olcolour">0x00000000</property>
      <property name="pad">0</property>
      <property name="halign">left</property>
      <property name="valign">top</property>
      <property name="outline">0</property>
      <property name="pixel_ratio">1</property>
      <property name="mlt_service">qtext</property>
      <property name="shotcut:filter">richText</property>
      <property name="html">&lt;!DOCTYPE HTML PUBLIC &quot;-//W3C//DTD HTML 4.0//EN&quot; &quot;http://www.w3.org/TR/REC-html40/strict.dtd&quot;&gt;
&lt;html&gt;&lt;head&gt;&lt;meta name=&quot;qrichtext&quot; content=&quot;1&quot; /&gt;&lt;style type=&quot;text/css&quot;&gt;
p, li { white-space: pre-wrap; }
&lt;/style&gt;&lt;/head&gt;&lt;body style=&quot; font-family:'MS Shell Dlg 2'; font-size:8.25pt; font-weight:400; font-style:normal;&quot;&gt;
&lt;p align=&quot;center&quot; style=&quot; margin-top:0px; margin-bottom:0px; margin-left:0px; margin-right:0px; -qt-block-indent:0; text-indent:0px;&quot;&gt;&lt;span style=&quot; font-family:'Times New Roman'; font-size:60pt; font-weight:600; color:#efef00;&quot;&gt;Sem sobrevivência &lt;/span&gt;&lt;/p&gt;
&lt;p align=&quot;center&quot; style=&quot; margin-top:0px; margin-bottom:0px; margin-left:0px; margin-right:0px; -qt-block-indent:0; text-indent:0px;&quot;&gt;&lt;span style=&quot; font-family:'Times New Roman'; font-size:60pt; font-weight:600; color:#efef00;&quot;&gt;para o &lt;br /&gt;impulso das eras&lt;/span&gt;&lt;/p&gt;
&lt;p align=&quot;center&quot; style=&quot;-qt-paragraph-type:empty; margin-top:0px; margin-bottom:0px; margin-left:0px; margin-right:0px; -qt-block-indent:0; text-indent:0px; font-family:'Times New Roman'; font-size:60pt; font-weight:600; color:#efef00;&quot;&gt;&lt;br /&gt;&lt;/p&gt;&lt;/body&gt;&lt;/html&gt;</property>
      <property name="shotcut:animIn">00:00:00.000</property>
      <property name="shotcut:animOut">00:00:00.000</property>
    </filter>
  </producer>
  <producer id="producer36" in="00:00:00.000" out="03:59:59.993">
    <property name="length">03:59:60.027</property>
    <property name="eof">pause</property>
    <property name="resource">c:/Users/migue/Videos/T3.png</property>
    <property name="ttl">1</property>
    <property name="aspect_ratio">1</property>
    <property name="progressive">1</property>
    <property name="seekable">1</property>
    <property name="mlt_service">qimage</property>
    <property name="creation_time">2022-02-14T00:20:32</property>
    <property name="shotcut:hash">bc383d3fbd4e56412006f398de51a2b1</property>
    <property name="shotcut:caption">T3.png</property>
    <property name="xml">was here</property>
    <filter id="filter87" in="00:01:29.396" out="00:01:34.768">
      <property name="background">color:#00000000</property>
      <property name="mlt_service">affine</property>
      <property name="shotcut:filter">affineSizePosition</property>
      <property name="transition.fill">1</property>
      <property name="transition.distort">0</property>
      <property name="transition.rect">262.435 -10.5763 1399.94 735.94 1</property>
      <property name="transition.valign">middle</property>
      <property name="transition.halign">center</property>
      <property name="shotcut:animIn">00:00:00.000</property>
      <property name="shotcut:animOut">00:00:00.000</property>
      <property name="transition.threads">0</property>
      <property name="transition.fix_rotate_x">0</property>
    </filter>
    <filter id="filter88" in="00:01:29.396" out="00:01:34.768">
      <property name="argument"></property>
      <property name="geometry">-27 172 849 576 1</property>
      <property name="family">Sans</property>
      <property name="size">48</property>
      <property name="weight">400</property>
      <property name="style">normal</property>
      <property name="fgcolour">0x000000ff</property>
      <property name="bgcolour">#00000000</property>
      <property name="olcolour">0x00000000</property>
      <property name="pad">0</property>
      <property name="halign">left</property>
      <property name="valign">top</property>
      <property name="outline">0</property>
      <property name="pixel_ratio">1</property>
      <property name="mlt_service">qtext</property>
      <property name="shotcut:filter">richText</property>
      <property name="html">&lt;!DOCTYPE HTML PUBLIC &quot;-//W3C//DTD HTML 4.0//EN&quot; &quot;http://www.w3.org/TR/REC-html40/strict.dtd&quot;&gt;
&lt;html&gt;&lt;head&gt;&lt;meta name=&quot;qrichtext&quot; content=&quot;1&quot; /&gt;&lt;style type=&quot;text/css&quot;&gt;
p, li { white-space: pre-wrap; }
&lt;/style&gt;&lt;/head&gt;&lt;body style=&quot; font-family:'MS Shell Dlg 2'; font-size:8.25pt; font-weight:400; font-style:normal;&quot;&gt;
&lt;p align=&quot;center&quot; style=&quot; margin-top:0px; margin-bottom:0px; margin-left:0px; margin-right:0px; -qt-block-indent:0; text-indent:0px;&quot;&gt;&lt;span style=&quot; font-family:'Times New Roman'; font-size:60pt; font-weight:600; color:#efef00;&quot;&gt;Que a humanidade &lt;/span&gt;&lt;/p&gt;
&lt;p align=&quot;center&quot; style=&quot; margin-top:0px; margin-bottom:0px; margin-left:0px; margin-right:0px; -qt-block-indent:0; text-indent:0px;&quot;&gt;&lt;span style=&quot; font-family:'Times New Roman'; font-size:60pt; font-weight:600; color:#efef00;&quot;&gt; avance em direção &lt;/span&gt;&lt;/p&gt;
&lt;p align=&quot;center&quot; style=&quot; margin-top:0px; margin-bottom:0px; margin-left:0px; margin-right:0px; -qt-block-indent:0; text-indent:0px;&quot;&gt;&lt;span style=&quot; font-family:'Times New Roman'; font-size:60pt; font-weight:600; color:#efef00;&quot;&gt;a seu objetivo&lt;/span&gt;&lt;/p&gt;
&lt;p align=&quot;center&quot; style=&quot;-qt-paragraph-type:empty; margin-top:0px; margin-bottom:0px; margin-left:0px; margin-right:0px; -qt-block-indent:0; text-indent:0px; font-family:'Times New Roman'; font-size:60pt; font-weight:600; color:#efef00;&quot;&gt;&lt;br /&gt;&lt;/p&gt;&lt;/body&gt;&lt;/html&gt;</property>
      <property name="shotcut:animIn">00:00:00.000</property>
      <property name="shotcut:animOut">00:00:00.000</property>
    </filter>
  </producer>
  <producer id="producer37" in="00:00:00.000" out="03:59:59.993">
    <property name="length">03:59:60.027</property>
    <property name="eof">pause</property>
    <property name="resource">c:/Users/migue/Videos/T3.png</property>
    <property name="ttl">1</property>
    <property name="aspect_ratio">1</property>
    <property name="progressive">1</property>
    <property name="seekable">1</property>
    <property name="mlt_service">qimage</property>
    <property name="creation_time">2022-02-14T00:20:32</property>
    <property name="shotcut:hash">bc383d3fbd4e56412006f398de51a2b1</property>
    <property name="shotcut:caption">T3.png</property>
    <property name="xml">was here</property>
    <filter id="filter89" in="00:01:34.801" out="00:01:35.702">
      <property name="background">color:#00000000</property>
      <property name="mlt_service">affine</property>
      <property name="shotcut:filter">affineSizePosition</property>
      <property name="transition.fill">1</property>
      <property name="transition.distort">0</property>
      <property name="transition.rect">262.435 -10.5763 1399.94 735.94 1</property>
      <property name="transition.valign">middle</property>
      <property name="transition.halign">center</property>
      <property name="shotcut:animIn">00:00:00.000</property>
      <property name="shotcut:animOut">00:00:00.000</property>
      <property name="transition.threads">0</property>
      <property name="transition.fix_rotate_x">0</property>
    </filter>
  </producer>
  <producer id="producer38" in="00:00:00.000" out="03:59:59.993">
    <property name="length">03:59:60.027</property>
    <property name="eof">pause</property>
    <property name="resource">c:/Users/migue/Videos/T3.png</property>
    <property name="ttl">1</property>
    <property name="aspect_ratio">1</property>
    <property name="progressive">1</property>
    <property name="seekable">1</property>
    <property name="mlt_service">qimage</property>
    <property name="creation_time">2022-02-14T00:20:32</property>
    <property name="shotcut:hash">bc383d3fbd4e56412006f398de51a2b1</property>
    <property name="shotcut:caption">T3.png</property>
    <property name="xml">was here</property>
    <filter id="filter90" in="00:01:35.736" out="00:01:42.242">
      <property name="background">color:#00000000</property>
      <property name="mlt_service">affine</property>
      <property name="shotcut:filter">affineSizePosition</property>
      <property name="transition.fill">1</property>
      <property name="transition.distort">0</property>
      <property name="transition.rect">262.435 -10.5763 1399.94 735.94 1</property>
      <property name="transition.valign">middle</property>
      <property name="transition.halign">center</property>
      <property name="shotcut:animIn">00:00:00.000</property>
      <property name="shotcut:animOut">00:00:00.000</property>
      <property name="transition.threads">0</property>
      <property name="transition.fix_rotate_x">0</property>
    </filter>
    <filter id="filter91" in="00:01:35.736" out="00:01:42.242">
      <property name="argument"></property>
      <property name="geometry">-27 172 849 576 1</property>
      <property name="family">Sans</property>
      <property name="size">48</property>
      <property name="weight">400</property>
      <property name="style">normal</property>
      <property name="fgcolour">0x000000ff</property>
      <property name="bgcolour">#00000000</property>
      <property name="olcolour">0x00000000</property>
      <property name="pad">0</property>
      <property name="halign">left</property>
      <property name="valign">top</property>
      <property name="outline">0</property>
      <property name="pixel_ratio">1</property>
      <property name="mlt_service">qtext</property>
      <property name="shotcut:filter">richText</property>
      <property name="html">&lt;!DOCTYPE HTML PUBLIC &quot;-//W3C//DTD HTML 4.0//EN&quot; &quot;http://www.w3.org/TR/REC-html40/strict.dtd&quot;&gt;
&lt;html&gt;&lt;head&gt;&lt;meta name=&quot;qrichtext&quot; content=&quot;1&quot; /&gt;&lt;style type=&quot;text/css&quot;&gt;
p, li { white-space: pre-wrap; }
&lt;/style&gt;&lt;/head&gt;&lt;body style=&quot; font-family:'MS Shell Dlg 2'; font-size:8.25pt; font-weight:400; font-style:normal;&quot;&gt;
&lt;p align=&quot;center&quot; style=&quot; margin-top:0px; margin-bottom:0px; margin-left:0px; margin-right:0px; -qt-block-indent:0; text-indent:0px;&quot;&gt;&lt;span style=&quot; font-family:'Times New Roman'; font-size:60pt; font-weight:600; color:#efef00;&quot;&gt;Toda fúria e poder do inimigo deve em breve cair sobre nós&lt;/span&gt;&lt;/p&gt;
&lt;p align=&quot;center&quot; style=&quot;-qt-paragraph-type:empty; margin-top:0px; margin-bottom:0px; margin-left:0px; margin-right:0px; -qt-block-indent:0; text-indent:0px; font-family:'Times New Roman'; font-size:60pt; font-weight:600; color:#efef00;&quot;&gt;&lt;br /&gt;&lt;/p&gt;&lt;/body&gt;&lt;/html&gt;</property>
      <property name="shotcut:animIn">00:00:00.000</property>
      <property name="shotcut:animOut">00:00:00.000</property>
    </filter>
  </producer>
  <producer id="producer39" in="00:00:00.000" out="03:59:59.993">
    <property name="length">03:59:60.027</property>
    <property name="eof">pause</property>
    <property name="resource">c:/Users/migue/Videos/T3.png</property>
    <property name="ttl">1</property>
    <property name="aspect_ratio">1</property>
    <property name="progressive">1</property>
    <property name="seekable">1</property>
    <property name="mlt_service">qimage</property>
    <property name="creation_time">2022-02-14T00:20:32</property>
    <property name="shotcut:hash">bc383d3fbd4e56412006f398de51a2b1</property>
    <property name="shotcut:caption">T3.png</property>
    <property name="xml">was here</property>
    <filter id="filter92" in="00:01:42.276" out="00:01:47.548">
      <property name="background">color:#00000000</property>
      <property name="mlt_service">affine</property>
      <property name="shotcut:filter">affineSizePosition</property>
      <property name="transition.fill">1</property>
      <property name="transition.distort">0</property>
      <property name="transition.rect">262.435 -10.5763 1399.94 735.94 1</property>
      <property name="transition.valign">middle</property>
      <property name="transition.halign">center</property>
      <property name="shotcut:animIn">00:00:00.000</property>
      <property name="shotcut:animOut">00:00:00.000</property>
      <property name="transition.threads">0</property>
      <property name="transition.fix_rotate_x">0</property>
    </filter>
    <filter id="filter93" in="00:01:42.276" out="00:01:47.548">
      <property name="argument"></property>
      <property name="geometry">-27 172 849 576 1</property>
      <property name="family">Sans</property>
      <property name="size">48</property>
      <property name="weight">400</property>
      <property name="style">normal</property>
      <property name="fgcolour">0x000000ff</property>
      <property name="bgcolour">#00000000</property>
      <property name="olcolour">0x00000000</property>
      <property name="pad">0</property>
      <property name="halign">left</property>
      <property name="valign">top</property>
      <property name="outline">0</property>
      <property name="pixel_ratio">1</property>
      <property name="mlt_service">qtext</property>
      <property name="shotcut:filter">richText</property>
      <property name="html">&lt;!DOCTYPE HTML PUBLIC &quot;-//W3C//DTD HTML 4.0//EN&quot; &quot;http://www.w3.org/TR/REC-html40/strict.dtd&quot;&gt;
&lt;html&gt;&lt;head&gt;&lt;meta name=&quot;qrichtext&quot; content=&quot;1&quot; /&gt;&lt;style type=&quot;text/css&quot;&gt;
p, li { white-space: pre-wrap; }
&lt;/style&gt;&lt;/head&gt;&lt;body style=&quot; font-family:'MS Shell Dlg 2'; font-size:8.25pt; font-weight:400; font-style:normal;&quot;&gt;
&lt;p align=&quot;center&quot; style=&quot; margin-top:0px; margin-bottom:0px; margin-left:0px; margin-right:0px; -qt-block-indent:0; text-indent:0px;&quot;&gt;&lt;span style=&quot; font-family:'Times New Roman'; font-size:60pt; font-weight:600; color:#efef00;&quot;&gt; Hitler sabe que terá que nos quebrar e quebrar esta ilha ou perder a guerra&lt;/span&gt;&lt;/p&gt;
&lt;p align=&quot;center&quot; style=&quot;-qt-paragraph-type:empty; margin-top:0px; margin-bottom:0px; margin-left:0px; margin-right:0px; -qt-block-indent:0; text-indent:0px; font-family:'Times New Roman'; font-size:60pt; font-weight:600; color:#efef00;&quot;&gt;&lt;br /&gt;&lt;/p&gt;&lt;/body&gt;&lt;/html&gt;</property>
      <property name="shotcut:animIn">00:00:00.000</property>
      <property name="shotcut:animOut">00:00:00.000</property>
    </filter>
  </producer>
  <producer id="producer40" in="00:00:00.000" out="03:59:59.993">
    <property name="length">03:59:60.027</property>
    <property name="eof">pause</property>
    <property name="resource">c:/Users/migue/Videos/T3.png</property>
    <property name="ttl">1</property>
    <property name="aspect_ratio">1</property>
    <property name="progressive">1</property>
    <property name="seekable">1</property>
    <property name="mlt_service">qimage</property>
    <property name="creation_time">2022-02-14T00:20:32</property>
    <property name="shotcut:hash">bc383d3fbd4e56412006f398de51a2b1</property>
    <property name="shotcut:caption">T3.png</property>
    <property name="xml">was here</property>
    <filter id="filter94" in="00:01:47.581" out="00:01:48.115">
      <property name="background">color:#00000000</property>
      <property name="mlt_service">affine</property>
      <property name="shotcut:filter">affineSizePosition</property>
      <property name="transition.fill">1</property>
      <property name="transition.distort">0</property>
      <property name="transition.rect">262.435 -10.5763 1399.94 735.94 1</property>
      <property name="transition.valign">middle</property>
      <property name="transition.halign">center</property>
      <property name="shotcut:animIn">00:00:00.000</property>
      <property name="shotcut:animOut">00:00:00.000</property>
      <property name="transition.threads">0</property>
      <property name="transition.fix_rotate_x">0</property>
    </filter>
  </producer>
  <producer id="producer41" in="00:00:00.000" out="03:59:59.993">
    <property name="length">03:59:60.027</property>
    <property name="eof">pause</property>
    <property name="resource">c:/Users/migue/Videos/T3.png</property>
    <property name="ttl">1</property>
    <property name="aspect_ratio">1</property>
    <property name="progressive">1</property>
    <property name="seekable">1</property>
    <property name="mlt_service">qimage</property>
    <property name="creation_time">2022-02-14T00:20:32</property>
    <property name="shotcut:hash">bc383d3fbd4e56412006f398de51a2b1</property>
    <property name="shotcut:caption">T3.png</property>
    <property name="xml">was here</property>
    <filter id="filter95" in="00:01:48.148" out="00:01:51.685">
      <property name="background">color:#00000000</property>
      <property name="mlt_service">affine</property>
      <property name="shotcut:filter">affineSizePosition</property>
      <property name="transition.fill">1</property>
      <property name="transition.distort">0</property>
      <property name="transition.rect">262.435 -10.5763 1399.94 735.94 1</property>
      <property name="transition.valign">middle</property>
      <property name="transition.halign">center</property>
      <property name="shotcut:animIn">00:00:00.000</property>
      <property name="shotcut:animOut">00:00:00.000</property>
      <property name="transition.threads">0</property>
      <property name="transition.fix_rotate_x">0</property>
    </filter>
    <filter id="filter96" in="00:01:48.148" out="00:01:51.685">
      <property name="argument"></property>
      <property name="geometry">-27 172 849 576 1</property>
      <property name="family">Sans</property>
      <property name="size">48</property>
      <property name="weight">400</property>
      <property name="style">normal</property>
      <property name="fgcolour">0x000000ff</property>
      <property name="bgcolour">#00000000</property>
      <property name="olcolour">0x00000000</property>
      <property name="pad">0</property>
      <property name="halign">left</property>
      <property name="valign">top</property>
      <property name="outline">0</property>
      <property name="pixel_ratio">1</property>
      <property name="mlt_service">qtext</property>
      <property name="shotcut:filter">richText</property>
      <property name="html">&lt;!DOCTYPE HTML PUBLIC &quot;-//W3C//DTD HTML 4.0//EN&quot; &quot;http://www.w3.org/TR/REC-html40/strict.dtd&quot;&gt;
&lt;html&gt;&lt;head&gt;&lt;meta name=&quot;qrichtext&quot; content=&quot;1&quot; /&gt;&lt;style type=&quot;text/css&quot;&gt;
p, li { white-space: pre-wrap; }
&lt;/style&gt;&lt;/head&gt;&lt;body style=&quot; font-family:'MS Shell Dlg 2'; font-size:8.25pt; font-weight:400; font-style:normal;&quot;&gt;
&lt;p align=&quot;center&quot; style=&quot; margin-top:0px; margin-bottom:0px; margin-left:0px; margin-right:0px; -qt-block-indent:0; text-indent:0px;&quot;&gt;&lt;span style=&quot; font-family:'Times New Roman'; font-size:60pt; font-weight:600; color:#efef00;&quot;&gt;A batalha pela &lt;/span&gt;&lt;/p&gt;
&lt;p align=&quot;center&quot; style=&quot; margin-top:0px; margin-bottom:0px; margin-left:0px; margin-right:0px; -qt-block-indent:0; text-indent:0px;&quot;&gt;&lt;span style=&quot; font-family:'Times New Roman'; font-size:60pt; font-weight:600; color:#efef00;&quot;&gt;França acabou&lt;/span&gt;&lt;/p&gt;
&lt;p align=&quot;center&quot; style=&quot;-qt-paragraph-type:empty; margin-top:0px; margin-bottom:0px; margin-left:0px; margin-right:0px; -qt-block-indent:0; text-indent:0px; font-family:'Times New Roman'; font-size:60pt; font-weight:600; color:#efef00;&quot;&gt;&lt;br /&gt;&lt;/p&gt;&lt;/body&gt;&lt;/html&gt;</property>
      <property name="shotcut:animIn">00:00:00.000</property>
      <property name="shotcut:animOut">00:00:00.000</property>
    </filter>
  </producer>
  <producer id="producer42" in="00:00:00.000" out="03:59:59.993">
    <property name="length">03:59:60.027</property>
    <property name="eof">pause</property>
    <property name="resource">c:/Users/migue/Videos/T3.png</property>
    <property name="ttl">1</property>
    <property name="aspect_ratio">1</property>
    <property name="progressive">1</property>
    <property name="seekable">1</property>
    <property name="mlt_service">qimage</property>
    <property name="creation_time">2022-02-14T00:20:32</property>
    <property name="shotcut:hash">bc383d3fbd4e56412006f398de51a2b1</property>
    <property name="shotcut:caption">T3.png</property>
    <property name="xml">was here</property>
    <filter id="filter97" in="00:01:51.718" out="00:01:56.823">
      <property name="background">color:#00000000</property>
      <property name="mlt_service">affine</property>
      <property name="shotcut:filter">affineSizePosition</property>
      <property name="transition.fill">1</property>
      <property name="transition.distort">0</property>
      <property name="transition.rect">262.435 -10.5763 1399.94 735.94 1</property>
      <property name="transition.valign">middle</property>
      <property name="transition.halign">center</property>
      <property name="shotcut:animIn">00:00:00.000</property>
      <property name="shotcut:animOut">00:00:00.000</property>
      <property name="transition.threads">0</property>
      <property name="transition.fix_rotate_x">0</property>
    </filter>
    <filter id="filter98" in="00:01:51.718" out="00:01:56.823">
      <property name="argument"></property>
      <property name="geometry">-27 172 849 576 1</property>
      <property name="family">Sans</property>
      <property name="size">48</property>
      <property name="weight">400</property>
      <property name="style">normal</property>
      <property name="fgcolour">0x000000ff</property>
      <property name="bgcolour">#00000000</property>
      <property name="olcolour">0x00000000</property>
      <property name="pad">0</property>
      <property name="halign">left</property>
      <property name="valign">top</property>
      <property name="outline">0</property>
      <property name="pixel_ratio">1</property>
      <property name="mlt_service">qtext</property>
      <property name="shotcut:filter">richText</property>
      <property name="html">&lt;!DOCTYPE HTML PUBLIC &quot;-//W3C//DTD HTML 4.0//EN&quot; &quot;http://www.w3.org/TR/REC-html40/strict.dtd&quot;&gt;
&lt;html&gt;&lt;head&gt;&lt;meta name=&quot;qrichtext&quot; content=&quot;1&quot; /&gt;&lt;style type=&quot;text/css&quot;&gt;
p, li { white-space: pre-wrap; }
&lt;/style&gt;&lt;/head&gt;&lt;body style=&quot; font-family:'MS Shell Dlg 2'; font-size:8.25pt; font-weight:400; font-style:normal;&quot;&gt;
&lt;p align=&quot;center&quot; style=&quot; margin-top:0px; margin-bottom:0px; margin-left:0px; margin-right:0px; -qt-block-indent:0; text-indent:0px;&quot;&gt;&lt;span style=&quot; font-family:'Times New Roman'; font-size:60pt; font-weight:600; color:#efef00;&quot;&gt;Espero que a batalha pela Grã-Bretanha&lt;/span&gt;&lt;/p&gt;
&lt;p align=&quot;center&quot; style=&quot; margin-top:0px; margin-bottom:0px; margin-left:0px; margin-right:0px; -qt-block-indent:0; text-indent:0px;&quot;&gt;&lt;span style=&quot; font-family:'Times New Roman'; font-size:60pt; font-weight:600; color:#efef00;&quot;&gt; esteja prestes a começar&lt;/span&gt;&lt;/p&gt;
&lt;p align=&quot;center&quot; style=&quot;-qt-paragraph-type:empty; margin-top:0px; margin-bottom:0px; margin-left:0px; margin-right:0px; -qt-block-indent:0; text-indent:0px; font-family:'Times New Roman'; font-size:60pt; font-weight:600; color:#efef00;&quot;&gt;&lt;br /&gt;&lt;/p&gt;&lt;/body&gt;&lt;/html&gt;</property>
      <property name="shotcut:animIn">00:00:00.000</property>
      <property name="shotcut:animOut">00:00:00.000</property>
    </filter>
  </producer>
  <producer id="producer43" in="00:00:00.000" out="03:59:59.993">
    <property name="length">03:59:60.027</property>
    <property name="eof">pause</property>
    <property name="resource">c:/Users/migue/Videos/T3.png</property>
    <property name="ttl">1</property>
    <property name="aspect_ratio">1</property>
    <property name="progressive">1</property>
    <property name="seekable">1</property>
    <property name="mlt_service">qimage</property>
    <property name="creation_time">2022-02-14T00:20:32</property>
    <property name="shotcut:hash">bc383d3fbd4e56412006f398de51a2b1</property>
    <property name="shotcut:caption">T3.png</property>
    <property name="xml">was here</property>
    <filter id="filter99" in="00:01:56.857" out="00:01:58.392">
      <property name="background">color:#00000000</property>
      <property name="mlt_service">affine</property>
      <property name="shotcut:filter">affineSizePosition</property>
      <property name="transition.fill">1</property>
      <property name="transition.distort">0</property>
      <property name="transition.rect">262.435 -10.5763 1399.94 735.94 1</property>
      <property name="transition.valign">middle</property>
      <property name="transition.halign">center</property>
      <property name="shotcut:animIn">00:00:00.000</property>
      <property name="shotcut:animOut">00:00:00.000</property>
      <property name="transition.threads">0</property>
      <property name="transition.fix_rotate_x">0</property>
    </filter>
  </producer>
  <producer id="producer44" in="00:00:00.000" out="03:59:59.993">
    <property name="length">03:59:60.027</property>
    <property name="eof">pause</property>
    <property name="resource">c:/Users/migue/Videos/T3.png</property>
    <property name="ttl">1</property>
    <property name="aspect_ratio">1</property>
    <property name="progressive">1</property>
    <property name="seekable">1</property>
    <property name="mlt_service">qimage</property>
    <property name="creation_time">2022-02-14T00:20:32</property>
    <property name="shotcut:hash">bc383d3fbd4e56412006f398de51a2b1</property>
    <property name="shotcut:caption">T3.png</property>
    <property name="xml">was here</property>
    <filter id="filter100" in="00:01:58.425" out="00:02:04.204">
      <property name="background">color:#00000000</property>
      <property name="mlt_service">affine</property>
      <property name="shotcut:filter">affineSizePosition</property>
      <property name="transition.fill">1</property>
      <property name="transition.distort">0</property>
      <property name="transition.rect">262.435 -10.5763 1399.94 735.94 1</property>
      <property name="transition.valign">middle</property>
      <property name="transition.halign">center</property>
      <property name="shotcut:animIn">00:00:00.000</property>
      <property name="shotcut:animOut">00:00:00.000</property>
      <property name="transition.threads">0</property>
      <property name="transition.fix_rotate_x">0</property>
    </filter>
    <filter id="filter101" in="00:01:58.425" out="00:02:04.204">
      <property name="argument"></property>
      <property name="geometry">-16 172 856 576 1</property>
      <property name="family">Sans</property>
      <property name="size">48</property>
      <property name="weight">400</property>
      <property name="style">normal</property>
      <property name="fgcolour">0x000000ff</property>
      <property name="bgcolour">#00000000</property>
      <property name="olcolour">0x00000000</property>
      <property name="pad">0</property>
      <property name="halign">left</property>
      <property name="valign">top</property>
      <property name="outline">0</property>
      <property name="pixel_ratio">1</property>
      <property name="mlt_service">qtext</property>
      <property name="shotcut:filter">richText</property>
      <property name="html">&lt;!DOCTYPE HTML PUBLIC &quot;-//W3C//DTD HTML 4.0//EN&quot; &quot;http://www.w3.org/TR/REC-html40/strict.dtd&quot;&gt;
&lt;html&gt;&lt;head&gt;&lt;meta name=&quot;qrichtext&quot; content=&quot;1&quot; /&gt;&lt;style type=&quot;text/css&quot;&gt;
p, li { white-space: pre-wrap; }
&lt;/style&gt;&lt;/head&gt;&lt;body style=&quot; font-family:'MS Shell Dlg 2'; font-size:8.25pt; font-weight:400; font-style:normal;&quot;&gt;
&lt;p align=&quot;center&quot; style=&quot; margin-top:0px; margin-bottom:0px; margin-left:0px; margin-right:0px; -qt-block-indent:0; text-indent:0px;&quot;&gt;&lt;span style=&quot; font-family:'Times New Roman'; font-size:60pt; font-weight:600; color:#efef00;&quot;&gt; Desta batalha depende     a sobrevivência de toda a civilização cristã&lt;/span&gt;&lt;/p&gt;
&lt;p align=&quot;center&quot; style=&quot;-qt-paragraph-type:empty; margin-top:0px; margin-bottom:0px; margin-left:0px; margin-right:0px; -qt-block-indent:0; text-indent:0px; font-family:'Times New Roman'; font-size:60pt; font-weight:600; color:#efef00;&quot;&gt;&lt;br /&gt;&lt;/p&gt;&lt;/body&gt;&lt;/html&gt;</property>
      <property name="shotcut:animIn">00:00:00.000</property>
      <property name="shotcut:animOut">00:00:00.000</property>
    </filter>
  </producer>
  <producer id="producer45" in="00:00:00.000" out="03:59:59.993">
    <property name="length">03:59:60.027</property>
    <property name="eof">pause</property>
    <property name="resource">c:/Users/migue/Videos/T3.png</property>
    <property name="ttl">1</property>
    <property name="aspect_ratio">1</property>
    <property name="progressive">1</property>
    <property name="seekable">1</property>
    <property name="mlt_service">qimage</property>
    <property name="creation_time">2022-02-14T00:20:32</property>
    <property name="shotcut:hash">bc383d3fbd4e56412006f398de51a2b1</property>
    <property name="shotcut:caption">T3.png</property>
    <property name="xml">was here</property>
    <filter id="filter102" in="00:02:04.238" out="00:02:10.110">
      <property name="background">color:#00000000</property>
      <property name="mlt_service">affine</property>
      <property name="shotcut:filter">affineSizePosition</property>
      <property name="transition.fill">1</property>
      <property name="transition.distort">0</property>
      <property name="transition.rect">262.435 -10.5763 1399.94 735.94 1</property>
      <property name="transition.valign">middle</property>
      <property name="transition.halign">center</property>
      <property name="shotcut:animIn">00:00:00.000</property>
      <property name="shotcut:animOut">00:00:00.000</property>
      <property name="transition.threads">0</property>
      <property name="transition.fix_rotate_x">0</property>
    </filter>
    <filter id="filter103" in="00:02:04.238" out="00:02:10.110">
      <property name="argument"></property>
      <property name="geometry">-27 172 849 576 1</property>
      <property name="family">Sans</property>
      <property name="size">48</property>
      <property name="weight">400</property>
      <property name="style">normal</property>
      <property name="fgcolour">0x000000ff</property>
      <property name="bgcolour">#00000000</property>
      <property name="olcolour">0x00000000</property>
      <property name="pad">0</property>
      <property name="halign">left</property>
      <property name="valign">top</property>
      <property name="outline">0</property>
      <property name="pixel_ratio">1</property>
      <property name="mlt_service">qtext</property>
      <property name="shotcut:filter">richText</property>
      <property name="html">&lt;!DOCTYPE HTML PUBLIC &quot;-//W3C//DTD HTML 4.0//EN&quot; &quot;http://www.w3.org/TR/REC-html40/strict.dtd&quot;&gt;
&lt;html&gt;&lt;head&gt;&lt;meta name=&quot;qrichtext&quot; content=&quot;1&quot; /&gt;&lt;style type=&quot;text/css&quot;&gt;
p, li { white-space: pre-wrap; }
&lt;/style&gt;&lt;/head&gt;&lt;body style=&quot; font-family:'MS Shell Dlg 2'; font-size:8.25pt; font-weight:400; font-style:normal;&quot;&gt;
&lt;p align=&quot;center&quot; style=&quot; margin-top:0px; margin-bottom:0px; margin-left:0px; margin-right:0px; -qt-block-indent:0; text-indent:0px;&quot;&gt;&lt;span style=&quot; font-family:'Times New Roman'; font-size:60pt; font-weight:600; color:#efef00;&quot;&gt;Vamos nos preparar para nossos deveres&lt;/span&gt;&lt;/p&gt;
&lt;p align=&quot;center&quot; style=&quot;-qt-paragraph-type:empty; margin-top:0px; margin-bottom:0px; margin-left:0px; margin-right:0px; -qt-block-indent:0; text-indent:0px; font-family:'Times New Roman'; font-size:60pt; font-weight:600; color:#efef00;&quot;&gt;&lt;br /&gt;&lt;/p&gt;&lt;/body&gt;&lt;/html&gt;</property>
      <property name="shotcut:animIn">00:00:00.000</property>
      <property name="shotcut:animOut">00:00:00.000</property>
    </filter>
  </producer>
  <producer id="producer46" in="00:00:00.000" out="03:59:59.993">
    <property name="length">03:59:60.027</property>
    <property name="eof">pause</property>
    <property name="resource">c:/Users/migue/Videos/T3.png</property>
    <property name="ttl">1</property>
    <property name="aspect_ratio">1</property>
    <property name="progressive">1</property>
    <property name="seekable">1</property>
    <property name="mlt_service">qimage</property>
    <property name="creation_time">2022-02-14T00:20:32</property>
    <property name="shotcut:hash">bc383d3fbd4e56412006f398de51a2b1</property>
    <property name="shotcut:caption">T3.png</property>
    <property name="xml">was here</property>
    <filter id="filter104" in="00:02:10.143" out="00:02:13.347">
      <property name="background">color:#00000000</property>
      <property name="mlt_service">affine</property>
      <property name="shotcut:filter">affineSizePosition</property>
      <property name="transition.fill">1</property>
      <property name="transition.distort">0</property>
      <property name="transition.rect">262.435 -10.5763 1399.94 735.94 1</property>
      <property name="transition.valign">middle</property>
      <property name="transition.halign">center</property>
      <property name="shotcut:animIn">00:00:00.000</property>
      <property name="shotcut:animOut">00:00:00.000</property>
      <property name="transition.threads">0</property>
      <property name="transition.fix_rotate_x">0</property>
    </filter>
    <filter id="filter105" in="00:02:10.143" out="00:02:13.347">
      <property name="argument"></property>
      <property name="geometry">-27 172 849 576 1</property>
      <property name="family">Sans</property>
      <property name="size">48</property>
      <property name="weight">400</property>
      <property name="style">normal</property>
      <property name="fgcolour">0x000000ff</property>
      <property name="bgcolour">#00000000</property>
      <property name="olcolour">0x00000000</property>
      <property name="pad">0</property>
      <property name="halign">left</property>
      <property name="valign">top</property>
      <property name="outline">0</property>
      <property name="pixel_ratio">1</property>
      <property name="mlt_service">qtext</property>
      <property name="shotcut:filter">richText</property>
      <property name="html">&lt;!DOCTYPE HTML PUBLIC &quot;-//W3C//DTD HTML 4.0//EN&quot; &quot;http://www.w3.org/TR/REC-html40/strict.dtd&quot;&gt;
&lt;html&gt;&lt;head&gt;&lt;meta name=&quot;qrichtext&quot; content=&quot;1&quot; /&gt;&lt;style type=&quot;text/css&quot;&gt;
p, li { white-space: pre-wrap; }
&lt;/style&gt;&lt;/head&gt;&lt;body style=&quot; font-family:'MS Shell Dlg 2'; font-size:8.25pt; font-weight:400; font-style:normal;&quot;&gt;
&lt;p align=&quot;center&quot; style=&quot; margin-top:0px; margin-bottom:0px; margin-left:0px; margin-right:0px; -qt-block-indent:0; text-indent:0px;&quot;&gt;&lt;span style=&quot; font-family:'Times New Roman'; font-size:60pt; font-weight:600; color:#efef00;&quot;&gt;E assim nos preparar &lt;/span&gt;&lt;/p&gt;
&lt;p align=&quot;center&quot; style=&quot; margin-top:0px; margin-bottom:0px; margin-left:0px; margin-right:0px; -qt-block-indent:0; text-indent:0px;&quot;&gt;&lt;span style=&quot; font-family:'Times New Roman'; font-size:60pt; font-weight:600; color:#efef00;&quot;&gt;para que...&lt;/span&gt;&lt;/p&gt;
&lt;p align=&quot;center&quot; style=&quot;-qt-paragraph-type:empty; margin-top:0px; margin-bottom:0px; margin-left:0px; margin-right:0px; -qt-block-indent:0; text-indent:0px; font-family:'Times New Roman'; font-size:60pt; font-weight:600; color:#efef00;&quot;&gt;&lt;br /&gt;&lt;/p&gt;&lt;/body&gt;&lt;/html&gt;</property>
      <property name="shotcut:animIn">00:00:00.000</property>
      <property name="shotcut:animOut">00:00:00.000</property>
    </filter>
  </producer>
  <producer id="producer47" in="00:00:00.000" out="03:59:59.993">
    <property name="length">03:59:60.027</property>
    <property name="eof">pause</property>
    <property name="resource">c:/Users/migue/Videos/T3.png</property>
    <property name="ttl">1</property>
    <property name="aspect_ratio">1</property>
    <property name="progressive">1</property>
    <property name="seekable">1</property>
    <property name="mlt_service">qimage</property>
    <property name="creation_time">2022-02-14T00:20:32</property>
    <property name="shotcut:hash">bc383d3fbd4e56412006f398de51a2b1</property>
    <property name="shotcut:caption">T3.png</property>
    <property name="xml">was here</property>
    <filter id="filter106" in="00:02:13.380" out="00:02:16.984">
      <property name="background">color:#00000000</property>
      <property name="mlt_service">affine</property>
      <property name="shotcut:filter">affineSizePosition</property>
      <property name="transition.fill">1</property>
      <property name="transition.distort">0</property>
      <property name="transition.rect">262.435 -10.5763 1399.94 735.94 1</property>
      <property name="transition.valign">middle</property>
      <property name="transition.halign">center</property>
      <property name="shotcut:animIn">00:00:00.000</property>
      <property name="shotcut:animOut">00:00:00.000</property>
      <property name="transition.threads">0</property>
      <property name="transition.fix_rotate_x">0</property>
    </filter>
    <filter id="filter107" in="00:02:13.380" out="00:02:16.984">
      <property name="argument"></property>
      <property name="geometry">-27 172 849 576 1</property>
      <property name="family">Sans</property>
      <property name="size">48</property>
      <property name="weight">400</property>
      <property name="style">normal</property>
      <property name="fgcolour">0x000000ff</property>
      <property name="bgcolour">#00000000</property>
      <property name="olcolour">0x00000000</property>
      <property name="pad">0</property>
      <property name="halign">left</property>
      <property name="valign">top</property>
      <property name="outline">0</property>
      <property name="pixel_ratio">1</property>
      <property name="mlt_service">qtext</property>
      <property name="shotcut:filter">richText</property>
      <property name="html">&lt;!DOCTYPE HTML PUBLIC &quot;-//W3C//DTD HTML 4.0//EN&quot; &quot;http://www.w3.org/TR/REC-html40/strict.dtd&quot;&gt;
&lt;html&gt;&lt;head&gt;&lt;meta name=&quot;qrichtext&quot; content=&quot;1&quot; /&gt;&lt;style type=&quot;text/css&quot;&gt;
p, li { white-space: pre-wrap; }
&lt;/style&gt;&lt;/head&gt;&lt;body style=&quot; font-family:'MS Shell Dlg 2'; font-size:8.25pt; font-weight:400; font-style:normal;&quot;&gt;
&lt;p align=&quot;center&quot; style=&quot; margin-top:0px; margin-bottom:0px; margin-left:0px; margin-right:0px; -qt-block-indent:0; text-indent:0px;&quot;&gt;&lt;span style=&quot; font-family:'Times New Roman'; font-size:60pt; font-weight:600; color:#efef00;&quot;&gt;Que se o &lt;/span&gt;&lt;/p&gt;
&lt;p align=&quot;center&quot; style=&quot; margin-top:0px; margin-bottom:0px; margin-left:0px; margin-right:0px; -qt-block-indent:0; text-indent:0px;&quot;&gt;&lt;span style=&quot; font-family:'Times New Roman'; font-size:60pt; font-weight:600; color:#efef00;&quot;&gt;Império Britânico &lt;/span&gt;&lt;/p&gt;
&lt;p align=&quot;center&quot; style=&quot; margin-top:0px; margin-bottom:0px; margin-left:0px; margin-right:0px; -qt-block-indent:0; text-indent:0px;&quot;&gt;&lt;span style=&quot; font-family:'Times New Roman'; font-size:60pt; font-weight:600; color:#efef00;&quot;&gt;durar mais MIL anos&lt;/span&gt;&lt;/p&gt;
&lt;p align=&quot;center&quot; style=&quot;-qt-paragraph-type:empty; margin-top:0px; margin-bottom:0px; margin-left:0px; margin-right:0px; -qt-block-indent:0; text-indent:0px; font-family:'Times New Roman'; font-size:60pt; font-weight:600; color:#efef00;&quot;&gt;&lt;br /&gt;&lt;/p&gt;&lt;/body&gt;&lt;/html&gt;</property>
      <property name="shotcut:animIn">00:00:00.000</property>
      <property name="shotcut:animOut">00:00:00.000</property>
    </filter>
  </producer>
  <producer id="producer48" in="00:00:00.000" out="03:59:59.993">
    <property name="length">03:59:60.027</property>
    <property name="eof">pause</property>
    <property name="resource">c:/Users/migue/Videos/T3.png</property>
    <property name="ttl">1</property>
    <property name="aspect_ratio">1</property>
    <property name="progressive">1</property>
    <property name="seekable">1</property>
    <property name="mlt_service">qimage</property>
    <property name="creation_time">2022-02-14T00:20:32</property>
    <property name="shotcut:hash">bc383d3fbd4e56412006f398de51a2b1</property>
    <property name="shotcut:caption">T3.png</property>
    <property name="xml">was here</property>
    <filter id="filter108" in="00:02:20.287" out="00:02:22.623">
      <property name="background">color:#00000000</property>
      <property name="mlt_service">affine</property>
      <property name="shotcut:filter">affineSizePosition</property>
      <property name="transition.fill">1</property>
      <property name="transition.distort">0</property>
      <property name="transition.rect">262.435 -10.5763 1399.94 735.94 1</property>
      <property name="transition.valign">middle</property>
      <property name="transition.halign">center</property>
      <property name="shotcut:animIn">00:00:00.000</property>
      <property name="shotcut:animOut">00:00:00.000</property>
      <property name="transition.threads">0</property>
      <property name="transition.fix_rotate_x">0</property>
    </filter>
    <filter id="filter109" in="00:02:20.287" out="00:02:22.623">
      <property name="argument"></property>
      <property name="geometry">-27 172 849 576 1</property>
      <property name="family">Sans</property>
      <property name="size">48</property>
      <property name="weight">400</property>
      <property name="style">normal</property>
      <property name="fgcolour">0x000000ff</property>
      <property name="bgcolour">#00000000</property>
      <property name="olcolour">0x00000000</property>
      <property name="pad">0</property>
      <property name="halign">left</property>
      <property name="valign">top</property>
      <property name="outline">0</property>
      <property name="pixel_ratio">1</property>
      <property name="mlt_service">qtext</property>
      <property name="shotcut:filter">richText</property>
      <property name="html">&lt;!DOCTYPE HTML PUBLIC &quot;-//W3C//DTD HTML 4.0//EN&quot; &quot;http://www.w3.org/TR/REC-html40/strict.dtd&quot;&gt;
&lt;html&gt;&lt;head&gt;&lt;meta name=&quot;qrichtext&quot; content=&quot;1&quot; /&gt;&lt;style type=&quot;text/css&quot;&gt;
p, li { white-space: pre-wrap; }
&lt;/style&gt;&lt;/head&gt;&lt;body style=&quot; font-family:'MS Shell Dlg 2'; font-size:8.25pt; font-weight:400; font-style:normal;&quot;&gt;
&lt;p align=&quot;center&quot; style=&quot; margin-top:0px; margin-bottom:0px; margin-left:0px; margin-right:0px; -qt-block-indent:0; text-indent:0px;&quot;&gt;&lt;span style=&quot; font-family:'Times New Roman'; font-size:60pt; font-weight:600; color:#efef00;&quot;&gt;Que se o &lt;/span&gt;&lt;/p&gt;
&lt;p align=&quot;center&quot; style=&quot; margin-top:0px; margin-bottom:0px; margin-left:0px; margin-right:0px; -qt-block-indent:0; text-indent:0px;&quot;&gt;&lt;span style=&quot; font-family:'Times New Roman'; font-size:60pt; font-weight:600; color:#efef00;&quot;&gt;Império Britânico &lt;/span&gt;&lt;/p&gt;
&lt;p align=&quot;center&quot; style=&quot; margin-top:0px; margin-bottom:0px; margin-left:0px; margin-right:0px; -qt-block-indent:0; text-indent:0px;&quot;&gt;&lt;span style=&quot; font-family:'Times New Roman'; font-size:60pt; font-weight:600; color:#efef00;&quot;&gt;durar mais MIL anos&lt;/span&gt;&lt;/p&gt;
&lt;p align=&quot;center&quot; style=&quot;-qt-paragraph-type:empty; margin-top:0px; margin-bottom:0px; margin-left:0px; margin-right:0px; -qt-block-indent:0; text-indent:0px; font-family:'Times New Roman'; font-size:60pt; font-weight:600; color:#efef00;&quot;&gt;&lt;br /&gt;&lt;/p&gt;&lt;/body&gt;&lt;/html&gt;</property>
      <property name="shotcut:animIn">00:00:00.000</property>
      <property name="shotcut:animOut">00:00:00.000</property>
    </filter>
  </producer>
  <producer id="producer49" in="00:00:00.000" out="03:59:59.993">
    <property name="length">03:59:60.027</property>
    <property name="eof">pause</property>
    <property name="resource">c:/Users/migue/Videos/T3.png</property>
    <property name="ttl">1</property>
    <property name="aspect_ratio">1</property>
    <property name="progressive">1</property>
    <property name="seekable">1</property>
    <property name="mlt_service">qimage</property>
    <property name="creation_time">2022-02-14T00:20:32</property>
    <property name="shotcut:hash">bc383d3fbd4e56412006f398de51a2b1</property>
    <property name="shotcut:caption">T3.png</property>
    <property name="xml">was here</property>
    <filter id="filter110" in="00:02:22.656" out="00:02:26.126">
      <property name="background">color:#00000000</property>
      <property name="mlt_service">affine</property>
      <property name="shotcut:filter">affineSizePosition</property>
      <property name="transition.fill">1</property>
      <property name="transition.distort">0</property>
      <property name="transition.rect">262.435 -10.5763 1399.94 735.94 1</property>
      <property name="transition.valign">middle</property>
      <property name="transition.halign">center</property>
      <property name="shotcut:animIn">00:00:00.000</property>
      <property name="shotcut:animOut">00:00:00.000</property>
      <property name="transition.threads">0</property>
      <property name="transition.fix_rotate_x">0</property>
    </filter>
    <filter id="filter111" in="00:02:22.656" out="00:02:26.126">
      <property name="argument"></property>
      <property name="geometry">-27 172 849 576 1</property>
      <property name="family">Sans</property>
      <property name="size">48</property>
      <property name="weight">400</property>
      <property name="style">normal</property>
      <property name="fgcolour">0x000000ff</property>
      <property name="bgcolour">#00000000</property>
      <property name="olcolour">0x00000000</property>
      <property name="pad">0</property>
      <property name="halign">left</property>
      <property name="valign">top</property>
      <property name="outline">0</property>
      <property name="pixel_ratio">1</property>
      <property name="mlt_service">qtext</property>
      <property name="shotcut:filter">richText</property>
      <property name="html">&lt;!DOCTYPE HTML PUBLIC &quot;-//W3C//DTD HTML 4.0//EN&quot; &quot;http://www.w3.org/TR/REC-html40/strict.dtd&quot;&gt;
&lt;html&gt;&lt;head&gt;&lt;meta name=&quot;qrichtext&quot; content=&quot;1&quot; /&gt;&lt;style type=&quot;text/css&quot;&gt;
p, li { white-space: pre-wrap; }
&lt;/style&gt;&lt;/head&gt;&lt;body style=&quot; font-family:'MS Shell Dlg 2'; font-size:8.25pt; font-weight:400; font-style:normal;&quot;&gt;
&lt;p align=&quot;center&quot; style=&quot; margin-top:0px; margin-bottom:0px; margin-left:0px; margin-right:0px; -qt-block-indent:0; text-indent:0px;&quot;&gt;&lt;span style=&quot; font-family:'Times New Roman'; font-size:60pt; font-weight:600; color:#efef00;&quot;&gt;As pessoas ainda &lt;/span&gt;&lt;/p&gt;
&lt;p align=&quot;center&quot; style=&quot; margin-top:0px; margin-bottom:0px; margin-left:0px; margin-right:0px; -qt-block-indent:0; text-indent:0px;&quot;&gt;&lt;span style=&quot; font-family:'Times New Roman'; font-size:60pt; font-weight:600; color:#efef00;&quot;&gt;irão dizer:&lt;/span&gt;&lt;/p&gt;
&lt;p align=&quot;center&quot; style=&quot;-qt-paragraph-type:empty; margin-top:0px; margin-bottom:0px; margin-left:0px; margin-right:0px; -qt-block-indent:0; text-indent:0px; font-family:'Times New Roman'; font-size:60pt; font-weight:600; color:#efef00;&quot;&gt;&lt;br /&gt;&lt;/p&gt;&lt;/body&gt;&lt;/html&gt;</property>
      <property name="shotcut:animIn">00:00:00.000</property>
      <property name="shotcut:animOut">00:00:00.000</property>
    </filter>
  </producer>
  <producer id="producer50" in="00:00:00.000" out="03:59:59.993">
    <property name="length">03:59:60.027</property>
    <property name="eof">pause</property>
    <property name="resource">c:/Users/migue/Videos/T3.png</property>
    <property name="ttl">1</property>
    <property name="aspect_ratio">1</property>
    <property name="progressive">1</property>
    <property name="seekable">1</property>
    <property name="mlt_service">qimage</property>
    <property name="creation_time">2022-02-14T00:20:32</property>
    <property name="shotcut:hash">bc383d3fbd4e56412006f398de51a2b1</property>
    <property name="shotcut:caption">T3.png</property>
    <property name="xml">was here</property>
    <filter id="filter112" in="00:02:26.159" out="00:02:30.130">
      <property name="background">color:#00000000</property>
      <property name="mlt_service">affine</property>
      <property name="shotcut:filter">affineSizePosition</property>
      <property name="transition.fill">1</property>
      <property name="transition.distort">0</property>
      <property name="transition.rect">262.435 -10.5763 1399.94 735.94 1</property>
      <property name="transition.valign">middle</property>
      <property name="transition.halign">center</property>
      <property name="shotcut:animIn">00:00:00.000</property>
      <property name="shotcut:animOut">00:00:00.000</property>
      <property name="transition.threads">0</property>
      <property name="transition.fix_rotate_x">0</property>
    </filter>
    <filter id="filter113" in="00:02:26.159" out="00:02:30.130">
      <property name="argument"></property>
      <property name="geometry">-27 172 849 576 1</property>
      <property name="family">Sans</property>
      <property name="size">48</property>
      <property name="weight">400</property>
      <property name="style">normal</property>
      <property name="fgcolour">0x000000ff</property>
      <property name="bgcolour">#00000000</property>
      <property name="olcolour">0x00000000</property>
      <property name="pad">0</property>
      <property name="halign">left</property>
      <property name="valign">top</property>
      <property name="outline">0</property>
      <property name="pixel_ratio">1</property>
      <property name="mlt_service">qtext</property>
      <property name="shotcut:filter">richText</property>
      <property name="html">&lt;!DOCTYPE HTML PUBLIC &quot;-//W3C//DTD HTML 4.0//EN&quot; &quot;http://www.w3.org/TR/REC-html40/strict.dtd&quot;&gt;
&lt;html&gt;&lt;head&gt;&lt;meta name=&quot;qrichtext&quot; content=&quot;1&quot; /&gt;&lt;style type=&quot;text/css&quot;&gt;
p, li { white-space: pre-wrap; }
&lt;/style&gt;&lt;/head&gt;&lt;body style=&quot; font-family:'MS Shell Dlg 2'; font-size:8.25pt; font-weight:400; font-style:normal;&quot;&gt;
&lt;p align=&quot;center&quot; style=&quot; margin-top:0px; margin-bottom:0px; margin-left:0px; margin-right:0px; -qt-block-indent:0; text-indent:0px;&quot;&gt;&lt;span style=&quot; font-family:'Times New Roman'; font-size:60pt; font-weight:600; color:#efef00;&quot;&gt;Este foi seus&lt;br /&gt; melhores momentos&lt;/span&gt;&lt;/p&gt;
&lt;p align=&quot;center&quot; style=&quot;-qt-paragraph-type:empty; margin-top:0px; margin-bottom:0px; margin-left:0px; margin-right:0px; -qt-block-indent:0; text-indent:0px; font-family:'Times New Roman'; font-size:60pt; font-weight:600; color:#efef00;&quot;&gt;&lt;br /&gt;&lt;/p&gt;&lt;/body&gt;&lt;/html&gt;</property>
      <property name="shotcut:animIn">00:00:00.000</property>
      <property name="shotcut:animOut">00:00:00.000</property>
    </filter>
  </producer>
  <producer id="producer51" in="00:00:00.000" out="03:59:59.993">
    <property name="length">03:59:60.027</property>
    <property name="eof">pause</property>
    <property name="resource">c:/Users/migue/Videos/T1.png</property>
    <property name="ttl">1</property>
    <property name="aspect_ratio">1</property>
    <property name="progressive">1</property>
    <property name="seekable">1</property>
    <property name="mlt_service">qimage</property>
    <property name="creation_time">2022-02-14T00:19:35</property>
    <property name="shotcut:hash">7a42f4f6745d9229aa7631f90057dd87</property>
    <property name="shotcut:caption">T1.png</property>
    <property name="xml">was here</property>
    <filter id="filter114" out="00:00:06.607">
      <property name="argument"></property>
      <property name="geometry">509 210 847 461 1</property>
      <property name="family">Sans</property>
      <property name="size">48</property>
      <property name="weight">400</property>
      <property name="style">normal</property>
      <property name="fgcolour">0x000000ff</property>
      <property name="bgcolour">#00000000</property>
      <property name="olcolour">0x00000000</property>
      <property name="pad">0</property>
      <property name="halign">left</property>
      <property name="valign">top</property>
      <property name="outline">0</property>
      <property name="pixel_ratio">1</property>
      <property name="mlt_service">qtext</property>
      <property name="shotcut:filter">richText</property>
      <property name="html">&lt;!DOCTYPE HTML PUBLIC &quot;-//W3C//DTD HTML 4.0//EN&quot; &quot;http://www.w3.org/TR/REC-html40/strict.dtd&quot;&gt;
&lt;html&gt;&lt;head&gt;&lt;meta name=&quot;qrichtext&quot; content=&quot;1&quot; /&gt;&lt;style type=&quot;text/css&quot;&gt;
p, li { white-space: pre-wrap; }
&lt;/style&gt;&lt;/head&gt;&lt;body style=&quot; font-family:'MS Shell Dlg 2'; font-size:8.25pt; font-weight:400; font-style:normal;&quot;&gt;
&lt;p align=&quot;center&quot; style=&quot; margin-top:0px; margin-bottom:0px; margin-left:0px; margin-right:0px; -qt-block-indent:0; text-indent:0px;&quot;&gt;&lt;span style=&quot; font-family:'Verdana'; font-size:39pt; font-weight:600; color:#ffff00;&quot;&gt;&amp;quot;Melhor lutar por algo &lt;/span&gt;&lt;/p&gt;
&lt;p align=&quot;center&quot; style=&quot; margin-top:0px; margin-bottom:0px; margin-left:0px; margin-right:0px; -qt-block-indent:0; text-indent:0px;&quot;&gt;&lt;span style=&quot; font-family:'Verdana'; font-size:39pt; font-weight:600; color:#ffff00;&quot;&gt;que viver para nada&amp;quot;&lt;/span&gt;&lt;/p&gt;
&lt;p align=&quot;center&quot; style=&quot;-qt-paragraph-type:empty; margin-top:0px; margin-bottom:0px; margin-left:0px; margin-right:0px; -qt-block-indent:0; text-indent:0px; font-family:'Verdana'; font-size:39pt; font-weight:600; color:#ffff00;&quot;&gt;&lt;br /&gt;&lt;/p&gt;
&lt;p align=&quot;center&quot; style=&quot;-qt-paragraph-type:empty; margin-top:0px; margin-bottom:0px; margin-left:0px; margin-right:0px; -qt-block-indent:0; text-indent:0px; font-family:'Verdana'; font-size:39pt; font-weight:600; color:#ffff00;&quot;&gt;&lt;br /&gt;&lt;/p&gt;
&lt;p align=&quot;center&quot; style=&quot;-qt-paragraph-type:empty; margin-top:0px; margin-bottom:0px; margin-left:0px; margin-right:0px; -qt-block-indent:0; text-indent:0px; font-family:'Verdana'; font-size:39pt; font-weight:600; color:#ffff00;&quot;&gt;&lt;br /&gt;&lt;/p&gt;
&lt;p align=&quot;center&quot; style=&quot; margin-top:0px; margin-bottom:0px; margin-left:0px; margin-right:0px; -qt-block-indent:0; text-indent:0px;&quot;&gt;&lt;span style=&quot; font-family:'Verdana'; font-size:39pt; font-weight:600; color:#ffff00;&quot;&gt;Winston Churchill (1874-1965)&lt;/span&gt;&lt;/p&gt;
&lt;p align=&quot;center&quot; style=&quot;-qt-paragraph-type:empty; margin-top:0px; margin-bottom:0px; margin-left:0px; margin-right:0px; -qt-block-indent:0; text-indent:0px; font-family:'Verdana'; font-size:39pt; font-weight:600; color:#ffff00;&quot;&gt;&lt;br /&gt;&lt;/p&gt;
&lt;p align=&quot;center&quot; style=&quot;-qt-paragraph-type:empty; margin-top:0px; margin-bottom:0px; margin-left:0px; margin-right:0px; -qt-block-indent:0; text-indent:0px; font-family:'Verdana'; font-size:39pt; font-weight:600; color:#ffff00;&quot;&gt;&lt;br /&gt;&lt;/p&gt;
&lt;p align=&quot;center&quot; style=&quot;-qt-paragraph-type:empty; margin-top:0px; margin-bottom:0px; margin-left:0px; margin-right:0px; -qt-block-indent:0; text-indent:0px; font-family:'Verdana'; font-size:39pt; font-weight:600; color:#ffff00;&quot;&gt;&lt;br /&gt;&lt;/p&gt;&lt;/body&gt;&lt;/html&gt;</property>
      <property name="shotcut:animIn">00:00:00.000</property>
      <property name="shotcut:animOut">00:00:00.000</property>
    </filter>
  </producer>
  <tractor id="tractor7" in="00:00:00.000" out="00:00:01.702">
    <property name="shotcut:transition">lumaMix</property>
    <track producer="producer50" in="00:02:26.894" out="00:02:28.595"/>
    <track producer="producer51" in="00:00:00.000" out="00:00:01.702"/>
    <transition id="transition14" out="00:00:01.702">
      <property name="a_track">0</property>
      <property name="b_track">1</property>
      <property name="factory">loader</property>
      <property name="mlt_service">luma</property>
      <property name="alpha_over">1</property>
    </transition>
    <transition id="transition15" out="00:00:01.702">
      <property name="a_track">0</property>
      <property name="b_track">1</property>
      <property name="mlt_service">mix</property>
      <property name="start">-1</property>
      <property name="accepts_blanks">1</property>
    </transition>
  </tractor>
  <producer id="producer52" in="00:00:00.000" out="03:59:59.993">
    <property name="length">03:59:60.027</property>
    <property name="eof">pause</property>
    <property name="resource">c:/Users/migue/Videos/T1.png</property>
    <property name="ttl">1</property>
    <property name="aspect_ratio">1</property>
    <property name="progressive">1</property>
    <property name="seekable">1</property>
    <property name="mlt_service">qimage</property>
    <property name="creation_time">2022-02-14T00:19:35</property>
    <property name="shotcut:hash">7a42f4f6745d9229aa7631f90057dd87</property>
    <property name="shotcut:caption">T1.png</property>
    <property name="xml">was here</property>
    <filter id="filter115" in="00:00:06.640" out="00:00:12.379">
      <property name="argument"></property>
      <property name="geometry">516 198 760 479 1</property>
      <property name="family">Sans</property>
      <property name="size">48</property>
      <property name="weight">400</property>
      <property name="style">normal</property>
      <property name="fgcolour">0x000000ff</property>
      <property name="bgcolour">#00000000</property>
      <property name="olcolour">0x00000000</property>
      <property name="pad">0</property>
      <property name="halign">left</property>
      <property name="valign">top</property>
      <property name="outline">0</property>
      <property name="pixel_ratio">1</property>
      <property name="mlt_service">qtext</property>
      <property name="shotcut:filter">richText</property>
      <property name="html">&lt;!DOCTYPE HTML PUBLIC &quot;-//W3C//DTD HTML 4.0//EN&quot; &quot;http://www.w3.org/TR/REC-html40/strict.dtd&quot;&gt;
&lt;html&gt;&lt;head&gt;&lt;meta name=&quot;qrichtext&quot; content=&quot;1&quot; /&gt;&lt;style type=&quot;text/css&quot;&gt;
p, li { white-space: pre-wrap; }
&lt;/style&gt;&lt;/head&gt;&lt;body style=&quot; font-family:'MS Shell Dlg 2'; font-size:8.25pt; font-weight:400; font-style:normal;&quot;&gt;
&lt;p align=&quot;center&quot; style=&quot; margin-top:0px; margin-bottom:0px; margin-left:0px; margin-right:0px; -qt-block-indent:0; text-indent:0px;&quot;&gt;&lt;span style=&quot; font-family:'Verdana'; font-size:36pt; font-weight:600; color:#ffff00;&quot;&gt;&amp;quot;Vivemos com o que recebemos, mas marcamos a vida com o que damos.&amp;quot;&lt;/span&gt;&lt;/p&gt;
&lt;p align=&quot;center&quot; style=&quot;-qt-paragraph-type:empty; margin-top:0px; margin-bottom:0px; margin-left:0px; margin-right:0px; -qt-block-indent:0; text-indent:0px; font-family:'Verdana'; font-size:39pt; font-weight:600; color:#ffff00;&quot;&gt;&lt;br /&gt;&lt;/p&gt;
&lt;p align=&quot;center&quot; style=&quot;-qt-paragraph-type:empty; margin-top:0px; margin-bottom:0px; margin-left:0px; margin-right:0px; -qt-block-indent:0; text-indent:0px; font-family:'Verdana'; font-size:39pt; font-weight:600; color:#ffff00;&quot;&gt;&lt;br /&gt;&lt;/p&gt;
&lt;p align=&quot;center&quot; style=&quot; margin-top:0px; margin-bottom:0px; margin-left:0px; margin-right:0px; -qt-block-indent:0; text-indent:0px;&quot;&gt;&lt;span style=&quot; font-family:'Verdana'; font-size:39pt; font-weight:600; color:#ffff00;&quot;&gt;Winston Churchill (1874-1965)&lt;/span&gt;&lt;/p&gt;
&lt;p align=&quot;center&quot; style=&quot;-qt-paragraph-type:empty; margin-top:0px; margin-bottom:0px; margin-left:0px; margin-right:0px; -qt-block-indent:0; text-indent:0px; font-family:'Verdana'; font-size:39pt; font-weight:600; color:#ffff00;&quot;&gt;&lt;br /&gt;&lt;/p&gt;
&lt;p align=&quot;center&quot; style=&quot;-qt-paragraph-type:empty; margin-top:0px; margin-bottom:0px; margin-left:0px; margin-right:0px; -qt-block-indent:0; text-indent:0px; font-family:'Verdana'; font-size:39pt; font-weight:600; color:#ffff00;&quot;&gt;&lt;br /&gt;&lt;/p&gt;
&lt;p align=&quot;center&quot; style=&quot;-qt-paragraph-type:empty; margin-top:0px; margin-bottom:0px; margin-left:0px; margin-right:0px; -qt-block-indent:0; text-indent:0px; font-family:'Verdana'; font-size:39pt; font-weight:600; color:#ffff00;&quot;&gt;&lt;br /&gt;&lt;/p&gt;&lt;/body&gt;&lt;/html&gt;</property>
      <property name="shotcut:animIn">00:00:00.000</property>
      <property name="shotcut:animOut">00:00:00.000</property>
    </filter>
  </producer>
  <tractor id="tractor8" in="00:00:00.000" out="00:00:00.567">
    <property name="shotcut:transition">lumaMix</property>
    <track producer="producer51" in="00:00:06.039" out="00:00:06.607"/>
    <track producer="producer52" in="00:00:06.640" out="00:00:07.207"/>
    <transition id="transition16" out="00:00:00.567">
      <property name="a_track">0</property>
      <property name="b_track">1</property>
      <property name="factory">loader</property>
      <property name="mlt_service">luma</property>
      <property name="alpha_over">1</property>
    </transition>
    <transition id="transition17" out="00:00:00.567">
      <property name="a_track">0</property>
      <property name="b_track">1</property>
      <property name="mlt_service">mix</property>
      <property name="start">-1</property>
      <property name="accepts_blanks">1</property>
    </transition>
  </tractor>
  <playlist id="playlist7">
    <property name="shotcut:video">1</property>
    <property name="shotcut:name">V7</property>
    <entry producer="producer3" in="00:00:00.000" out="00:00:01.502"/>
    <entry producer="producer4" in="00:00:01.535" out="00:00:05.105"/>
    <entry producer="producer5" in="00:00:05.138" out="00:00:06.540"/>
    <entry producer="producer6" in="00:00:06.573" out="00:00:08.475"/>
    <entry producer="producer7" in="00:00:08.509" out="00:00:10.878"/>
    <entry producer="producer8" in="00:00:10.911" out="00:00:12.880"/>
    <entry producer="producer9" in="00:00:12.913" out="00:00:14.414"/>
    <entry producer="producer10" in="00:00:14.448" out="00:00:16.950"/>
    <entry producer="producer11" in="00:00:16.984" out="00:00:18.819"/>
    <entry producer="producer12" in="00:00:18.852" out="00:00:19.653"/>
    <entry producer="producer13" in="00:00:19.686" out="00:00:20.721"/>
    <entry producer="producer14" in="00:00:20.754" out="00:00:21.822"/>
    <entry producer="producer15" in="00:00:21.855" out="00:00:24.424"/>
    <entry producer="producer16" in="00:00:24.458" out="00:00:24.525"/>
    <entry producer="producer17" in="00:00:24.558" out="00:00:29.029"/>
    <entry producer="producer18" in="00:00:29.062" out="00:00:34.468"/>
    <entry producer="producer19" in="00:00:34.501" out="00:00:37.104"/>
    <entry producer="producer20" in="00:00:37.137" out="00:00:41.708"/>
    <entry producer="producer21" in="00:00:41.742" out="00:00:43.544"/>
    <entry producer="producer22" in="00:00:43.577" out="00:00:46.680"/>
    <entry producer="producer23" in="00:00:46.713" out="00:00:49.983"/>
    <entry producer="producer24" in="00:00:50.017" out="00:00:55.222"/>
    <entry producer="producer25" in="00:00:55.255" out="00:00:57.791"/>
    <entry producer="producer26" in="00:00:57.824" out="00:01:00.667"/>
    <entry producer="producer27" in="00:01:00.701" out="00:01:02.669"/>
    <entry producer="producer28" in="00:01:02.703" out="00:01:04.037"/>
    <entry producer="producer29" in="00:01:04.071" out="00:01:06.373"/>
    <entry producer="producer30" in="00:01:06.406" out="00:01:09.109"/>
    <entry producer="producer31" in="00:01:09.142" out="00:01:13.013"/>
    <entry producer="producer32" in="00:01:13.046" out="00:01:16.617"/>
    <entry producer="producer33" in="00:01:16.650" out="00:01:21.054"/>
    <entry producer="producer34" in="00:01:21.088" out="00:01:25.025"/>
    <entry producer="producer35" in="00:01:25.058" out="00:01:29.363"/>
    <entry producer="producer36" in="00:01:29.396" out="00:01:34.768"/>
    <entry producer="producer37" in="00:01:34.801" out="00:01:35.702"/>
    <entry producer="producer38" in="00:01:35.736" out="00:01:42.242"/>
    <entry producer="producer39" in="00:01:42.276" out="00:01:47.548"/>
    <entry producer="producer40" in="00:01:47.581" out="00:01:48.115"/>
    <entry producer="producer41" in="00:01:48.148" out="00:01:51.685"/>
    <entry producer="producer42" in="00:01:51.718" out="00:01:56.823"/>
    <entry producer="producer43" in="00:01:56.857" out="00:01:58.392"/>
    <entry producer="producer44" in="00:01:58.425" out="00:02:04.204"/>
    <entry producer="producer45" in="00:02:04.238" out="00:02:10.110"/>
    <entry producer="producer46" in="00:02:10.143" out="00:02:13.347"/>
    <entry producer="producer47" in="00:02:13.380" out="00:02:16.984"/>
    <entry producer="producer48" in="00:02:20.287" out="00:02:22.623"/>
    <entry producer="producer49" in="00:02:22.656" out="00:02:26.126"/>
    <entry producer="producer50" in="00:02:26.159" out="00:02:30.130"/>
    <entry producer="tractor7" in="00:00:00.000" out="00:00:01.702"/>
    <entry producer="producer51" in="00:00:01.735" out="00:00:06.006"/>
    <entry producer="tractor8" in="00:00:00.000" out="00:00:00.567"/>
    <entry producer="producer52" in="00:00:07.241" out="00:00:12.379"/>
  </playlist>
  <playlist id="playlist8">
    <property name="shotcut:video">1</property>
    <property name="shotcut:name">V8</property>
    <blank length="00:00:00.033"/>
  </playlist>
  <tractor id="tractor9" title="Shotcut version 22.01.30" in="00:00:00.000" out="00:02:38.672">
    <property name="shotcut">1</property>
    <property name="shotcut:projectAudioChannels">2</property>
    <property name="shotcut:projectFolder">0</property>
    <property name="shotcut:scaleFactor">2.20134</property>
    <track producer="background"/>
    <track producer="playlist0"/>
    <track producer="playlist1" hide="video"/>
    <track producer="playlist2"/>
    <track producer="playlist3"/>
    <track producer="playlist5"/>
    <track producer="playlist6"/>
    <track producer="playlist4"/>
    <track producer="playlist7"/>
    <track producer="playlist8"/>
    <transition id="transition18">
      <property name="a_track">0</property>
      <property name="b_track">1</property>
      <property name="mlt_service">mix</property>
      <property name="always_active">1</property>
      <property name="sum">1</property>
    </transition>
    <transition id="transition19">
      <property name="a_track">0</property>
      <property name="b_track">1</property>
      <property name="version">0.1</property>
      <property name="mlt_service">frei0r.cairoblend</property>
      <property name="threads">0</property>
      <property name="disable">1</property>
    </transition>
    <transition id="transition20">
      <property name="a_track">0</property>
      <property name="b_track">2</property>
      <property name="mlt_service">mix</property>
      <property name="always_active">1</property>
      <property name="sum">1</property>
    </transition>
    <transition id="transition21">
      <property name="a_track">0</property>
      <property name="b_track">3</property>
      <property name="mlt_service">mix</property>
      <property name="always_active">1</property>
      <property name="sum">1</property>
    </transition>
    <transition id="transition22">
      <property name="a_track">1</property>
      <property name="b_track">3</property>
      <property name="version">0.1</property>
      <property name="mlt_service">frei0r.cairoblend</property>
      <property name="threads">0</property>
      <property name="disable">0</property>
    </transition>
    <transition id="transition23">
      <property name="a_track">0</property>
      <property name="b_track">4</property>
      <property name="mlt_service">mix</property>
      <property name="always_active">1</property>
      <property name="sum">1</property>
    </transition>
    <transition id="transition24">
      <property name="a_track">1</property>
      <property name="b_track">4</property>
      <property name="version">0.1</property>
      <property name="mlt_service">frei0r.cairoblend</property>
      <property name="threads">0</property>
      <property name="disable">0</property>
    </transition>
    <transition id="transition25">
      <property name="a_track">0</property>
      <property name="b_track">5</property>
      <property name="mlt_service">mix</property>
      <property name="always_active">1</property>
      <property name="sum">1</property>
    </transition>
    <transition id="transition26">
      <property name="a_track">1</property>
      <property name="b_track">5</property>
      <property name="version">0.1</property>
      <property name="mlt_service">frei0r.cairoblend</property>
      <property name="threads">0</property>
      <property name="disable">0</property>
    </transition>
    <transition id="transition27">
      <property name="a_track">0</property>
      <property name="b_track">6</property>
      <property name="mlt_service">mix</property>
      <property name="always_active">1</property>
      <property name="sum">1</property>
    </transition>
    <transition id="transition28">
      <property name="a_track">1</property>
      <property name="b_track">6</property>
      <property name="version">0.1</property>
      <property name="mlt_service">frei0r.cairoblend</property>
      <property name="threads">0</property>
      <property name="disable">0</property>
    </transition>
    <transition id="transition29">
      <property name="a_track">0</property>
      <property name="b_track">7</property>
      <property name="mlt_service">mix</property>
      <property name="always_active">1</property>
      <property name="sum">1</property>
    </transition>
    <transition id="transition30">
      <property name="a_track">1</property>
      <property name="b_track">7</property>
      <property name="version">0.1</property>
      <property name="mlt_service">frei0r.cairoblend</property>
      <property name="threads">0</property>
      <property name="disable">0</property>
    </transition>
    <transition id="transition31">
      <property name="a_track">0</property>
      <property name="b_track">8</property>
      <property name="mlt_service">mix</property>
      <property name="always_active">1</property>
      <property name="sum">1</property>
    </transition>
    <transition id="transition32">
      <property name="a_track">1</property>
      <property name="b_track">8</property>
      <property name="version">0.1</property>
      <property name="mlt_service">frei0r.cairoblend</property>
      <property name="threads">0</property>
      <property name="disable">0</property>
    </transition>
    <transition id="transition33">
      <property name="a_track">0</property>
      <property name="b_track">9</property>
      <property name="mlt_service">mix</property>
      <property name="always_active">1</property>
      <property name="sum">1</property>
    </transition>
    <transition id="transition34">
      <property name="a_track">1</property>
      <property name="b_track">9</property>
      <property name="version">0.1</property>
      <property name="mlt_service">frei0r.cairoblend</property>
      <property name="threads">0</property>
      <property name="disable">0</property>
    </transition>
  </tractor>
</mlt>
